<svg id="Layer_1" data-name="Layer 1" xmlns="http://www.w3.org/2000/svg" viewBox="0 0 32 32"><defs><style>.cls-1{fill:#ffc42a;}.cls-2{fill:#fff;}.cls-3{fill:#a2c23d;}.cls-4{fill:#3b939d;}</style></defs><title>Icon_Calendar</title><path class="cls-1" d="M5.87,3.16v4S5.79,9,8.17,8.91c0,0,2.56.18,2.54-1.72v-4H21.5V7s-.1,2.09,2.59,2c0,0,2.22,0,2.25-1.44V3.16h3.5A1.87,1.87,0,0,1,31.5,5v24.4s0,1.86-1.61,1.86H2.32S.5,31.25.5,29.53V4.93S.69,3.16,2.28,3.16Z"/><rect class="cls-2" x="2.42" y="11.12" width="27.18" height="18.12"/><rect class="cls-3" x="16.75" y="13.56" width="4.03" height="3.66"/><rect class="cls-3" x="22.59" y="13.56" width="4.03" height="3.66"/><rect class="cls-3" x="22.59" y="18.62" width="4.03" height="3.66"/><rect class="cls-3" x="22.59" y="23.69" width="4.03" height="3.66"/><rect class="cls-3" x="16.75" y="18.62" width="4.03" height="3.66"/><rect class="cls-3" x="16.75" y="23.69" width="4.03" height="3.66"/><rect class="cls-3" x="10.95" y="18.62" width="4.03" height="3.66"/><rect class="cls-3" x="10.95" y="23.69" width="4.03" height="3.66"/><rect class="cls-3" x="5.15" y="18.62" width="4.03" height="3.66"/><rect class="cls-3" x="5.15" y="23.69" width="4.03" height="3.66"/><rect class="cls-4" x="6.83" y="0.71" width="2.88" height="7.25" rx="1.44"/><rect class="cls-4" x="22.46" y="0.71" width="2.88" height="7.25" rx="1.44"/></svg>