<?xml version="1.0" encoding="utf-8"?>
<!-- Generator: Adobe Illustrator 24.1.2, SVG Export Plug-In . SVG Version: 6.00 Build 0)  -->
<svg version="1.1" id="Capa_1" xmlns="http://www.w3.org/2000/svg" xmlns:xlink="http://www.w3.org/1999/xlink" x="0px" y="0px"
	 viewBox="0 0 67.3 748.4" style="enable-background:new 0 0 67.3 748.4;" xml:space="preserve" preserveAspectRatio="none" >
<style type="text/css">
	.st0{fill:#929107;}
	.st1{fill:#AEAD0A;}
	.st2{fill:#DDDDDD;}
	.st3{fill:#ADADAD;}
	.st4{fill:#A4A4A4;}
	.st5{fill:#C9C9C9;}
	.st6{fill:#D3D3D3;}
	.st7{fill:#B6B31C;}
	.st8{fill:#B6B503;}
	.st9{fill:#E3E3E3;}
	.st10{fill:#E8E8E7;}
	.st11{fill:#BCBCBC;}
	.st12{fill:#595703;}
</style>
<g id="bar">
	<path class="st0" d="M9.6,730.1c0-2,0.1-4,0.1-6c3.2,0,5.4,2.1,8,3.4c9.6,4.8,20.2,6.6,31.1,4.5c0.6-0.1,1.4-0.6,1.5-1.1
		c0.9-4.6,3.8-2.1,6.1-1.8c-1.3,9.2-9.6,17.7-18.6,19c-11.6,1.7-21.7-3.5-26.2-13.6C11,733.1,10.3,731.6,9.6,730.1z M12.5,726.5
		c-1.4,1.7-0.4,2.7,0.7,3.9C13.6,728.9,14.1,727.5,12.5,726.5z"/>
	<path class="st1" d="M56.4,729.2c-2.3-0.3-5.2-2.9-6.1,1.8c-0.1,0.4-0.9,1-1.5,1.1c-10.9,2.1-21.4,0.3-31.1-4.5
		c-2.6-1.3-4.8-3.4-8-3.4c0-1.3,0-2.5-0.1-3.8c7.3-0.1,14.7-0.2,22-0.3c6.6,0,13.3,0.1,19.9,0.1c1.6,0.1,3.3,0.1,4.9,0.2
		C57.2,723.3,57.4,726.2,56.4,729.2z"/>
	<path class="st2" d="M56.7,109.8c0,11.3,0,51.2,0,62.4c0.1,16,0.1,32,0.2,48.1c-0.1,23.6-0.2,47.1-0.2,70.7c0,4.5,0.2,8.9,0.4,13.4
		c0,46.5-0.1,93.1-0.1,139.6c-0.6,29.4-0.2,58.7-0.1,88.1c-0.1,6-0.1,182.1-0.2,188.1c-1,1.3-4.5-0.2-6.1,0
		c-1.2-1.1,0.1-11.4-0.4-12.9c3-0.4,2.4-21.7,2.4-23.6c0-9.8-0.2-159.5-1.7-169.3c-1.2-8.1,0.5-16.5,1.3-24.7
		c1-10.3,1.4-20.9-0.5-31.3c-0.3-1.9,0.1-3.9,0.4-5.9c0.8-6,2.1-12.3,1-18c-0.7-4-1.1-7.8-0.3-11.5s0.8-7.2,0.8-10.9
		c0-16.2,0-32.3,0-48.5c0-2.1,0.5-4.3-1.1-6.3c0,15.2,0,30.5,0,45.7c-0.9-1.5-0.9-3-0.9-4.4c0.5-18.6-1-37.3,0.9-55.9
		c0.8-8-0.6-15.9-0.9-23.9c-0.1-3.1,0.1-5.9-4.2-6.5c2.6-3.3,5-6.1,4.1-10.3c1.4,0.7,1.8,3.4,4.1,1c-4.3-3-2.3-8.3-4.7-12.2
		c-0.9-1.4-1-3.5,0.1-4.8c1.8-2.1,1.4-4.3,1.4-6.6c0.1-8.7-1-17.3-1.7-26c-1.1-14,2.9-28,1.8-42.2c-0.3-3.2-0.8-6.6,1.6-9.6
		c0.8-1.1,0.6-2.8-0.7-3.6c-2.3-1.5-2-3.6-2-5.8c0-5.2,0.6-10.4-0.2-15.5c-0.9-5.7,0.9-11.9-3.4-16.9c1.8-2.8,2.8-6.2,6-8.4
		c-4-3.2-4.1-7.3-3.2-11.2c1.2-5.8,0.6-11.6,0.8-17.4c0.1-4.3-0.7-8.8,0.3-13c1.8-8.1,0.3-15.9-0.5-23.8
		c-1.1-11.6-0.9-23.2-0.1-34.8c0.6-8.1,1.4-16.2-0.7-24.3c1,0,2,0,3,0c1.4,1.3,2.2,2.7,2,4.8C54.9,44.5,56.6,97.2,56.7,109.8"/>
	<path class="st1" d="M9.8,26.9c-1.2-4.9,1.4-9.6,1-14.4c3.7-2.1,5.4-6.1,9.1-8.4C28-0.8,36.3-1.4,44.5,3
		C52.6,7.3,56.6,14.4,57,23.6c0.1,2.7-0.8,3.6-3.3,3.5c-1,0-2,0-3,0c-3.7,0-7.3,0.1-11,0.1c-3,0-6.1-0.1-9.1-0.1
		C23.6,27,16.7,26.9,9.8,26.9z"/>
	<path class="st3" d="M9.8,26.9c6.9,0,13.8,0.1,20.7,0.1c0.4,1.3,2.4,0.8,2.4,3.2c-0.4,10.6-0.3,21.3-0.2,31.9c0,2.7-2.5,5.4,0,8
		c0,0.7,0,1.3,0,2c0,33.3,0,66.7,0,100c0,1.3,0,2.7-0.1,4c0,3.2,0,6.4,0,9.6c0,46.1,0,92.2,0.1,138.4c0,1.3-0.1,2.7-0.1,4
		c0,10.9,0,21.8,0.1,32.6c0,2.6,0.1,5.1-3.6,6.9c2,0.3,2.8,0.4,3.6,0.5c0,1.3,0.1,2.7,0.1,4c0,56.5,0,253.1,0,309.6
		c-4.4,0.2-8.6,1.1-12.7,2.6c-3.1-3,1.6-2.5,1.8-4c-1.1-1.1-2-142.4-2-143.9c0.1-5.8-0.4-11.5,0.3-17.3c0.4-3.6,1.2-8-0.4-10.8
		c-2.2-3.8-5.4-7.5-10-9.2c0-1.3,0-2.7,0-4c4.8-2.6,9.8-5.8,9.6-11.5c-0.2-4.5,0.2-8.8,0.3-13.2c0.1-33.5,0-67,0.2-100.4
		c0-3.3-3.1-5.9-1.8-9.1c1.3-3.1,0.1-5.1-2.1-7c-1.1-1-2.3-2-2.2-3.7c3,0.3,4.1,3.1,6.2,4.6c2.6,1.9,4.5,5,9,5.1
		c-5.8-7.5-0.3-15.3-2.4-23.2c-5.1,4.1-10.9,6.7-12.8,13.5c-1.3,0-2.6,0-3.8,0c0-1.3,0-2.7,0-4c0.8-0.1,2,0.1,2.4-0.4
		c4.4-5,12.7-7.8,9.5-17.1c-0.3-0.9,0-2,0-3c0-21.6,0-43.3,0-64.9c0-15.5,0-31,0-46.4c0-8-5.3-14.6-11.8-15.2c0-1.7,0-3.4,0-5
		c4-0.5,11.8-7.1,12.6-10.8c0.1-0.7-0.1-1.8-0.5-2.3c-1.6-1.9-1.2-4.1-1.2-6.2c0-33.4,0-66.8,0-100.2c0-2-0.1-3.9,0.6-5.9
		c1.8-5,1.6-9.8-3.4-13c-2.9-1.9-3.4-6.8-8.1-6.5C10,42.6,9.8,36,9.7,29.3C9.5,28.4,9.7,27.6,9.8,26.9z M21,505c0-5.5,0-10.5,0-16.2
		c-3.6,2.8-6.1,5.3-8.6,8.5C15.2,500,17.2,503.1,21,505z"/>
	<path class="st4" d="M9.8,199.2c6.6,0.6,11.8,7.2,11.8,15.2c0.1,15.5,0,31,0,46.4c0,21.6,0,43.3,0,64.9c0,1-0.3,2.1,0,3
		c3.2,9.2-5.1,12.1-9.5,17.1c-0.4,0.5-1.6,0.3-2.4,0.4c-0.1-10-0.2-20-0.3-30c0-2.7,0-5.4,0-8c0-33.7,0.1-67.3,0.1-101
		C9.6,204.5,9.7,201.8,9.8,199.2z"/>
	<path class="st4" d="M9.4,188.1c0.1-29.6,0.1-59.1,0.2-88.7c0-16.8,0.1-33.5,0.2-50.3c4.6-0.3,5.1,4.6,8.1,6.5c5,3.2,5.1,8,3.4,13
		c-0.7,2-0.6,3.9-0.6,5.9c0,33.4,0,66.8,0,100.2c0,2.1-0.4,4.3,1.2,6.2c0.5,0.5,0.7,1.6,0.5,2.3c-0.8,3.7-8.6,10.3-12.6,10.8
		C9.7,192.1,9.5,190.1,9.4,188.1z"/>
	<path class="st4" d="M13.6,350.1c0,1.7,1.1,2.7,2.2,3.7c2.2,1.9,3.4,3.8,2.1,7s1.8,5.8,1.8,9.1c-0.2,33.5,0,67-0.2,100.4
		c0,4.4-0.5,8.8-0.3,13.2c0.3,5.7-4.8,9-9.6,11.5c0-48.3,0-96.6,0.1-145C11.1,350.2,12.3,350.1,13.6,350.1L13.6,350.1z"/>
	<path class="st3" d="M31.7,720c-7.3,0.1-14.7,0.2-22,0.3c0-0.7,0-1.5,0-2.2c5.9,0,11.8,0,17.7,0c-2-1.5-4.3-0.3-6.7-2.1
		c0-9.8-0.1-19.9,0-30c0.1-6.3-1.1-12.7,1-18.8c1.6-4.7,0.5-8.4-3.5-11.2c-3-2.1-3.6-7-8.4-6.9c0-1.3,0-2.7,0-4
		c3,0.3,4.3-1.9,5.8-3.9c2.7-3.5,5.4-7.2,10.1-8.2c2.3,0.3,4.6,0.7,6.8,1c0,28,0,56.1,0,84.1C31.9,718.5,31.7,719.2,31.7,720z"/>
	<path class="st4" d="M9.8,649.2c4.7-0.1,5.4,4.8,8.4,6.9c4,2.8,5,6.5,3.5,11.2c-2,6.1-0.9,12.5-1,18.8c-0.2,10.1,0,20.2,0,30
		c2.4,1.9,4.7,0.6,6.7,2.1c-5.9,0-11.8,0-17.7,0C9.7,695.1,9.7,672.2,9.8,649.2z"/>
	<path class="st4" d="M19.9,684.3c-3.9,3.5-7.3,7.4-10.2,11.8c0-19-0.1-178-0.1-197c4.6,1.7,7.8,5.4,10,9.2
		c1.6,2.8,0.8,7.2,0.4,10.8c-0.7,5.8-0.2,11.6-0.3,17.3c0,1.5,0.9,142.8,2,143.9C21.5,681.9,16.8,681.4,19.9,684.3z"/>
	<path class="st5" d="M32.6,634c2.8,0.8,5.3-1.8,8.1-0.8c0.8,0.5,1.6,1.1,2.9,1.9c-2.5,1.5-1.9,3.9-1.9,6.2
		c-0.1,10.8,0.4,21.6-0.7,32.4c-3.1-0.6-3.8-4.1-7.3-4.4c2,5.3,7.3,6.8,10,10.7c0,0.7,0,1.3,0,2c-2.4,1.1-2,3.2-2,5.2
		c0,8.1,0.3,16.3-0.1,24.4c-0.2,4.5,1.2,6.1,5.6,5.5c0.8-0.1,1.7,0,2.5,0c0,0.3,0,0.7,0,1c-5.7,0-11.3,0-17,0
		C32.6,690.1,32.6,662.1,32.6,634z"/>
	<path class="st6" d="M43.6,680.2c-2.7-3.9-7.9-5.4-10-10.7c3.5,0.2,4.2,3.8,7.3,4.4c1.1-10.8,0.5-21.6,0.7-32.4
		c0-2.3-0.6-4.7,1.9-6.2c-1.3-0.9-2.1-1.4-2.9-1.9c1.8-1.4,3.5-3,5.9-3.3c2.5,4,4.5,8.1,3.9,13c-1.4,11.4-1.3,22.8,0,34.2
		c0.2,1.8,0.7,3.6-0.7,5.1C47,683.4,46.8,677.7,43.6,680.2z"/>
	<path class="st6" d="M49.6,717.2c-0.8,0-1.7-0.1-2.5,0c-4.4,0.7-5.8-1-5.6-5.5c0.4-8.1,0.1-16.3,0.1-24.4c0-2-0.3-4.1,2-5.2
		c10.6,1.5,6,43.3,6.8,33.2"/>
	<path class="st6" d="M50.6,717.9"/>
	<path class="st6" d="M32.6,718.1c5.7,0,11.3,0,17,0c1.3,0,2,0.7,2,2c-6.6,0-13.3-0.1-19.9-0.1C31.7,719.2,31.9,718.5,32.6,718.1z"
		/>
	<path class="st1" d="M12.5,726.5c1.6,1.1,1.1,2.4,0.7,3.9C12.1,729.2,11.1,728.1,12.5,726.5z"/>
	<path class="st6" d="M50.2,719.2c-1.9-1.3-3.9-33.5-5.8-34.8c0.3-1.4,2.5-0.9,2.8-2.9c-3.6-0.4-3.7-143.1-3.6-145.9
		c0.1-3.2,0.1-6.3,0-9.5c-0.5-17.1,1.1-34.3-0.8-51.4c-0.2-1.8,2-4-0.7-5.3c-2.4-1.2-3.3,1.8-5.1,2.2c-0.2,0.1-0.6-0.2-1.3-0.6
		c4.2-4.2,3.4-9.2,3.3-14.6c-0.5-25-0.6-50,0-75c0.1-5.6-2-7.7-6.2-9.4c0-1.3-0.1-2.7-0.1-4c2.5,0.9,3.4,4.1,6.3,4.6
		c2.1-4.9,0.1-9.6-0.1-14.3c-0.4-8.6-0.1-17.2-0.1-25.8c0-5.6-0.4-5.9-6.1-4.5c0-1.3,0.1-2.7,0.1-4c1.4,0.1,2.5-0.4,3.7-1.2
		c4.2-2.6,2.2-6.4,2.3-9.8c0.1-43,0-86,0-129c0-1.7,0.2-3.4-0.2-5c-0.8-2.9-2.4-4.9-5.8-3.1c0-1.3,0-2.7,0.1-4c5.2-0.7,6-4.4,6-8.7
		c0-23.5,0-47,0-70.5c0-2.7,0.1-5.2,0.7-7.9c1.2-5.2-1.8-10.7-6.7-13c0-0.7,0-1.3,0-2c0.9-0.3,1-1.8,2.3-1.5
		c1.5,0.9,1.7,3.4,4.2,2.9C38.5,61.4,39.1,51.7,39,42c0-5.1-0.7-10.2,0.9-15.2c3.7,0,7.3-0.1,11-0.1c2.1,8,1.2,16.2,0.7,24.3
		c-0.8,11.6-1,23.2,0.1,34.8c0.7,7.9,2.2,15.7,0.5,23.8c-0.9,4.1-0.1,8.6-0.3,13c-0.2,5.8,0.4,11.6-0.8,17.4
		c-0.8,3.8-0.8,8,3.2,11.2c-3.2,2.2-4.2,5.6-6,8.4c4.3,5,2.6,11.3,3.4,16.9c0.8,5,0.2,10.3,0.2,15.5c0,2.1-0.3,4.3,2,5.8
		c1.2,0.8,1.5,2.5,0.7,3.6c-2.3,3-1.8,6.4-1.6,9.6c1.2,14.2-2.8,28.2-1.8,42.2c0.7,8.7,1.8,17.3,1.7,26c0,2.3,0.4,4.5-1.4,6.6
		c-1.1,1.3-1,3.4-0.1,4.8c2.4,3.9,0.4,9.3,4.7,12.2c-2.3,2.4-2.7-0.3-4.1-1c1,4.3-1.5,7-4.1,10.3c4.3,0.6,4.1,3.5,4.2,6.5
		c0.2,8,1.7,15.9,0.9,23.9c-1.9,18.6-0.4,37.2-0.9,55.9c0,1.5,0,2.9,0.9,4.4c0-15.2,0-30.5,0-45.7c1.6,2,1.1,4.2,1.1,6.3
		c0.1,16.2,0,32.3,0,48.5c0,3.6,0,7.2-0.8,10.9c-0.8,3.8-0.4,7.5,0.3,11.5c1.1,5.8-0.2,12.1-1,18c-0.3,2-0.7,4-0.4,5.9
		c1.9,10.4,1.5,21,0.5,31.3c-0.8,8.3-2.5,16.6-1.3,24.7c1.4,9.8,1.7,159.5,1.7,169.3C52.6,685.5,55.6,720.1,50.2,719.2z"/>
	<path class="st5" d="M39.6,27.1c-1.7,5-1,10.2-0.9,15.2c0.1,9.7-0.5,19.4,0.4,29.2c-2.4,0.5-2.7-2-4.2-2.9
		c-1.3-0.3-1.4,1.2-2.3,1.5c-2.5-2.7,0.1-5.4,0-8c-0.1-10.6-0.2-21.3,0.2-31.9c0.1-2.3-2-1.8-2.4-3.2C33.5,27.1,36.6,27.1,39.6,27.1
		z"/>
	<path class="st5" d="M32.7,372.1c4.2,1.7,6.4,3.8,6.2,9.4c-0.6,25-0.6,50,0,75c0.1,5.4,0.9,10.4-3.3,14.6c0.8,0.3,1.1,0.6,1.3,0.6
		c1.9-0.4,2.7-3.4,5.1-2.2c2.7,1.3,0.5,3.5,0.7,5.3c1.9,17.1,0.3,34.3,0.8,51.4c0.1,3.2,0.1,6.3,0,9.5c-0.1,2.8,0,145.4,3.6,145.9
		c-0.2,2-2.4,1.4-2.8,2.9c-3.6-2.1-7.7-2.2-11.7-2.7C32.7,625.2,32.7,428.7,32.7,372.1z"/>
	<path class="st5" d="M32.6,176.1c3.4-1.8,5,0.2,5.8,3.1c0.4,1.6,0.2,3.3,0.2,5c0,43,0,86,0,129c0,3.4,1.9,7.3-2.3,9.8
		c-1.2,0.7-2.3,1.2-3.7,1.2c0-46.1,0-92.2-0.1-138.4C32.6,182.6,32.6,179.4,32.6,176.1z"/>
	<path class="st5" d="M32.7,72.1c4.9,2.3,7.9,7.7,6.7,13c-0.6,2.7-0.7,5.3-0.7,7.9c0,23.5,0,47,0,70.5c0,4.3-0.8,8-6,8.7
		C32.7,138.8,32.7,105.5,32.7,72.1z"/>
	<path class="st5" d="M32.6,328.1c5.6-1.4,6-1.1,6.1,4.5c0,8.6-0.3,17.2,0.1,25.8c0.2,4.7,2.3,9.4,0.1,14.3
		c-2.9-0.6-3.8-3.7-6.3-4.6c-0.8-0.1-1.6-0.2-3.6-0.5c3.7-1.8,3.7-4.2,3.6-6.9C32.5,349.9,32.6,339,32.6,328.1z"/>
	<path class="st4" d="M13.6,350.1c1.8-6.7,7.7-9.4,12.8-13.5c2.1,8-3.4,15.8,2.4,23.2c-4.4-0.2-6.4-3.3-9-5.1
		C17.7,353.3,16.6,350.4,13.6,350.1L13.6,350.1z"/>
	<path class="st4" d="M21,505c-3.8-1.9-5.8-5.1-8.6-7.7c2.5-3.2,5-5.7,8.6-8.5C21,494.5,21,499.6,21,505z"/>
</g>
<g id="thumb">
	<path class="st7" d="M16.7,315.2c5.5-2,11.3-3.2,17.1-3.5c5.4,0.7,10.9,0.8,15.8,3.6l7.8,5.1c0.7,2,1.9,3.8,3.5,5.3
		c1.6,3.2,3.2,6.5,4.7,9.9c0.1,3.1,0.1,6.1,0.3,9.2l-12.1,5.4c-2-1.5-3.8-3-6.6-2.8c-9.6,0.1-19.3,0.1-28.9,0
		c-3.5,0-5.9,1.2-5.9,4.7c0,3.5,2.4,4.9,5.9,4.9c5.5,0,11.2,0.1,16.7,0.3l-10.8,10.3c-4.6,1.4-11.9-2-12,6.9
		c-1.4,7-7.7,10.5-10.9,16.2c0.3-19.8-1.9-39.7,1.5-59.4C6.8,325.2,11.4,319.8,16.7,315.2z"/>
	<path class="st1" d="M24.4,367.3L35.2,357c3.9-0.1,8-0.3,11.9-0.3c4.6,0,7-2,6.9-6.8l12.1-5.4c0.3,6.3,0.5,12.6,0.7,18.9
		c0,6.8,0,13.5,0,20.3c-0.3,2.7-0.5,5.4-0.8,8.1c-3.8,0-1.6-4-4.2-5.8c1.9,7.6-2.7,11.5-7.2,15.5c-1.5,1.4-4.7,0-5,2.3
		c-0.5,5.3-5.7,6.5-7.3,10.3c-13.2-6.8-27.4-1.5-40.5-4.6l-0.7,0.1l-0.4-3c0.1-5.4,0.4-10.9,0.5-16.3c3.2-5.7,9.6-9.3,10.9-16.2
		c1.8,3.1,4.2,4,7.7,4c8.8-0.3,17.4-0.1,26.2,0c3.9,0,7.6-0.7,7.4-5.5c-0.1-4.3-3.5-5.1-7.2-5.1C39.1,367.6,31.8,367.4,24.4,367.3z
		 M32.5,388.9L32.5,388.9H17.1c-3,0-4.9,1.4-4.6,4.5c0.1,2.6,1.2,5,4.3,5c10.8,0.1,21.5,0.1,32.3,0c3.1,0,4.9-2.3,4.7-5.4
		c-0.1-3.1-2.4-3.9-5.1-4C43.3,388.9,37.9,389,32.5,388.9L32.5,388.9z"/>
	<path class="st8" d="M2,409.7c13.2,3.1,27.3-2.2,40.5,4.6c1.6-3.8,6.8-5.1,7.3-10.3c0.3-2.4,3.5-0.9,5-2.3c4.5-4.1,9.2-8,7.2-15.5
		c2.6,1.8,0.4,5.8,4.2,5.8l0.5,14.8c-0.1,0.8-0.3,1.8-0.3,2.6c-1.9,8.5-6.8,16.1-13.8,21.5c-3.2,0.4-5.5,2.6-8,4.5
		c-3.8-1.4-7.2,2.2-10.9,1.1l-9.2-1.4C15.1,432,9,424.8,3,417.4c0-0.4-0.1-0.7-0.4-0.9l-0.1-1.3C2.4,413.1,2.2,411.4,2,409.7z"/>
	<path class="st9" d="M0.9,406.8l0.4,3C-1,409.1,0.3,407.9,0.9,406.8z"/>
	<path class="st10" d="M2.5,414.8l0.1,1.3c-0.3-0.3-0.4-0.7-0.5-0.9C2.2,415.1,2.4,414.9,2.5,414.8z"/>
	<path class="st11" d="M66.4,409.3c0.1-0.8,0.3-1.8,0.3-2.6C67.6,407.7,67.6,408.6,66.4,409.3z"/>
	<path class="st12" d="M24.4,367.3c7.4,0.1,14.8,0.3,22.1,0.3c3.8,0,7.2,0.7,7.2,5.1c0.1,4.9-3.5,5.5-7.4,5.5
		c-8.8,0-17.4-0.1-26.2,0c-3.5,0.1-6.1-0.9-7.7-4C12.5,365.3,19.8,368.6,24.4,367.3z"/>
	<path class="st12" d="M53.9,350.1c0.1,4.7-2.3,6.8-6.9,6.8c-3.9,0-8,0.1-11.9,0.3c-5.5-0.1-11.2-0.3-16.7-0.3
		c-3.4,0-5.9-1.2-5.9-4.9c0-3.6,2.4-4.9,5.9-4.7c9.6,0.1,19.3,0.1,28.9,0C50.2,347.2,51.9,348.7,53.9,350.1z"/>
	<path class="st12" d="M32.5,389c5.4,0,10.8,0,16.2,0c2.7,0,5.1,0.8,5.1,4s-1.8,5.4-4.7,5.4c-10.8,0.3-21.5,0.1-32.3,0
		c-3.1,0-4.2-2.4-4.3-5c-0.1-3.1,1.6-4.5,4.6-4.5H32.5L32.5,389z"/>
</g>
</svg>
