<svg xmlns="http://www.w3.org/2000/svg" width="7494.436" height="728.625" viewBox="0 0 7494.436 728.625" preserveAspectRatio="none">
  <defs>
    <style>
      .cls-1 {
        fill: #100606;
        fill-rule: evenodd;
      }
    </style>
  </defs>
  <path id="CALENDARIO_FRUTAS_y_VERDURAS_en_TEMPORADA_copia" data-name="CALENDARIO FRUTAS y VERDURAS en TEMPORADA copia" class="cls-1" d="M2693.27,217.92q-34.605-32.04-105.28-32.044-62.445,0-97.78,35.157-39.18,39-39.18,115.905,0,158.753,122.31,158.753,22.71,0,52.74-5.31,37.53-6.592,55.84-39.368,13.92-24.9,13.92-57.312a129.949,129.949,0,0,0-1.1-15.381c0-.732-0.73-0.609-2.2.367q-16.665,29.662-25.08,38.452-17.22,18.127-47.61,23.437a101.171,101.171,0,0,1-17.03,1.465q-22.89,0-36.99-23.437-17.58-28.93-30.39-104.92a192.82,192.82,0,0,1-3.11-33.691q0-32.59,13.73-52.552,15.75-23.251,46.32-23.254,21.615,0,41.75,11.353,17.94,10.071,17.95,17.211c0,0.979-.68,1.832-2.02,2.564q-14.46,1.648-29.11,3.113-26.01,5.493-37.17,25.818-6.42,11.535-6.41,19.592,0,15.381,22.52,25.635,23.445,10.621,61.16,10.62,32.775,0,45.77-9.339t13.01-32.226q0-36.071-26.56-60.608h0Zm353.95,219.36q-16.845-5.308-20.33-14.831-24.54-70.861-39.36-113.892-32.415-88.989-59.51-133.118a511.716,511.716,0,0,1-51.82,14.649q-23.265,4.944-50.54,8.24-1.83,48.888-25.27,124.878-22.155,72.509-49.8,110.595-14.475-6.591-21.06-9.338l-9.7,13.367q-7.335,10.255-12.46,16.845,37.545,6.777,61.53,12.818,36.06,8.973,77.63,22.888a298.4,298.4,0,0,1,3.48-43.213q-45.045-2.2-55.84-4.761,10.425-17.392,19.41-42.114,7.86-21.6,13.91-43.03,63.9,7.142,94.12,10.071,5.67,19.046,5.67,52.917a432.6,432.6,0,0,1-4.57,62.256q48.885-8.239,90.08-8.239,11.91,0,41.94,1.464,12.435-21.788,18.31-32.592-12.825-2.928-25.82-5.86h0ZM2874.37,322.839q-40.845,0-40.84-23.8,0-17.943,20.88-31.678a79.277,79.277,0,0,1,44.68-13.183q34.05,0,34.05,25.085,0,43.581-58.77,43.579h0Zm440.91-2.746q-13.905,0-35.52,6.775-27.285,8.424-44.13,22.522-17.4,14.282-17.39,29.3,0,9.157,7.14,17.211,16.11,18.312,43.03,18.311,29.475,0,57.49-19.409a2.941,2.941,0,0,1,1.84-.733q4.02,0,4.02,8.24,0,15.75-17.03,28.381-23.25,17.4-69.21,17.4-63.36,0-63.35-82.946,0-34.608,13.73-88.257,12.81-50.718,28.38-82.4Q3062.955,179.652,3059.49,178a40.007,40.007,0,0,0-.74,7.873q0,16.3,4.95,17.579,12.63,2.38,18.67,3.112,16.665,3.115,16.67,18.677,0,8.975-.46,25.91t-0.46,25.177q0,110.781,25.27,173.95a87.808,87.808,0,0,0-18.13-2.2q-15.555,0-25.45,6.592l8.24,46.143q16.29-22.158,96.86-22.156,60.975,0,128.54,10.254,3.48,0.549,4.95-1.831,5.67-9.339,11.53-18.494A178.536,178.536,0,0,0,3346.6,431.6a176.615,176.615,0,0,0,8.42-54.016q0-57.493-39.74-57.495h0Zm326.3,39.734a124.21,124.21,0,0,0-17.58,1.465q-33.87,5.127-52.55,17.028-17.58,11.172-17.58,25.452a24.933,24.933,0,0,0,1.83,9.338q11.175,27.466,46.88,27.466,3.84,0,9.34-.458t8.78-.457q4.035,0,4.03,2.014,0,4.029-11.9,9.338a70.213,70.213,0,0,1-28.93,6.043q-48.705,0-69.4-20.691-23.8-23.62-27.28-86.975,17.025,0.549,34.24,1.281,37.35,1.469,52.74,3.662a2.719,2.719,0,0,0,2.19-.366q0.735-.913,0-4.211-7.5-31.675-7.5-45.044,0-3.846.54-11.9,0.555-8.055.55-12.085,0-13.184-3.66-20.691-11.355.369-29.48,8.057-7.5,3.3-15.93,7.873,4.95,4.944,9.89,9.888a23.139,23.139,0,0,1,5.86,15.2,32.7,32.7,0,0,1-1.47,9.7q-0.915,2.746-26.18,5.677-10.44,1.1-24.9,2.2,0-4.76-.55-16.3t-0.55-18.128q0-36.255,10.8-61.523,33.135-1.464,36.81-1.465,47.055,0,57.31,16.113,6.96,10.621,8.42,36.621c0.24,1.588,1.59,2.381,4.03,2.381a108.01,108.01,0,0,0,12.08-.916q9.7-.914,12.27-1.1,5.13-18.307,10.26-36.8a250.994,250.994,0,0,1,17.21-40.832q-64.815,2.746-110.23,2.746-39.915,0-101.08-6.408-60.24-6.224-76.35-11.719-1.1,2.016-1.1,10.254,0,13.368,4.03,15.564,14.1,3.665,24.72,5.31,10.44,4.029,10.62,16.662,1.275,140.076,26.18,212.586-15.93-7.506-28.93-7.508-8.61,0-14.46,2.93l-1.29,46.875Q3396.955,475,3420.02,475q11.355,0,33.51,2.38,25.995,2.747,36.25,3.3,59.5,2.927,67.57,2.93,52.185,0,80.93-15.015,38.085-19.954,43.4-68.664a22.627,22.627,0,0,0,.55-5.86q0-34.237-40.65-34.24h0Zm318.05,124.511q-2.565-7.325-2.56-20.141,0-29.113,10.07-86.7t10.07-87.066q0-46.872-11.17-74.524-12.45-30.762-36.44-30.762-13.92,0-37.35,14.832a194.239,194.239,0,0,0-49.44,45.227,208.317,208.317,0,0,0-37.72,76.355,121.16,121.16,0,0,1-.73-14.649q0-66.1,30.39-107.849-131.835-10.437-149.23-13.55a34.689,34.689,0,0,0-1.1,7.874q0,16.3,4.4,17.212,14.46,2.746,20.69,3.845,14.28,3.3,14.28,15.381,0,6.775-.73,20.874t-0.73,21.423q0,104.19,23.07,166.077a63.335,63.335,0,0,0-25.45-5.493q-10.44,0-17.21,3.662l1.83,45.044q11.16-11.716,43.21-11.719a208.633,208.633,0,0,1,81.3,16.479q-18.675-82.212-18.68-109.863a150.531,150.531,0,0,1,27.83-60.425q18.855-24.718,32.6-24.719,11.34,0,18.76,20.508t7.42,50.171q0,71.779-23.99,123.962,6.045,2.013,52.37,14.282,49.8,13.185,57.86,14.649,5.31-14.283,6.78-18.677-23.265-8.609-30.4-11.719h0Zm345.89-144.287q-12.63-59.507-37.9-89.355-34.065-40.465-98.33-40.467-7.335,0-22.71.916t-23.8.916q-78.555,0-119.57-35.157-1.47,2.931-1.46,23.621t3.66,22.156q20.865,5.493,21.97,6.042,10.26,5.128,10.26,18.677,0,108.035,31.12,189.7a40.755,40.755,0,0,0-19.04-4.761q-14.655,0-28.2,8.973l3.85,46.875q19.4-14.283,60.61-14.283,14.82,0,49.34,2.381t53.56,2.38q121.4,0,121.4-97.412,0-18.127-4.76-41.2h0Zm-66.47,50.354q-22.515,13.368-62.25,13.367-37.185,0-52.92-8.606-11.91-35.337-11.9-81.482a190.871,190.871,0,0,1,4.02-40.832,35.86,35.86,0,0,1,6.41-.367,242.526,242.526,0,0,1,57.32,6.409q38.805,9.339,56.57,21.057,27.1,17.578,27.1,48.706,0,27.467-24.35,41.748h0Zm400.82,46.875q-16.845-5.308-20.33-14.831-24.525-70.861-39.36-113.892-32.415-88.989-59.51-133.118a511.716,511.716,0,0,1-51.82,14.649q-23.265,4.944-50.54,8.24-1.83,48.888-25.27,124.878-22.155,72.509-49.8,110.595-14.475-6.591-21.06-9.338l-9.7,13.367q-7.32,10.255-12.45,16.845,37.53,6.777,61.52,12.818,36.075,8.973,77.64,22.888a298.3,298.3,0,0,1,3.47-43.213q-45.03-2.2-55.84-4.761,10.44-17.392,19.41-42.114,7.86-21.6,13.91-43.03,63.9,7.142,94.12,10.071,5.67,19.046,5.68,52.917a432.627,432.627,0,0,1-4.58,62.256q48.885-8.239,90.09-8.239,11.9,0,41.93,1.464,12.45-21.788,18.31-32.592-12.825-2.928-25.82-5.86h0ZM4467.02,322.839q-40.845,0-40.83-23.8,0-17.943,20.87-31.678a79.277,79.277,0,0,1,44.68-13.183q34.05,0,34.05,25.085,0,43.581-58.77,43.579h0Zm570.92,46.875q-9.885-11.351-26.55-11.352-11.355,0-25.09,5.31-28.38,10.806-45.59,26.916-15.57,14.467-15.56,26.734a11.924,11.924,0,0,0,.91,4.944q6.4,15.93,30.95,15.93,9.885,0,25.45-3.571t18.13-3.57q3.84,0,3.84,2.38,0,6.777-25.45,16.663-26.19,10.257-47.06,10.254-26.19,0-26.18-22.522,0-8.605,3.02-23.713t3.02-21.331q0-15.2-13.55-25.269-16.665-12.086-57.68-20.691a351.931,351.931,0,0,0,38.09,2.2q54.75,0,92.28-20.69,42.855-23.437,42.85-63.721,0-26.733-17.39-43.03-20.52-19.226-60.98-19.226-8.415,0-45.87,2.472-37.44,2.472-53.92,2.472-38.28,0-67.2-8.606-34.425-10.252-66.65-35.34l-11.72,43.213Q4701.395,217,4720.8,217a62.59,62.59,0,0,0,10.99-.732q-21.615,52.734-31.5,114.441-5.49,35.34-10.25,104.187-0.735,12.819-11.35,16.113-10.62,1.469-21.24,2.93-6.4,1.1-6.41,21.423,0.18,1.279.36,2.2,2.2-.733,62.08-1.281l86.42-.55q-19.41-65.549-19.41-118.835,0-21.054,1.47-25.452,25.08,11.906,34.06,29.3,6.585,12.27,8.05,37.537,2.025,35.706,4.4,48.889,7.86,42.112,73.42,42.114,21.975,0,54.02-5.676,47.79-8.424,72.69-43.762,17.76-25.269,17.76-48.889,0-11.716-8.42-21.241h0Zm-115.17-63.537q-18.5,4.944-45.6,4.944-27.465,0-62.98-10.254-44.13-12.815-44.13-30.579,0-10.253,21.79-17.3t51.27-7.05a167.643,167.643,0,0,1,68.2,14.374q32.685,14.376,32.69,29.754,0,10.257-21.24,16.114h0ZM5246.31,437.1q-0.54-5.308-2.19-5.31-1.29,0-9.98,2.838t-14.01,2.838q-7.515,0-11.72-4.577-14.655-16.112-14.65-79.468,0-8.97.74-20.874,4.2-65.548,8.6-83.5,8.055-31.491,32.41-41.382,3.3-1.464,3.3-10.986,0-10.437-1.1-9.339-29.67,7.875-92.84,14.649-55.11,6.042-79.65,6.042-6.765,0-6.77,2.564,0,5.493,7.6,16.662t10.71,11.17c0.73,0,3.41-.761,8.06-2.289a37.9,37.9,0,0,1,11.16-2.289q5.865,0,7.51,3.845,7.515,13.918,7.51,50.537,0,41.748-8.24,97.229-7.32,51.087-12.09,56.214-6.405,6.96-23.25,10.071-15.57,2.931-15.75,3.3-5.31,26.367-5.31,33.142,82.95-13.554,115.91-13.55,20.325,0,50.99,3.021t32.69,3.021c1.71,0,2.56-.8,2.56-2.38q0-16.479-2.2-41.2h0Zm164.98-237.671q-70.3,0-114.44,48.889-40.1,44.5-40.1,105.1,0,63.54,38.82,108.582,37.53,43.395,87.16,43.4,54.015,0,95.76-45.594,30.585-33.509,50.91-86.792,17.565-46.323,17.57-80.566,0-93.015-135.68-93.018h0Zm52.74,191.9a129.45,129.45,0,0,1-74.89,23.254,120.328,120.328,0,0,1-61.34-16.662q-33.15-19.407-33.15-48.89,0-25.268,35.71-46.325,34.05-20.14,69.95-20.142,39.72,0,67.93,17.578,28.92,17.578,28.93,43.213,0,25.453-33.14,47.974h0ZM464.625,603.408a2.232,2.232,0,0,0-2.49-1.172q-51.124,8.937-118.8,8.936-67.384,0-83.35-13.184l-2.636,36.621q6,3.225,15.234,3.223a56.819,56.819,0,0,0,18.9-3.516q-7.47,38.38-7.47,83.643,0,32.228,4.175,73.682t4.174,37.353q0,10.839-21.826,15.235-4.542,1.023-5.713,3t-1.172,7.251a64.92,64.92,0,0,0,1.465,11.719q63.426-14.062,121.729-25.488-15.09-30.322-31.2-91.553,24.753,3.516,28.271,4.541,7.032,1.9,8.35,13.623,1.609,13.918,3.076,15.821,1.609,2.344,7.764,2.343,4.394,0,15.307-1.977t14.722-1.978a210.805,210.805,0,0,1-3.369-36.767,136.886,136.886,0,0,1,.879-15.967q0.44-3.369-2.637-3.369-1.614,0-13.33.512t-17.578.513q-23.732,0-47.461-1.611a213.112,213.112,0,0,1-4.981-43.506q0-51.121,38.086-55.371a144.389,144.389,0,0,1,18.311-1.026q28.416,0,46,11.28,13.327,8.5,13.33,15.527,0,1.466-1.172,1.465a8.831,8.831,0,0,1-2.49-1.172q-16.26-9.96-38.379-9.961-17.286,0-30.176,8.789-13.33,9.084-13.33,21.826,0,16.995,26.514,28.858a114.32,114.32,0,0,0,47.314,10.4q17.871,0,25.781-9.082t7.911-29q0-39.55-17.725-70.459h0ZM790.553,750.771q-7.911-9.08-21.241-9.082-9.084,0-20.068,4.248-22.707,8.646-36.474,21.534-12.453,11.572-12.452,21.386a9.5,9.5,0,0,0,.733,3.955q5.125,12.745,24.756,12.745,7.909,0,20.361-2.857t14.5-2.856q3.077,0,3.076,1.9,0,5.421-20.361,13.33-20.95,8.205-37.647,8.2-20.949,0-20.947-18.017,0-6.884,2.417-18.97t2.417-17.065q0-12.158-10.84-20.215-13.33-9.669-46.142-16.553a281.507,281.507,0,0,0,30.468,1.758q43.8,0,73.828-16.553,34.278-18.749,34.278-50.977,0-21.385-13.916-34.423-16.407-15.381-48.78-15.381-6.738,0-36.694,1.977t-43.139,1.978q-30.618,0-53.76-6.885-27.541-8.2-53.321-28.271l-9.375,34.57q9.081,8.349,24.61,8.35a50.007,50.007,0,0,0,8.789-.586q-17.286,42.188-25.195,91.552-4.4,28.273-8.2,83.35-0.586,10.255-9.082,12.891l-16.992,2.343q-5.126.879-5.127,17.139,0.148,1.023.293,1.758,1.758-.588,49.658-1.026l69.141-.439q-15.528-52.439-15.527-95.068,0-16.844,1.172-20.362,20.067,9.524,27.246,23.438,5.272,9.814,6.445,30.029,1.61,28.564,3.516,39.111,6.3,33.692,58.74,33.692,17.578,0,43.213-4.541,38.232-6.739,58.154-35.01,14.207-20.216,14.209-39.111a25.039,25.039,0,0,0-6.738-16.993h0Zm-92.139-50.83q-14.8,3.955-36.475,3.955-21.972,0-50.39-8.2-35.3-10.251-35.3-24.463,0-8.2,17.432-13.842t41.015-5.64a134.148,134.148,0,0,1,54.566,11.5q26.147,11.5,26.147,23.8,0,8.2-16.992,12.89h0ZM976.148,596.816q-3.954-.879-3.955,2.051,0,0.439.147,4.1t0.146,6.152a439.567,439.567,0,0,1-7.763,81.3q-9.229,48.927-26.514,79.541-16.26,29-31.934,29-10.546,0-16.7-9.009t-6.152-23.071q0-26.511,17.138-66.358a355.163,355.163,0,0,1,41.456-72.216q-30.178.877-53.174,0.878-23.879,0-61.231-1.757a1.734,1.734,0,0,0-2.051,1.172q-2.784,8.056-10.839,24.023-0.439,1.175,1.465,1.172,29.148-2.781,59.472-3.369a235.05,235.05,0,0,0-41.894,49.658q-27.1,42.774-27.1,85.4,0,26.662,15.088,41.6Q835.961,841.3,859.693,841.3q20.655,0,43.36-11.426,29-14.646,50.83-44.092,0,14.942-8.643,60.059a1.706,1.706,0,0,0,1.319,2.2q1.9,0.439,4.98-1.611,18.162-12.014,44.971-21.24,29.58-10.253,51.71-10.254c0.88,0,2.22.05,4.03,0.146s3.15,0.147,4.03.147l-2.2-28.565a43.409,43.409,0,0,0-13.77-2.051,46.339,46.339,0,0,0-23.73,6.592,748.307,748.307,0,0,0,9.81-82.764q0.15-1.9,3.52-72.949c0.09-3.222,2.1-4.834,6-4.834a65.441,65.441,0,0,1,9.23,1.172,100.433,100.433,0,0,0,11.14,1.319,91.827,91.827,0,0,0,1.17-14.795q-53.175-13.916-81.3-21.534h0ZM1274.39,736.562a188.763,188.763,0,0,0-23.73-1.757q-22.71,0-35.96,6.445t-13.26,16.406q0,18.6,18.75,31.641,15.825,11.135,37.94,14.5c1.17,0,1.76.879,1.76,2.637q0,6.591-15.82,17.285Q1227.075,835,1212.87,835q-19.05,0-29.89-23.584-10.1-21.678-10.1-55.371,0-60.645,26.51-110.6,15.375,2.2,41.6,19.483,4.545,2.931,4.54,10.107,0,4.982-2.27,15.161t-2.27,13.111q0,5.421,7.91,8.056,16.71,3.812,27.25,5.42,3.51-36.327,18.89-96.826,0.735-3.077-1.75-3.076-125.55,0-241.56-9.815c-1.07.392-1.66,0.879-1.75,1.465q4.98,44.241,8.05,63.867c0.39,1.465,1.18,1.564,2.35.293a144.4,144.4,0,0,1,75-30.908q-12.015,15.237-23.59,41.895-16.545,38.671-16.55,73.681,0,43.8,24.17,68.994,26.655,27.831,78.96,27.832,38.67,0,69.58-15.82,35.295-18.018,47.75-51.416,4.83-12.744,4.83-20.361,0-23.875-46.14-30.03h0Zm308.94,68.262q-13.485-4.246-16.26-11.865-19.635-56.689-31.5-91.113-25.92-71.192-47.61-106.494a408.983,408.983,0,0,1-41.45,11.718q-18.6,3.955-40.43,6.592-1.47,39.111-20.21,99.9-17.73,58.008-39.85,88.477-11.565-5.274-16.84-7.471l-7.77,10.694q-5.85,8.205-9.96,13.476,30.03,5.421,49.22,10.254,28.86,7.179,62.11,18.311a239.544,239.544,0,0,1,2.78-34.571q-36.03-1.758-44.68-3.808a194.6,194.6,0,0,0,15.53-33.692q6.3-17.283,11.13-34.423,51.135,5.712,75.3,8.056,4.53,15.237,4.54,42.334a346.1,346.1,0,0,1-3.66,49.8q39.1-6.592,72.07-6.592,9.51,0,33.54,1.172,9.96-17.43,14.65-26.074-10.26-2.341-20.65-4.688h0Zm-138.29-91.553q-32.655,0-32.66-19.042,0-14.355,16.7-25.342a63.412,63.412,0,0,1,35.74-10.547q27.24,0,27.25,20.068,0,34.864-47.03,34.863h0ZM1819.02,714q-13.485-8.055-41.6-8.057-5.865,0-17.58.513t-13.92.513q-24.75,0-36.47-8.057-8.94-6.153-13.48-20.215-3.945-13.183-7.91-26.367a34.017,34.017,0,0,1-2.78-12.6q0-12.156,12.3-18.31,10.26-5.125,26.37-5.127a83.8,83.8,0,0,1,23.37,3q10.32,3,10.32,6.958,0,2.931-7.47,5.713-8.2,2.636-16.26,5.273-21.24,8.058-21.24,21.973,0,9.667,15.97,17.138,16.995,8.058,41.31,8.057,49.8,0,49.8-31.2,0-20.946-24.17-34.57-26.655-14.942-74.27-14.942-46.29,0-73.09,16.846-22.41,14.063-28.86,37.793-4.83,17.433-4.83,29.59,0,38.232,47.31,38.232,6.885,0,22.49-1.684t22.04-1.685q24.615,0,33.4,17.285,4.1,8.351,12.45,51.123a29.511,29.511,0,0,1,.59,5.42q0,16.116-20.51,24.609-16.56,6.888-40.43,6.885-30.315,0-30.32-7.178,0-2.34,8.2-5.126,21.24-7.471,30.03-13.184,18.465-11.865,18.46-29.15,0-11.427-13.92-18.311-14.355-7.176-39.11-7.178a184.5,184.5,0,0,0-23.44,1.465q-22.995,3.077-35.15,14.5-10.695,9.963-10.7,23.877,0,21.681,25.49,38.525,30.465,20.36,82.77,20.362,53.31,0,87.01-16.992,32.37-16.26,39.55-44.239,5.415-20.946,5.42-34.717,0-26.367-17.14-36.767h0ZM2130.45,666.4q-5.865,20.511-8.06,29.737,13.92,0.735,44.68.586,0,5.129-12.45,32.373-12.75,27.833-20.81,39.844-16.845-8.495-41.01-31.788-28.56-27.685-28.57-43.5,17.3-2.49,24.61-4.395-7.755-13.184-11.42-19.775-38.82,20.51-111.62,32.373V710.2q0,3.076-.15,12.891t-0.15,15.967q0,2.492,2.35,1.172,27.54-14.795,33.1-14.8,16.26,8.5,66.95,47.754,49.5,38.232,49.95,41.748,0,9.814-6.89,24.023-9.525,19.92-26.66,29-10.245,5.418-34.57,5.42-32.37,0-32.37-6.3,0-2.784,10.69-4.98,19.635-3.812,22.27-4.541,31.2-8.937,31.2-31.2,0-10.986-16.11-19.775-17.73-9.668-43.8-9.668-25.35,0-39.85,7.471-15.375,7.909-15.38,22.851,0,11.427,6.59,24.463,6.75,13.476,16.26,19.922,30.18,20.359,98.59,20.361,44.67,0,65.77-16.113,16.26-12.6,25.49-42.92,4.4-14.646,8.05-54.638,3.525-37.938,6.01-51.27,3.375-18.018,8.79-18.311,3.375-.144,23,6.3l1.61-17.138q-53.325-29.883-96.09-31.5h0Zm487.79-34.863q-18.6-10.547-36.48-22.705-10.98-7.47-42.33-30.029-8.2,20.949-12.6,31.494,9.81,4.1,19.63,8.2,12.45,5.421,18.75,9.815-48.93,61.671-48.92,151.171,0,17.287,1.46,26.661c0.49,1.464-.2,2.2-2.05,2.2q-3.375,0-4.83-1.611-26.52-21.974-40.58-61.67-12.45-35.157-12.45-75.586,0-8.2.29-14.209c0-1.172,1.91-1.758,5.71-1.758q5.28,0,18.61,2.051,15.81,2.491,19.48,2.783a128.525,128.525,0,0,1,7.32-12.158q4.395-6.884,4.4-9.229a1.493,1.493,0,0,0-1.61-1.758,474.219,474.219,0,0,1-83.65-10.107q-34.425-7.471-81-23.731L2330.54,622.6q10.7,3.954,21.24,7.91,13.635,6.3,15.09,14.355,11.43,59.622,42.77,122.315,27.39,54.639,49.37,74.414Q2522.43,835,2546.02,835q-0.87-12.6-.88-24.023,0-99.169,73.68-176.075,1.905-1.9-.58-3.369h0Zm223.53,111.328a99.552,99.552,0,0,0-14.06,1.172q-27.105,4.1-42.04,13.623-14.07,8.937-14.06,20.362a19.868,19.868,0,0,0,1.46,7.47q8.94,21.973,37.5,21.973,3.075,0,7.47-.366c2.93-.243,5.28-0.366,7.03-0.366,2.15,0,3.23.537,3.23,1.611q0,3.223-9.52,7.471a56.237,56.237,0,0,1-23.15,4.834q-38.97,0-55.52-16.553-19.035-18.9-21.82-69.58,13.62,0.439,27.39,1.025,29.88,1.175,42.19,2.93a2.168,2.168,0,0,0,1.75-.293q0.585-.732,0-3.369-6-25.341-6-36.035,0-3.076.44-9.522t0.44-9.668q0-10.547-2.93-16.553-9.09.3-23.59,6.446-6,2.636-12.74,6.3,3.96,3.956,7.91,7.911a18.51,18.51,0,0,1,4.69,12.158,26.3,26.3,0,0,1-1.17,7.764q-0.735,2.2-20.95,4.541-8.355.878-19.92,1.757,0-3.807-.44-13.037t-0.44-14.5q0-29,8.64-49.218,26.505-1.171,29.44-1.172,37.65,0,45.85,12.89,5.565,8.5,6.74,29.3c0.2,1.27,1.27,1.9,3.22,1.9a86.331,86.331,0,0,0,9.67-.732q7.77-.731,9.82-0.879,4.1-14.646,8.2-29.443a201.482,201.482,0,0,1,13.77-32.666q-51.855,2.2-88.18,2.2-31.935,0-80.86-5.127-48.2-4.978-61.09-9.375c-0.58,1.076-.88,3.809-0.88,8.2q0,10.695,3.23,12.451,11.28,2.933,19.77,4.248,8.355,3.225,8.5,13.33,1.02,112.062,20.95,170.069-12.75-6-23.15-6.006a25.712,25.712,0,0,0-11.57,2.344l-1.03,37.5Q2646.07,835,2664.53,835q9.075,0,26.8,1.9,20.8,2.2,29.01,2.637,47.6,2.341,54.05,2.344,41.745,0,64.75-12.012,30.465-15.965,34.71-54.932a17.572,17.572,0,0,0,.44-4.687q0-27.39-32.52-27.393h0Zm341.61,7.91q-7.92-9.08-21.25-9.082-9.075,0-20.06,4.248-22.71,8.646-36.48,21.534-12.45,11.572-12.45,21.386a9.5,9.5,0,0,0,.73,3.955q5.13,12.745,24.76,12.745,7.9,0,20.36-2.857t14.5-2.856c2.05,0,3.08.636,3.08,1.9q0,5.421-20.36,13.33-20.955,8.205-37.65,8.2-20.955,0-20.95-18.017,0-6.884,2.42-18.97t2.42-17.065q0-12.158-10.84-20.215-13.335-9.669-46.15-16.553a281.685,281.685,0,0,0,30.47,1.758q43.8,0,73.83-16.553,34.275-18.749,34.28-50.977,0-21.385-13.92-34.423-16.41-15.381-48.78-15.381-6.735,0-36.69,1.977t-43.14,1.978q-30.615,0-53.76-6.885-27.54-8.2-53.32-28.271l-9.38,34.57q9.09,8.349,24.61,8.35a50,50,0,0,0,8.79-.586q-17.28,42.188-25.19,91.552-4.4,28.273-8.21,83.35-0.585,10.255-9.08,12.891-8.49,1.173-16.99,2.343-5.13.879-5.13,17.139,0.15,1.023.3,1.758,1.755-.588,49.65-1.026l69.15-.439q-15.54-52.439-15.53-95.068,0-16.844,1.17-20.362,20.07,9.524,27.25,23.438,5.265,9.814,6.44,30.029,1.6,28.564,3.52,39.111,6.285,33.692,58.74,33.692,17.58,0,43.21-4.541,38.235-6.739,58.15-35.01,14.22-20.216,14.21-39.111a25.03,25.03,0,0,0-6.73-16.993h0Zm-92.14-50.83q-14.8,3.955-36.48,3.955-21.975,0-50.39-8.2-35.295-10.251-35.3-24.463,0-8.2,17.43-13.842t41.02-5.64a134.131,134.131,0,0,1,54.56,11.5q26.145,11.5,26.15,23.8,0,8.2-16.99,12.89h0Zm350.09,27.1q-10.1-47.606-30.32-71.484-27.24-32.373-78.66-32.373-5.865,0-18.16.732-12.315.735-19.05,0.732-62.835,0-95.65-28.125-1.17,2.346-1.17,18.9t2.93,17.725q16.7,4.393,17.57,4.834,8.2,4.1,8.21,14.941,0,86.429,24.9,151.758a32.6,32.6,0,0,0-15.23-3.809,40.268,40.268,0,0,0-22.56,7.178l3.07,37.5q15.525-11.426,48.49-11.426,11.865,0,39.48,1.9t42.84,1.9q97.125,0,97.12-77.93a164.963,164.963,0,0,0-3.81-32.959h0Zm-53.17,40.283q-18.015,10.7-49.8,10.694-29.745,0-42.34-6.885-9.525-28.269-9.52-65.186a152.315,152.315,0,0,1,3.22-32.666,28.821,28.821,0,0,1,5.13-.293,193.959,193.959,0,0,1,45.85,5.127q31.05,7.471,45.26,16.846,21.675,14.063,21.68,38.965,0,21.972-19.48,33.4h0Zm233.35-170.508q-3.96-.879-3.96,2.051,0,0.439.15,4.1t0.15,6.152a439.154,439.154,0,0,1-7.77,81.3q-9.225,48.927-26.51,79.541-16.26,29-31.93,29-10.545,0-16.7-9.009t-6.15-23.071q0-26.511,17.13-66.358a355.554,355.554,0,0,1,41.46-72.216q-30.18.877-53.17,0.878-23.88,0-61.24-1.757a1.739,1.739,0,0,0-2.05,1.172q-2.775,8.056-10.84,24.023-0.435,1.175,1.47,1.172,29.145-2.781,59.47-3.369a235.15,235.15,0,0,0-41.89,49.658q-27.105,42.774-27.1,85.4,0,26.662,15.09,41.6,14.205,14.207,37.93,14.209,20.655,0,43.36-11.426,29.01-14.646,50.83-44.092,0,14.942-8.64,60.059a1.7,1.7,0,0,0,1.32,2.2q1.9,0.439,4.98-1.611,18.165-12.014,44.97-21.24,29.6-10.253,51.71-10.254c0.88,0,2.22.05,4.03,0.146s3.15,0.147,4.03.147l-2.2-28.565a43.409,43.409,0,0,0-13.77-2.051,46.339,46.339,0,0,0-23.73,6.592,748.307,748.307,0,0,0,9.81-82.764q0.15-1.9,3.52-72.949,0.15-4.833,6.01-4.834a65.527,65.527,0,0,1,9.22,1.172,100.971,100.971,0,0,0,11.14,1.319,91.827,91.827,0,0,0,1.17-14.795q-53.175-13.916-81.3-21.534h0Zm387.16,153.955q-7.92-9.08-21.24-9.082-9.09,0-20.07,4.248-22.71,8.646-36.48,21.534-12.45,11.572-12.45,21.386a9.493,9.493,0,0,0,.74,3.955q5.115,12.745,24.75,12.745,7.92,0,20.36-2.857t14.51-2.856c2.05,0,3.07.636,3.07,1.9q0,5.421-20.36,13.33-20.955,8.205-37.65,8.2-20.94,0-20.94-18.017,0-6.884,2.41-18.97t2.42-17.065q0-12.158-10.84-20.215-13.335-9.669-46.14-16.553a281.4,281.4,0,0,0,30.47,1.758q43.8,0,73.82-16.553,34.29-18.749,34.28-50.977,0-21.385-13.91-34.423-16.41-15.381-48.78-15.381-6.75,0-36.7,1.977t-43.14,1.978q-30.615,0-53.76-6.885-27.54-8.2-53.32-28.271l-9.37,34.57q9.075,8.349,24.61,8.35a50,50,0,0,0,8.79-.586q-17.3,42.188-25.2,91.552-4.4,28.273-8.2,83.35-0.585,10.255-9.08,12.891-8.505,1.173-17,2.343-5.115.879-5.12,17.139c0.09,0.682.19,1.268,0.29,1.758q1.755-.588,49.66-1.026l69.14-.439q-15.525-52.439-15.53-95.068,0-16.844,1.17-20.362,20.07,9.524,27.25,23.438,5.265,9.814,6.44,30.029,1.62,28.564,3.52,39.111,6.3,33.692,58.74,33.692,17.58,0,43.21-4.541,38.235-6.739,58.16-35.01,14.205-20.216,14.21-39.111a25.041,25.041,0,0,0-6.74-16.993h0Zm-92.14-50.83q-14.805,3.955-36.48,3.955-21.96,0-50.39-8.2-35.295-10.251-35.3-24.463,0-8.2,17.43-13.842t41.02-5.64a134.131,134.131,0,0,1,54.56,11.5q26.16,11.5,26.15,23.8,0,8.2-16.99,12.89h0Zm365.04,104.883q-13.485-4.246-16.26-11.865-19.635-56.689-31.5-91.113-25.92-71.192-47.6-106.494a409.853,409.853,0,0,1-41.46,11.718q-18.6,3.955-40.43,6.592-1.47,39.111-20.21,99.9-17.73,58.008-39.85,88.477-11.565-5.274-16.84-7.471l-7.77,10.694q-5.85,8.205-9.96,13.476,30.03,5.421,49.22,10.254,28.86,7.179,62.11,18.311a239.544,239.544,0,0,1,2.78-34.571q-36.03-1.758-44.67-3.808a195.368,195.368,0,0,0,15.52-33.692q6.3-17.283,11.14-34.423,51.12,5.712,75.29,8.056,4.545,15.237,4.54,42.334a346.1,346.1,0,0,1-3.66,49.8q39.1-6.592,72.07-6.592,9.525,0,33.54,1.172,9.96-17.43,14.65-26.074-10.245-2.341-20.65-4.688h0Zm-138.28-91.553q-32.67,0-32.67-19.042,0-14.355,16.7-25.342a63.412,63.412,0,0,1,35.74-10.547q27.255,0,27.25,20.068,0,34.864-47.02,34.863h0ZM4517.26,714q-13.47-8.055-41.6-8.057-5.865,0-17.58.513t-13.91.513q-24.765,0-36.48-8.057-8.94-6.153-13.48-20.215-3.945-13.183-7.91-26.367a34.017,34.017,0,0,1-2.78-12.6q0-12.156,12.31-18.31,10.245-5.125,26.36-5.127a83.8,83.8,0,0,1,23.37,3q10.32,3,10.32,6.958,0,2.931-7.47,5.713-8.2,2.636-16.26,5.273-21.24,8.058-21.24,21.973,0,9.667,15.97,17.138,16.995,8.058,41.31,8.057,49.8,0,49.8-31.2,0-20.946-24.17-34.57-26.655-14.942-74.26-14.942-46.29,0-73.1,16.846-22.41,14.063-28.86,37.793-4.83,17.433-4.83,29.59,0,38.232,47.31,38.232,6.885,0,22.49-1.684t22.05-1.685q24.6,0,33.39,17.285,4.11,8.351,12.45,51.123a29.511,29.511,0,0,1,.59,5.42q0,16.116-20.51,24.609-16.545,6.888-40.43,6.885-30.315,0-30.32-7.178,0-2.34,8.2-5.126,21.24-7.471,30.03-13.184,18.465-11.865,18.46-29.15,0-11.427-13.92-18.311-14.355-7.176-39.11-7.178a184.226,184.226,0,0,0-23.43,1.465q-23.01,3.077-35.16,14.5-10.7,9.963-10.69,23.877,0,21.681,25.48,38.525,30.48,20.36,82.77,20.362,53.31,0,87.01-16.992,32.37-16.26,39.55-44.239,5.415-20.946,5.42-34.717,0-26.367-17.14-36.767h0Zm348.93-9.522q-15.825-34.42-84.52-34.423-118.515,0-118.51,72.509,0,39.26,25.34,70.459,29.595,36.62,79.1,36.621,43.065,0,64.16-11.425,14.505-7.911,24.32-26.368a28.429,28.429,0,0,0,3.52-13.183q0-23-37.8-30.322a144.806,144.806,0,0,0-26.66-2.637q-18.315,0-28.93,5.786t-10.62,15.161q0,14.942,12.16,25.708t31.35,14.282c1.17,0.392,1.76.879,1.76,1.465,0,0.879-1.13,1.758-3.37,2.637a44.57,44.57,0,0,1-18.9,3.076q-18.165-.879-29.74-13.916-15.225-17.139-15.23-51.855,0-27.539,3.37-27.539,2.34,0,52.73,8.056,56.7,9.23,81.59,14.8,1.47,0.44,1.47-1.318,0.585-10.109.59-17.578,0-24.315-7.18-39.991h0Zm-80.72,22.266q-60.495,0-60.49-18.9,0-7.471,17.72-11.866,15.09-3.807,35.6-3.808,17.58,0,28.27,5.2t10.69,13.4q0,15.969-31.79,15.967h0Zm301.91,117.481q-3.96-7.767-3.96-28.125,0-21.678,4.25-61.817a224.173,224.173,0,0,0,1.17-22.851q0-29.736-6.88-48.487-8.355-23.144-25.49-23.144-9.81,0-22.85,8.349-47.175,30.618-65.04,85.84,0-48.779,18.9-78.662-113.085-7.47-115.87-8.936a25.44,25.44,0,0,0-.59,6.006q0,11.721,3.96,12.891,8.49,1.614,12.89,2.051,13.32,2.2,14.06,13.916,1.455,21.828,5.42,50.244,6.585,45.851,14.79,57.422-11.565-5.418-21.97-5.42a29.321,29.321,0,0,0-11.72,2.051l-0.29,34.57q8.64-7.762,30.91-7.764,33.54,0,66.94,14.942-13.185-39.256-13.47-53.467,10.245-41.308,34.71-53.613,6.015-3.077,9.67-3.077,11.565,0,12.6,24.024v13.476q0,50.685-15.09,74.707l90.09,16.846q3.21-8.645,5.42-14.355-14.355-4.395-22.56-7.617h0Zm353.76-107.667a188.763,188.763,0,0,0-23.73-1.757q-22.71,0-35.96,6.445t-13.26,16.406q0,18.6,18.75,31.641,15.825,11.135,37.94,14.5c1.17,0,1.76.879,1.76,2.637q0,6.591-15.82,17.285Q5393.825,835,5379.62,835q-19.05,0-29.89-23.584-10.11-21.678-10.11-55.371,0-60.645,26.52-110.6,15.375,2.2,41.6,19.483,4.545,2.931,4.54,10.107,0,4.982-2.27,15.161t-2.27,13.111q0,5.421,7.91,8.056,16.695,3.812,27.25,5.42,3.51-36.327,18.89-96.826c0.49-2.051-.1-3.076-1.75-3.076q-125.55,0-241.56-9.815c-1.07.392-1.66,0.879-1.76,1.465q4.995,44.241,8.06,63.867,0.585,2.2,2.34.293a144.4,144.4,0,0,1,75-30.908q-12,15.237-23.58,41.895-16.56,38.671-16.55,73.681,0,43.8,24.17,68.994,26.655,27.831,78.95,27.832,38.67,0,69.58-15.82,35.31-18.018,47.76-51.416,4.83-12.744,4.83-20.361,0-23.875-46.14-30.03h0Zm267.48,6.3a99.435,99.435,0,0,0-14.06,1.172q-27.105,4.1-42.04,13.623-14.07,8.937-14.07,20.362a19.88,19.88,0,0,0,1.47,7.47q8.925,21.973,37.5,21.973,3.075,0,7.47-.366t7.03-.366c2.15,0,3.22.537,3.22,1.611q0,3.223-9.52,7.471a56.191,56.191,0,0,1-23.14,4.834q-38.97,0-55.52-16.553-19.05-18.9-21.83-69.58,13.62,0.439,27.4,1.025,29.88,1.175,42.18,2.93a2.194,2.194,0,0,0,1.76-.293q0.585-.732,0-3.369-6-25.341-6.01-36.035,0-3.076.44-9.522c0.3-4.3.44-7.519,0.44-9.668q0-10.547-2.93-16.553-9.075.3-23.58,6.446-6.015,2.636-12.74,6.3,3.945,3.956,7.91,7.911a18.5,18.5,0,0,1,4.68,12.158,26.3,26.3,0,0,1-1.17,7.764q-0.735,2.2-20.95,4.541-8.34.878-19.92,1.757,0-3.807-.44-13.037t-0.44-14.5q0-29,8.65-49.218,26.505-1.171,29.44-1.172,37.65,0,45.85,12.89,5.565,8.5,6.74,29.3c0.19,1.27,1.27,1.9,3.22,1.9a86.5,86.5,0,0,0,9.67-.732q7.755-.731,9.81-0.879,4.11-14.646,8.21-29.443a199.722,199.722,0,0,1,13.77-32.666q-51.87,2.2-88.19,2.2-31.935,0-80.86-5.127-48.195-4.978-61.08-9.375-0.885,1.614-.88,8.2,0,10.695,3.22,12.451,11.28,2.933,19.78,4.248,8.34,3.225,8.49,13.33,1.035,112.062,20.95,170.069-12.75-6-23.14-6.006a25.757,25.757,0,0,0-11.58,2.344l-1.02,37.5Q5512.92,835,5531.37,835q9.09,0,26.81,1.9,20.805,2.2,29,2.637,47.61,2.341,54.06,2.344,41.745,0,64.74-12.012,30.465-15.965,34.72-54.932a18.006,18.006,0,0,0,.44-4.687q0-27.39-32.52-27.393h0Zm392.87-86.279q-15.675-17.722-38.82-17.725-32.52,0-59.76,33.838-24.03,30.031-32.67,49.512a329.153,329.153,0,0,0,3.96-48.633q0-62.107-31.21-62.109-9.51,0-22.55,6.3-56.55,27.393-76.76,99.609a114.383,114.383,0,0,1-.88-15.527,265.187,265.187,0,0,1,14.65-88.477q-96.975,7.179-113.67,7.178c-2.06,0-3.08.391-3.08,1.172q0,21.241,5.42,22.119,9.81,0.735,19.63,1.465,9.81,2.2,9.81,14.5v6.3q0,33.106,5.72,72.949,5.85,41.748,15.23,70.166-11.43-4.539-20.36-4.541-8.055,0-13.48,3.076l1.47,35.01q10.68-10.109,38.67-10.108a149.932,149.932,0,0,1,60.64,12.6q-13.47-53.905-13.77-72.363,4.545-31.785,16.26-54.346,12.165-23.29,25.35-23.291,19.905,0,19.92,58.74,0,54.641-16.26,90.967,37.785,10.69,87.89,21.24,3.81-10.547,5.42-14.648-15.975-6.592-21.68-9.082-3.81-10.109-3.81-48.34a265.194,265.194,0,0,1,27.98-64.307q20.94-34.86,37.94-34.863,10.245,0,10.25,17.578,0,22.56-15.09,64.746-13.77,38.38-25.34,55.664,32.82-.879,61.96-0.879,30.765,0,47.17,1.172-5.565-11.569-8.64-17.431l-40.58-8.057q58.89-50.538,58.89-105.322,0-27.686-15.82-45.85h0Zm259.42-25.342q-20.07-17.87-60.35-17.871-15.09,0-44.46,2.93t-42.55,2.93q-41.61,0-82.62-20.655l-2.63,36.914q7.17,4.542,17.72,4.541a53.344,53.344,0,0,0,17.73-3.369,396.942,396.942,0,0,0-7.91,79.834q0,39.111,8.49,103.565a27.372,27.372,0,0,1,.15,2.783q0,9.228-10.99,13.33-10.245,3.368-15.53,4.834-2.775,1.023-2.78,8.642a42.416,42.416,0,0,0,1.47,11.426q62.685-13.77,122.75-25.781-25.785-50.389-35.45-96.533,15.39,13.183,26.22,19.043a88.07,88.07,0,0,0,41.9,10.254q55.065,0,79.24-60.5,7.185-18.162,7.18-34.571,0-26.219-17.58-41.748h0Zm-43.06,70.752a156.518,156.518,0,0,1-53.91,9.375,146.862,146.862,0,0,1-40.57-5.566q-21.255-6-21.25-13.916,0-12.6,24.03-23.731,24.9-11.716,55.81-11.718,28.125,0,45.26,6.3,17.73,6.448,17.73,17.432,0,12.013-27.1,21.826h0Zm192.33-87.451q-56.25,0-91.55,39.111-32.085,35.6-32.08,84.082,0,50.834,31.05,86.866,30.03,34.716,69.73,34.716,43.215,0,76.61-36.474,24.465-26.807,40.72-69.434,14.07-37.058,14.07-64.453,0-74.412-108.55-74.414h0Zm42.19,153.516a103.555,103.555,0,0,1-59.91,18.6,96.3,96.3,0,0,1-49.08-13.33q-26.505-15.525-26.51-39.111,0-20.216,28.57-37.061,27.24-16.111,55.95-16.113,31.785,0,54.35,14.062,23.145,14.063,23.14,34.571,0,20.363-26.51,38.379h0Zm377.93-17.286q-7.905-9.08-21.24-9.082-9.09,0-20.07,4.248-22.71,8.646-36.47,21.534-12.465,11.572-12.46,21.386a9.493,9.493,0,0,0,.74,3.955q5.115,12.745,24.75,12.745,7.92,0,20.36-2.857t14.51-2.856c2.05,0,3.07.636,3.07,1.9q0,5.421-20.36,13.33-20.955,8.205-37.65,8.2-20.94,0-20.94-18.017,0-6.884,2.41-18.97,2.43-12.086,2.42-17.065,0-12.158-10.84-20.215-13.335-9.669-46.14-16.553a281.542,281.542,0,0,0,30.47,1.758q43.8,0,73.83-16.553,34.275-18.749,34.27-50.977,0-21.385-13.91-34.423-16.41-15.381-48.78-15.381-6.75,0-36.7,1.977t-43.14,1.978q-30.615,0-53.76-6.885-27.54-8.2-53.32-28.271l-9.37,34.57q9.075,8.349,24.61,8.35a50,50,0,0,0,8.79-.586q-17.295,42.188-25.2,91.552-4.4,28.273-8.2,83.35-0.585,10.255-9.08,12.891-8.505,1.173-17,2.343-5.115.879-5.12,17.139c0.1,0.682.19,1.268,0.29,1.758q1.755-.588,49.66-1.026l69.14-.439q-15.525-52.439-15.53-95.068,0-16.844,1.17-20.362,20.07,9.524,27.25,23.438,5.28,9.814,6.45,30.029,1.6,28.564,3.51,39.111,6.3,33.692,58.74,33.692,17.58,0,43.21-4.541,38.235-6.739,58.16-35.01,14.2-20.216,14.21-39.111a25.041,25.041,0,0,0-6.74-16.993h0Zm-92.14-50.83q-14.79,3.955-36.47,3.955-21.975,0-50.4-8.2-35.295-10.251-35.3-24.463,0-8.2,17.43-13.842t41.02-5.64a134.131,134.131,0,0,1,54.56,11.5q26.16,11.5,26.15,23.8,0,8.2-16.99,12.89h0ZM7203.2,804.824q-13.485-4.246-16.26-11.865-19.635-56.689-31.49-91.113-25.935-71.192-47.61-106.494a409.122,409.122,0,0,1-41.46,11.718q-18.6,3.955-40.43,6.592-1.455,39.111-20.21,99.9-17.73,58.008-39.85,88.477-11.565-5.274-16.84-7.471l-7.76,10.694q-5.865,8.205-9.97,13.476,30.03,5.421,49.22,10.254,28.86,7.179,62.11,18.311a238.231,238.231,0,0,1,2.79-34.571q-36.045-1.758-44.68-3.808a196.1,196.1,0,0,0,15.53-33.692q6.285-17.283,11.13-34.423,51.12,5.712,75.29,8.056,4.545,15.237,4.54,42.334a346.1,346.1,0,0,1-3.66,49.8q39.1-6.592,72.07-6.592,9.525,0,33.55,1.172,9.945-17.43,14.64-26.074-10.245-2.341-20.65-4.688h0Zm-138.28-91.553q-32.67,0-32.67-19.042,0-14.355,16.7-25.342a63.412,63.412,0,0,1,35.74-10.547q27.255,0,27.25,20.068,0,34.864-47.02,34.863h0Zm398.73,13.77q-10.11-47.606-30.32-71.484-27.255-32.373-78.67-32.373-5.85,0-18.16.732t-19.04.732q-62.85,0-95.66-28.125-1.17,2.346-1.17,18.9t2.93,17.725q16.695,4.393,17.58,4.834,8.2,4.1,8.2,14.941,0,86.429,24.9,151.758a32.6,32.6,0,0,0-15.23-3.809,40.316,40.316,0,0,0-22.56,7.178l3.08,37.5q15.525-11.426,48.48-11.426,11.865,0,39.48,1.9t42.85,1.9q97.11,0,97.12-77.93a164.963,164.963,0,0,0-3.81-32.959h0Zm-53.18,40.283q-18.015,10.7-49.8,10.694-29.745,0-42.33-6.885-9.525-28.269-9.53-65.186a152.285,152.285,0,0,1,3.23-32.666,28.684,28.684,0,0,1,5.12-.293,193.9,193.9,0,0,1,45.85,5.127q31.065,7.471,45.27,16.846,21.675,14.063,21.68,38.965,0,21.972-19.49,33.4h0Zm320.66,37.5q-13.485-4.246-16.26-11.865-19.635-56.689-31.49-91.113-25.935-71.192-47.61-106.494a409.853,409.853,0,0,1-41.46,11.718q-18.6,3.955-40.43,6.592-1.455,39.111-20.21,99.9-17.73,58.008-39.85,88.477-11.565-5.274-16.84-7.471l-7.77,10.694q-5.85,8.205-9.96,13.476,30.03,5.421,49.22,10.254,28.86,7.179,62.11,18.311a238.231,238.231,0,0,1,2.79-34.571q-36.045-1.758-44.68-3.808a195.368,195.368,0,0,0,15.52-33.692q6.3-17.283,11.14-34.423,51.12,5.712,75.29,8.056,4.545,15.237,4.54,42.334a346.1,346.1,0,0,1-3.66,49.8q39.1-6.592,72.07-6.592,9.525,0,33.54,1.172,9.96-17.43,14.65-26.074-10.245-2.341-20.65-4.688h0Zm-138.28-91.553q-32.67,0-32.67-19.042,0-14.355,16.7-25.342a63.412,63.412,0,0,1,35.74-10.547q27.255,0,27.25,20.068,0,34.864-47.02,34.863h0Z" transform="translate(-257.344 -163.344)"/>
</svg>
