<?xml version="1.0" encoding="utf-8"?>
<!-- Generator: Adobe Illustrator 24.1.2, SVG Export Plug-In . SVG Version: 6.00 Build 0)  -->
<svg version="1.1" xmlns="http://www.w3.org/2000/svg" xmlns:xlink="http://www.w3.org/1999/xlink" x="0px" y="0px"
	 viewBox="0 0 339 352.2" style="enable-background:new 0 0 339 352.2;" xml:space="preserve">
<style type="text/css">
	.st0{display:none;}
	.st1{display:inline;fill:#6D2222;}
	.st2{display:inline;}
	.st3{fill:#FFFFFF;}
	.st4{fill:#8E7404;}
	.st5{display:inline;fill:#294C23;}
	.st6{display:inline;fill:none;}
	.st7{display:inline;fill:none;stroke:#020202;stroke-miterlimit:10;}
</style>
<g id="postTEMPORADA" class="st0">
	<circle class="st1" cx="168.2" cy="178.8" r="143.1"/>
	<g class="st2">
		<path class="st3" d="M58.8,185c-1.5-0.1-3-0.4-4.6-1c-5.3-2-7.8-5-7.6-8.9c0.1-1.6,0.6-3.1,1.6-4.4c0.6-0.7,1.5-1.6,2.7-2.6
			c-4.1,0.5-8.5,1.5-13.1,3c-0.8-4.3-1.7-8.7-2.7-13.3c0.5-0.1,1-0.1,1.5-0.1c0.7,0,1.1,0.2,1.1,0.4c0.1,0.4,0.3,0.9,0.5,1.7
			c0.3,0.8,0.9,1.2,1.7,1.3c0.1,0,0.2,0,0.4,0c5.8-0.3,10.4-0.3,13.8-0.1c3.7,0.2,7.2,0.7,10.6,1.4c-0.3-0.7-0.4-1.3-0.3-1.9
			c0-0.7,0.3-1.4,0.7-1.9l4.9,0.6c-2,2.8-3.1,5.7-3.2,8.6c-0.1,0.9,0,2.5,0.1,4.6c0.1,2.1,0.2,3.7,0.1,4.8c-0.2,2.9-1.1,5-2.7,6.3
			C63.1,184.7,61.2,185.2,58.8,185z M58.1,181.4c1,0.1,1.8-0.5,2.4-1.8c0.6-1.2,1-2.8,1.1-4.8c0.1-2.2-0.3-4.2-1.2-6
			c-0.9-1.8-1.9-2.7-3-2.7c-0.7,0-1.4,0.7-2,2.2c-0.6,1.4-0.9,2.8-1,4.3c-0.1,2,0.2,3.9,0.9,5.8C56.1,180.3,57,181.4,58.1,181.4z"/>
		<path class="st3" d="M62.3,213.5c-2.4,0.5-5.3,0.6-8.7,0.2c-3.9-0.4-7.3-1.2-9.9-2.4c-3.6-1.7-5.8-4-6.4-7c-0.6-2.8,0.5-5.5,3-8.2
			c2.7-2.8,6.3-4.7,10.7-5.6c4.2-0.9,8.1-0.5,11.7,1.1c3.9,1.8,6.3,4.6,7.1,8.5C71.2,207.8,68.8,212.2,62.3,213.5z M56.1,210.5
			c1.8-0.4,3.1-1.5,4-3.3c0.9-1.8,1.1-3.8,0.7-6.1c-0.4-2-1.5-3.8-3.3-5.4c-1.9-1.7-3.7-2.4-5.4-2c-2.1,0.4-3.6,1.7-4.5,3.8
			c-0.8,1.8-1.1,3.7-0.7,5.5c0.5,2.3,1.7,4.2,3.7,5.8C52.5,210.2,54.3,210.8,56.1,210.5z"/>
		<path class="st3" d="M68,243.9c-1.1,0.6-2.5,1.1-4.4,1.6c-2.4,0.7-4.8,0.3-7.2-1.1c-2.4-1.4-4.5-3.8-6.3-7.2
			c-1.7-3.3-2.2-6.3-1.6-9.1c0.5-2.3,1.6-3.9,3.3-4.8c1.1-0.6,2.2-0.7,3.4-0.4c1.3,0.3,2.4,1.1,3.4,2.4c0.5,0.7,0.9,1.4,1.3,2.1
			c0.8,1.6,1.2,2.9,1.1,4.1c-0.1,1.2-0.6,2-1.5,2.4c-1.4,0.7-2.8,0.7-4.4,0c-0.7-0.3-1.7-1-3-2c-0.5-0.4-0.8-0.6-1-0.5
			c-0.6,0.3-0.4,1.4,0.6,3.3c0.8,1.5,1.7,2.6,2.8,3.4c1.3,1,2.6,1.1,3.9,0.4c0.2-0.1,0.4-0.2,0.6-0.4c3.1-2.3,4.9-3.7,5.5-4.3
			c1.1-1.3,1.2-2.7,0.4-4.2c-0.2-0.4-0.6-1.1-1.3-2c-0.6-0.9-1.1-1.6-1.3-2c-1.5-3-0.8-5.3,2.2-6.8c1-0.5,2.2-0.9,3.7-1.3
			c2.1-0.6,4-0.4,5.9,0.4c2.2,1,4.1,3,5.6,5.9c1.5,3,2.2,5.7,1.8,8c-0.3,2.1-1.3,3.5-2.9,4.4c-2.5,1.3-4.5,0.3-6.1-2.8
			c-0.8-1.5-1.1-3-1.1-4.4c0.1-1.3,0.5-2.2,1.3-2.6c1.1-0.6,2.3-0.3,3.6,0.7c0.5,0.4,0.9,0.8,1.4,1.2c0.5,0.4,0.8,0.5,1,0.4
			c0.3-0.2,0.4-0.6,0.3-1.4c-0.1-0.8-0.4-1.6-0.8-2.4c-0.5-1-1.2-1.7-1.9-2.2c-0.9-0.5-1.8-0.5-2.8-0.1c-0.5,0.2-0.9,0.6-1.4,1
			c-0.9,0.8-1.8,1.6-2.7,2.4c-1,0.9-1.5,1.7-1.7,2.5c-0.3,1.1,0,2.4,0.8,4c0.1,0.1,0.3,0.6,0.7,1.3c0.4,0.7,0.7,1.3,0.9,1.6
			c0.9,1.8,1.3,3.3,1.1,4.4C71.3,241.5,70.1,242.8,68,243.9z"/>
		<path class="st3" d="M89,271c-0.5,0.5-1.3,1-2.3,1.5c-2.8,1.4-5.6,1.7-8.5,0.9c-2.5-0.6-4.7-2-6.6-4c-2.5-2.7-3.5-5.6-3-8.7
			c0.5-2.8,2.1-5.5,5-8.2c2.3-2.1,5.1-3.9,8.4-5.4c2.3-1,4.2-1.7,5.8-2c-2.3-1.9-5.2-2.9-8.5-3c-0.2,0-0.3,0-0.1-0.2
			c1.1-1.3,3-3.5,5.6-6.4c0.1,0,0.2,0,0.3,0c5,6.6,10.5,13.2,16.6,19.7c0.1,0.1,0.1,0.3-0.2,0.4c-4.7,2.9-8.3,5.3-10.8,7.3
			c-0.4-0.6-0.9-1.5-1.5-2.6c-0.2-0.6-0.1-1,0.2-1.3c0.2-0.2,0.7-0.5,1.4-1c0.8-0.5,1.3-0.9,1.6-1.2c0.5-0.4,0.7-0.9,0.7-1.3
			c-0.1-2.4-0.5-4.1-1.1-5c-4.5,1.6-8.8,4.3-12.7,8c-2.2,2-3.7,4-4.7,5.8c-1,2-1,3.5-0.1,4.5c0.7,0.7,1.8,1.2,3.4,1.4
			c1.5,0.2,2.4,0.1,2.8-0.3c0.2-0.2,0.2-0.3,0.1-0.4c-0.9-1.4-1.3-2.8-1.3-4.3c-0.1-1.8,0.5-3.2,1.7-4.3c0.6-0.6,1.5-0.8,2.6-0.5
			c1.1,0.3,2.1,1,3.2,2.2c0.5,0.5,1,1.2,1.6,2C90.4,267.4,90.5,269.5,89,271z"/>
		<path class="st3" d="M117.1,289.4c-0.1,0.2-0.3,0.4-0.4,0.5c-2,2.8-4.4,4.3-6.9,4.4c-2,0.1-4.2-0.7-6.7-2.2
			c-0.4-0.2-2-1.3-4.8-3.2c-0.5-0.3-1.3-1-2.5-1.9c-1-0.8-1.8-1.4-2.3-1.7c-1.1-0.7-2.2-0.9-3.1-0.7l2.7-4.2c0.4,0,0.8,0.1,1.2,0.4
			c0.6,0.4,1.2,1,1.7,2c1.4-5.1,4.7-12,9.7-20.6c0.5-0.8,0.5-1.4,0.1-2c-0.5-0.4-1-0.9-1.5-1.6c-0.1-0.3,0.1-0.8,0.6-1.6
			c0.3-0.5,0.5-0.8,0.6-0.9c0.6,0.8,2.2,2.3,4.9,4.4c2.7,2.2,5.1,3.9,7,5c2.2,1.3,5,2.9,8.2,4.6c-1.2,0.9-2.3,1.8-3.5,3
			c-0.9,1-1.8,1.9-2.8,2.9c-0.1-0.1-0.5-0.2-1-0.4c-0.4-0.2-0.7-0.3-0.9-0.4c-0.2-0.1-0.2-0.2-0.2-0.4c0.9-1.6,1.3-2.9,1.4-3.7
			c0.1-1.3-1-2.6-3.3-4c-0.2-0.1-1.1-0.6-2.8-1.5c-1.5,1.2-2.8,2.9-4.2,5.2c-0.2,0.4-0.6,1-1,1.7s-0.7,1.2-0.9,1.5
			c0.7,0.4,1.4,0.7,1.9,0.9c1.3,0.6,2.1,0.8,2.2,0.6c0.2-0.2,0.5-0.5,0.6-0.8c0.3-0.5,0.4-1.1,0.4-1.6c-0.1-0.4-0.1-0.9-0.2-1.3
			c0.6,0,1.1,0,1.6,0c1.2,0.1,2,0.2,2.6,0.6c-0.1,0.6-0.4,1.2-0.9,2.1c-0.1,0.2-0.4,0.6-0.7,1.1c-0.3,0.5-0.6,0.8-0.7,1.1
			c-0.5,0.8-1.1,2.3-1.9,4.4c-0.1,0.2-0.2,0.3-0.2,0.4c0,0-0.1,0-0.2-0.1c-0.7-0.6-1.9-1.5-3.7-2.6c-0.8-0.5-1.6-1.1-2.4-1.6
			c-2.1,4-3.1,7-2.8,9.1c0.3,1.9,1.6,3.5,3.9,4.9c0.7,0.5,1.6,0.7,2.4,0.7c0.8,0,1.2-0.1,1.4-0.3c0.1-0.1,0-0.2-0.2-0.4
			c-0.2-0.1-0.4-0.2-0.7-0.3c-0.3-0.1-0.5-0.3-0.7-0.4c-1.7-1-2.4-2.6-1.9-4.6c0.1-0.3,0.2-0.6,0.4-0.9c0.5-0.9,1.4-1.4,2.7-1.6
			c1.3-0.2,2.9,0.1,4.8,0.7c0.5,0.2,1,0.4,1.4,0.6C118,285.7,118.3,287.3,117.1,289.4z"/>
		<path class="st3" d="M165.5,292.5c-0.9,4.8-3.9,9-8.9,12.6l4,1.9c0.1,0.6,0.3,1.4,0.5,2.5c-1.1-0.3-2.8-0.7-4.9-1.1
			c-2-0.4-4.2-0.8-6.5-1.2c1.1-1.3,2.5-3.6,4.1-6.8c1.8-3.5,2.9-6.2,3.2-8.2c0.3-1.5,0.1-2.4-0.6-2.5c-1.2-0.2-2.8,1-4.9,3.8
			c-1.8,2.3-3.3,5-4.6,7.8c-0.7,3.3-0.9,5.5-0.8,6.4c0.4,0.3,1,0.8,2,1.6c-0.2,0.3-0.5,0.9-0.9,1.8c-3.3-1.6-6.2-3.1-8.6-4.6
			c1.8-2.9,3.1-6.8,4-11.6c1-5.1,0.8-7.8-0.6-8.1c-0.9-0.2-2,0.7-3.3,2.5c-1.2,1.8-2.2,4.1-3.1,6.8c-0.3,1.6-0.4,4.9-0.4,9.7
			c-1.8-1.5-3.8-2.5-6-2.9c-2-0.4-3.4-0.2-4.3,0.5l0.7-4.6c0.4-0.2,0.9-0.2,1.5-0.1c0.6,0.1,1.3,0.5,2,1c-0.2-2.6-0.1-5.8,0.2-9.5
			c0.3-3.6,0.7-6.8,1.3-9.7l0.2-0.8c0.2-1.1,0-1.8-0.7-2.1c-0.7-0.2-1.3-0.4-2-0.6c-0.4-0.2-0.4-1.2,0-3c0-0.1,0.1-0.1,0.4-0.1
			c1.2,0.2,5.2,0.7,12.1,1.4c-1.7,3.4-3,7.2-3.8,11.3c-0.2,0.8-0.3,1.5-0.3,2c2.7-6,6.2-9.8,10.6-11.4c1-0.4,1.9-0.5,2.5-0.4
			c2.2,0.4,2.7,3.3,1.7,8.8c-0.4,1.9-0.9,4-1.7,6.3c0.9-1.6,2.5-3.5,4.7-5.8c2.5-2.6,4.9-3.6,7.1-3.2c1.6,0.3,2.8,1.4,3.6,3.1
			C165.8,288,166,290.1,165.5,292.5z"/>
		<path class="st3" d="M197.7,283.7c0.2,1.4,0.2,3-0.1,4.7c-0.9,5.6-3.3,8.7-7.1,9.2c-1.6,0.2-3.1,0-4.6-0.7
			c-0.8-0.4-1.9-1.1-3.1-2.1c1.3,4,3.2,8,5.7,12.1c-4.1,1.7-8.2,3.5-12.4,5.4c-0.2-0.4-0.3-0.9-0.4-1.5c-0.1-0.7-0.1-1.1,0.1-1.2
			c0.4-0.2,0.9-0.5,1.5-0.9c0.7-0.5,1-1.1,0.9-1.9c0-0.1,0-0.2-0.1-0.4c-1.5-5.6-2.5-10.1-3-13.5c-0.6-3.6-0.8-7.2-0.8-10.6
			c-0.6,0.4-1.2,0.6-1.8,0.7c-0.7,0.1-1.4,0-2-0.3l-0.5-4.9c3.2,1.4,6.2,1.8,9.1,1.4c0.9-0.1,2.4-0.5,4.4-1.1c2-0.6,3.6-0.9,4.6-1.1
			c2.8-0.4,5.1,0,6.7,1.4C196.5,279.7,197.4,281.4,197.7,283.7z M194.3,285.2c-0.1-1-0.9-1.6-2.2-2c-1.3-0.4-2.9-0.4-4.9-0.1
			c-2.2,0.3-4.1,1.1-5.6,2.4c-1.5,1.2-2.2,2.4-2.1,3.5c0.1,0.7,0.9,1.2,2.5,1.5c1.4,0.3,2.9,0.3,4.4,0.1c2-0.3,3.8-1,5.5-2.1
			C193.7,287.4,194.5,286.3,194.3,285.2z"/>
		<path class="st3" d="M224.8,274.5c1,2.2,1.7,5,2.1,8.5c0.5,3.9,0.4,7.3-0.2,10.2c-0.9,3.9-2.7,6.5-5.5,7.8
			c-2.6,1.1-5.5,0.7-8.7-1.2c-3.3-2-5.9-5.1-7.7-9.2c-1.7-3.9-2.2-7.8-1.4-11.6c0.9-4.2,3.2-7.1,6.8-8.7
			C217.3,267,222.1,268.5,224.8,274.5z M223.1,281.2c-0.7-1.7-2.1-2.7-4.1-3.2c-2-0.5-4-0.3-6.1,0.6c-1.9,0.8-3.4,2.3-4.6,4.4
			c-1.3,2.2-1.5,4.1-0.8,5.8c0.8,1.9,2.4,3.1,4.7,3.6c2,0.4,3.8,0.3,5.5-0.5c2.1-0.9,3.7-2.6,4.8-4.9
			C223.7,284.8,223.9,282.8,223.1,281.2z"/>
		<path class="st3" d="M261,258.4c1.1,1.3,1.9,2.9,2.3,4.9c0.6,2.8,0.1,5.4-1.6,7.6c-1.1,1.5-2.1,2.7-3.1,3.5
			c-2.8,2.5-5.4,2.7-7.7,0.8c-0.7-0.6-2-1.8-3.7-3.7c-1.3-1.3-2.3-2.1-3.2-2.5c-1.2-0.6-2.6-0.7-4.2-0.4c0.1,0.3,0.7,1,1.7,2.1
			c2.5,2.8,5.7,5.6,9.6,8.4l-5.5,4.9c-2.5,2.3-3.8,3.5-3.9,3.6c-0.1,0-0.1-0.1-0.2-0.2c-1-1.1-1.3-1.8-1.1-2.1
			c0.4-0.5,0.8-1,1.2-1.4c0.3-0.6,0.2-1.2-0.4-1.9c-3-3.8-5.3-6.8-6.7-8.9c-2.5-3.7-4.5-7.3-6.1-10.9c-0.1,0.2-0.3,0.4-0.7,0.7
			c-0.8,0.7-1.7,1-2.7,0.9l-2.3-4.1c2.6,0.1,4.8-0.2,6.8-0.9c1.6-0.6,3.3-1.7,4.9-3.1c0.7-0.6,1.8-1.7,3.3-3.2
			c1.5-1.5,2.4-2.5,2.8-2.8c1.7-1.5,3.5-2.2,5.3-1.9c1.5,0.2,2.9,1,4.1,2.5c1.9,2.1,2.5,4.7,1.8,7.5c-0.6,2.5-2.1,4.8-4.4,6.9
			c-0.8,0.7-1.6,1.3-2.6,2c2.2-1.1,3.9-1.6,5.1-1.6c1.1,0,1.9,0.4,2.6,1.3c0.3,0.3,0.7,1,1.3,1.9c0.6,0.9,1.1,1.6,1.5,2.1
			c1.1,1.2,2.1,1.3,3.3,0.3c0.9-0.8,1.7-1.9,2.3-3.5c0.6-1.5,0.8-2.4,0.5-2.8c-0.1-0.1-0.3-0.1-0.4,0c-0.1,0.1-0.4,0.5-0.9,1.3
			c-0.5,0.8-1,1.3-1.4,1.7c-1,0.9-2.1,1.1-3.1,0.5c-0.1-0.1-0.3-0.2-0.4-0.3c-0.6-0.7-0.9-1.7-0.9-3c0-1.5,0.3-3.1,1-4.7
			c0.3-0.8,0.7-1.4,1.2-1.8c0.7-0.6,1.5-0.8,2.5-0.6C259.8,257.4,260.5,257.8,261,258.4z M247.3,256.1c-0.7-0.8-2.1-1-4.2-0.5
			c-2.1,0.5-3.9,1.4-5.4,2.7c-1.3,1.1-2.2,2.3-2.8,3.5c-0.6,1.2-0.7,2.1-0.2,2.6c0.8,0.9,2.5,0.9,5,0c2-0.8,3.6-1.7,4.8-2.7
			c1.2-1,2-2,2.6-3C247.8,257.5,247.8,256.7,247.3,256.1z"/>
		<path class="st3" d="M285.9,228.9c0.5,0.7,1.2,1.7,2.2,3.1c-1,1.4-1.6,2.4-1.9,3c-1.2,2-2.2,4.4-3.1,7.1c-1.8-1.4-3.6-2.6-5.5-3.7
			c-2.1-1.2-3.8-2-5.1-2.4c-1,1.4-2.7,3.5-5,6.4c1.1,1.1,2.3,2.2,3.4,3.3c1.3,1.3,2.3,2.6,3,3.7c0.5-0.4,1.4-1.7,2.8-3.9
			c1.3,1,2.6,1.9,3.8,2.6c-2,1.5-3.9,3-5.5,4.5c-1.1,1-2.3,2.2-3.8,3.8c-0.3-0.5-0.6-1.1-1-1.8l-0.8-1.4c0.4-0.2,0.9-0.6,1.8-1
			c-1.5-2.7-4.2-5.9-8-9.6c-4-3.9-7.5-6.7-10.4-8.6c0.6-1.5,1.1-2.8,1.4-4.2c0.4-1.4,0.7-2.9,0.9-4.6c3.5,0.3,8.4,1.2,14.8,2.8
			c3.1,0.8,7.1,1.9,12.2,3.2c0.7,0.2,1.4-0.1,2.2-0.7C284.8,229.9,285.3,229.4,285.9,228.9z M264.8,230.3c-1.5-0.9-2.8-0.5-3.8,1.2
			c-0.7,1.2-0.9,2.5-0.7,4c0.2,1.5,0.9,2.6,2,3.2c1.5,0.9,2.8,0.3,3.9-1.7C267.9,234.1,267.4,231.9,264.8,230.3z"/>
		<path class="st3" d="M288.5,194.2c6.7,1.7,9.2,5.9,7.6,12.6c-0.3,1-0.7,2.5-1.4,4.4c-0.6,1.9-1.1,3.2-1.3,4
			c-0.6,2.3-0.5,4.1,0.2,5.4l-4.9-0.9c-0.4-0.9-0.5-1.8-0.3-2.6c0.1-0.5,0.4-1,0.9-1.5c-6.1,0.3-12.8-0.5-20.3-2.3
			c-0.9-0.2-1.6-0.1-2.1,0.4c-0.1,0.1-0.4,0.6-1.1,1.7c-0.2,0.2-0.9,0.1-2.4-0.3c-1.4-0.4-2.2-0.6-2.4-0.7c3-1.7,5-4.7,6.1-9
			c0.1-0.5,0.2-1.1,0.4-2c0.1-0.9,0.3-1.5,0.4-1.9c0.9-3.5,3-5.9,6.2-7.1c2.4-0.9,5.7-1.2,10-0.8
			C285.8,193.7,287.3,193.9,288.5,194.2z M284.2,197.3c-2.1-0.5-4-0.2-5.6,1c-1.1,0.8-2.2,2.2-3.3,4.1c-0.8,1.3-1.4,2.9-1.8,4.6
			c-0.1,0.3-0.1,0.4-0.1,0.5c1.2,0.5,2.6,1,4.1,1.4c3.2,0.8,6.1,1.2,8.7,1.1c0.8-0.7,1.5-2.1,2-4.2c0.5-2.2,0.5-4-0.1-5.5
			C287.4,198.8,286.1,197.7,284.2,197.3z"/>
		<path class="st3" d="M294.7,157.2c0.8,0.3,2,0.8,3.5,1.4c0,1.7,0,2.9,0,3.6c0.1,2.3,0.5,4.9,1.2,7.6c-2.2-0.2-4.5-0.2-6.6-0.1
			c-2.4,0.1-4.3,0.3-5.6,0.7c-0.1,1.7-0.4,4.4-0.7,8.1c1.5,0.3,3.1,0.6,4.6,1c1.8,0.4,3.3,0.9,4.6,1.5c0.2-0.6,0.3-2.2,0.3-4.8
			c1.7,0.1,3.2,0.2,4.6,0.1c-0.9,2.4-1.6,4.6-2.2,6.7c-0.4,1.4-0.7,3.1-1.1,5.3c-0.5-0.3-1.1-0.6-1.8-1l-1.5-0.8
			c0.2-0.4,0.5-1,0.9-1.8c-2.8-1.5-6.8-2.7-12-3.7c-5.5-1.1-9.9-1.6-13.4-1.6c-0.3-1.5-0.7-3-1.1-4.3c-0.4-1.3-1-2.8-1.8-4.3
			c3.1-1.7,7.7-3.6,14-5.7c3-1,7-2.3,12-3.9c0.7-0.2,1.2-0.8,1.5-1.8C294.3,158.7,294.5,158,294.7,157.2z M277.7,169.9
			c-1.8,0.1-2.6,1.1-2.5,3c0.1,1.4,0.6,2.7,1.6,3.7c1,1.1,2.2,1.7,3.5,1.6c1.7-0.1,2.5-1.3,2.4-3.6
			C282.5,171.4,280.8,169.8,277.7,169.9z"/>
	</g>
</g>
<g id="TEMPORADA">
	<circle class="st4" cx="165.5" cy="176.9" r="143.1"/>
	<g>
		<path class="st3" d="M44.1,192.8c-0.3,0-0.5,0-0.6,0c-3.5-0.2-5.9-1.4-7.4-3.6c-1.1-1.6-1.7-3.9-1.7-6.9c0-0.5,0.1-2.4,0.2-5.8
			c0-0.6,0.1-1.6,0.3-3.1c0.1-1.3,0.2-2.2,0.2-2.9c0-1.3-0.4-2.3-1-3l5,0c0.2,0.3,0.3,0.7,0.3,1.2c0,0.7-0.2,1.6-0.8,2.5
			c5.1-1.5,12.7-2.4,22.6-2.7c0.9,0,1.5-0.3,1.8-0.9c0.1-0.6,0.3-1.3,0.5-2.1c0.2-0.2,0.7-0.4,1.7-0.4c0.6,0,1,0,1.1,0.1
			c-0.4,0.9-0.7,3.1-1.1,6.5c-0.4,3.5-0.6,6.4-0.5,8.6c0.1,2.6,0.2,5.7,0.5,9.4c-1.4-0.5-2.8-1-4.4-1.4c-1.3-0.3-2.6-0.5-3.9-0.8
			c0-0.1-0.1-0.5-0.1-1c-0.1-0.4-0.1-0.8-0.1-1c0-0.2,0.1-0.3,0.2-0.3c1.8-0.1,3.1-0.4,3.9-0.8c1.1-0.6,1.7-2.2,1.6-4.9
			c0-0.2-0.1-1.3-0.2-3.1c-1.8-0.6-4-0.8-6.6-0.8c-0.5,0-1.1,0-1.9,0.1c-0.8,0-1.4,0.1-1.7,0.1c0.1,0.8,0.2,1.5,0.3,2.1
			c0.2,1.4,0.5,2.2,0.7,2.2c0.3,0.1,0.7,0.1,1,0.1c0.6,0,1.1-0.2,1.6-0.5c0.3-0.3,0.7-0.6,1-0.9c0.3,0.5,0.6,0.9,0.9,1.3
			c0.6,1,0.9,1.9,0.9,2.5c-0.5,0.2-1.3,0.3-2.2,0.4c-0.3,0-0.7,0-1.3,0s-1,0-1.3,0c-1,0-2.5,0.3-4.8,0.7c-0.2,0-0.4,0-0.4,0
			c0,0-0.1-0.1,0-0.2c0.1-0.9,0.2-2.4,0.3-4.5c0-1,0.1-2,0.1-2.9c-4.5,0.3-7.6,1.1-9.2,2.5c-1.4,1.2-2.1,3.2-2.1,6
			c0,0.9,0.2,1.7,0.7,2.5c0.4,0.7,0.7,1,1,1c0.1,0,0.2-0.1,0.2-0.3c0-0.2,0-0.4-0.1-0.7c0-0.3-0.1-0.6-0.1-0.8c0-2,0.9-3.4,2.8-4.1
			c0.3-0.1,0.7-0.2,1-0.2c1,0,1.9,0.5,2.7,1.4c0.9,1,1.5,2.5,1.9,4.4c0.1,0.6,0.2,1.1,0.2,1.5C47.7,191.6,46.5,192.8,44.1,192.8z"/>
		<path class="st3" d="M42.5,227.6c-0.3,0-1,0-2.1,0.1c0-0.5,0-2.2,0-5.2c0-2.8,0.1-4.3,0.1-4.7c4,0.2,8.4-0.5,13.2-2.1
			c2-0.6,3.6-1.4,4.9-2.2c1.3-0.8,1.8-1.6,1.6-2.2c-0.2-0.7-1.4-1.4-3.4-1.8c-2.2-0.5-4.5-0.6-6.9-0.3c-1.9,0.6-5.4,2.3-10.7,5.1
			c0.4-2.5,0.3-4.9-0.4-7.1c-0.6-1.7-1.3-2.8-2.3-3.1l4.5-1.6c0.4,0.3,0.6,0.7,0.8,1.3c0.2,0.7,0.3,1.4,0.1,2.2
			c3.8-2.6,9.2-5,16.3-7.3c0.5-0.2,1.2-0.4,2.2-0.6c1-0.3,1.7-0.5,2.1-0.6c0.8-0.3,1.2-0.8,1.2-1.7c0-0.4-0.1-1-0.1-1.8
			c0-0.3,0.5-0.6,1.6-0.9c0.2-0.1,0.5-0.1,0.8-0.2c0.1,1,0.9,5.2,2.5,12.6c-3.4-0.7-7.3-0.4-11.7,1c-0.6,0.2-1.1,0.4-1.5,0.5
			c3-0.3,6-0.1,8.7,0.6c2.2,0.6,4.2,1.4,5.9,2.6c1.4,1,2.2,1.8,2.5,2.6c0.4,1.3-0.3,2.6-2.2,4c-1.7,1.2-4.1,2.3-7.3,3.3
			c-2,0.6-5,1.3-9.1,2c-4.1,0.7-7.1,1.4-9.1,2c-0.9,0.3-1.5,0.6-2,0.9C42.8,225.2,42.7,226.1,42.5,227.6z"/>
		<path class="st3" d="M81.7,265.6c-0.5,0.4-1.3,0.9-2.4,1.4c-2.8,1.2-5.7,1.4-8.5,0.5c-2.5-0.8-4.6-2.2-6.4-4.3
			c-2.4-2.8-3.3-5.8-2.6-8.8c0.6-2.8,2.4-5.4,5.4-7.9c2.4-2,5.3-3.7,8.7-5c2.3-0.9,4.3-1.5,5.9-1.7c-2.2-2-5-3.2-8.3-3.5
			c-0.2,0-0.3-0.1-0.1-0.2c1.2-1.3,3.2-3.3,6-6.1c0.1,0,0.2,0,0.3,0c4.6,6.9,9.8,13.7,15.6,20.6c0.1,0.1,0.1,0.3-0.2,0.4
			c-4.8,2.6-8.5,4.9-11.2,6.8c-0.4-0.7-0.8-1.6-1.3-2.7c-0.2-0.6-0.1-1,0.3-1.3c0.2-0.2,0.7-0.5,1.5-0.9c0.8-0.5,1.4-0.8,1.7-1.1
			c0.5-0.4,0.7-0.8,0.7-1.2c0-2.4-0.3-4.1-0.9-5.1c-4.6,1.4-9,3.9-13.1,7.3c-2.3,1.9-3.9,3.8-5,5.6c-1.1,1.9-1.2,3.4-0.4,4.5
			c0.7,0.8,1.7,1.3,3.3,1.6c1.5,0.2,2.4,0.2,2.9-0.2c0.2-0.2,0.2-0.3,0.1-0.4c-0.8-1.4-1.2-2.8-1.1-4.3c0-1.8,0.7-3.2,1.9-4.2
			c0.7-0.6,1.5-0.7,2.6-0.3c1,0.4,2.1,1.1,3.1,2.4c0.5,0.5,0.9,1.2,1.5,2.1C83.3,262.2,83.3,264.3,81.7,265.6z"/>
		<path class="st3" d="M108.8,285.4c-0.2,0.2-0.3,0.4-0.4,0.5c-2.2,2.7-4.6,4.1-7.2,4c-2,0-4.2-0.9-6.6-2.5
			c-0.4-0.3-1.9-1.4-4.6-3.5c-0.5-0.4-1.3-1-2.4-2c-1-0.8-1.7-1.4-2.2-1.8c-1.1-0.7-2.1-1-3.1-0.9l2.9-4.1c0.4,0,0.8,0.2,1.2,0.4
			c0.6,0.4,1.2,1.1,1.6,2c1.7-5.1,5.3-11.8,10.8-20.1c0.5-0.8,0.6-1.4,0.2-2c-0.4-0.4-0.9-1-1.4-1.6c-0.1-0.3,0.1-0.8,0.6-1.6
			c0.3-0.5,0.6-0.8,0.7-0.9c0.5,0.8,2.1,2.4,4.7,4.7c2.6,2.3,4.9,4.1,6.8,5.4c2.1,1.4,4.8,3.1,8,5c-1.2,0.8-2.4,1.7-3.6,2.8
			c-1,0.9-1.9,1.9-2.9,2.8c-0.1-0.1-0.4-0.2-0.9-0.5c-0.4-0.2-0.7-0.4-0.9-0.5c-0.2-0.1-0.2-0.3-0.1-0.4c1-1.6,1.5-2.8,1.6-3.6
			c0.2-1.3-0.9-2.7-3.1-4.1c-0.2-0.1-1.1-0.7-2.7-1.6c-1.5,1.2-3,2.8-4.4,4.9c-0.3,0.4-0.6,0.9-1,1.6c-0.4,0.7-0.7,1.2-0.9,1.5
			c0.7,0.4,1.4,0.7,1.9,1c1.3,0.6,2,0.9,2.2,0.7c0.3-0.2,0.5-0.5,0.7-0.8c0.3-0.5,0.5-1,0.5-1.6c0-0.4-0.1-0.9-0.1-1.3
			c0.6,0,1.1,0,1.6,0.1c1.2,0.1,2,0.3,2.6,0.7c-0.1,0.6-0.4,1.2-1,2c-0.2,0.2-0.4,0.6-0.8,1s-0.6,0.8-0.7,1
			c-0.5,0.8-1.2,2.2-2.1,4.3c-0.1,0.2-0.2,0.3-0.3,0.4c0,0-0.1,0-0.2-0.1c-0.6-0.6-1.8-1.6-3.5-2.8c-0.8-0.6-1.6-1.2-2.4-1.7
			c-2.3,3.9-3.4,6.9-3.2,9c0.2,1.9,1.4,3.6,3.7,5.1c0.7,0.5,1.5,0.8,2.4,0.8c0.8,0.1,1.2,0,1.4-0.3c0.1-0.1,0-0.2-0.2-0.4
			c-0.2-0.1-0.4-0.2-0.7-0.4c-0.3-0.1-0.5-0.3-0.7-0.4c-1.7-1.1-2.3-2.7-1.7-4.7c0.1-0.3,0.2-0.6,0.4-0.9c0.6-0.8,1.5-1.3,2.8-1.4
			c1.4-0.1,2.9,0.2,4.7,1c0.5,0.2,1,0.5,1.3,0.7C109.9,281.7,110.1,283.4,108.8,285.4z"/>
		<path class="st3" d="M156.9,290.9c-1.2,4.7-4.3,8.8-9.5,12.1l3.9,2.1c0.1,0.6,0.2,1.4,0.3,2.5c-1.1-0.4-2.7-0.8-4.8-1.4
			c-2-0.5-4.2-1-6.4-1.5c1.2-1.3,2.6-3.5,4.4-6.5c2-3.4,3.2-6,3.7-8c0.4-1.5,0.2-2.4-0.5-2.5c-1.2-0.3-2.9,0.9-5.1,3.5
			c-1.9,2.3-3.5,4.8-5,7.6c-0.8,3.3-1.2,5.4-1.2,6.4c0.3,0.3,1,0.9,1.9,1.7c-0.2,0.3-0.5,0.9-1,1.8c-3.2-1.8-6-3.4-8.4-5
			c1.9-2.9,3.4-6.6,4.6-11.3c1.3-5.1,1.2-7.8-0.2-8.1c-0.9-0.2-2,0.6-3.4,2.4c-1.3,1.7-2.4,3.9-3.4,6.6c-0.4,1.6-0.7,4.8-0.9,9.7
			c-1.7-1.6-3.7-2.6-5.9-3.2c-1.9-0.5-3.4-0.4-4.3,0.3l1-4.6c0.4-0.2,0.9-0.2,1.5,0c0.6,0.2,1.3,0.5,2,1.1c0-2.6,0.2-5.8,0.7-9.5
			c0.5-3.5,1.1-6.7,1.8-9.6l0.2-0.8c0.3-1.1,0.1-1.8-0.5-2.1c-0.7-0.2-1.3-0.5-2-0.7c-0.4-0.2-0.3-1.2,0.2-3c0-0.1,0.1-0.1,0.4-0.1
			c1.2,0.3,5.2,1,12,2c-1.9,3.3-3.4,7-4.4,11.1c-0.2,0.8-0.3,1.5-0.4,2c3-5.9,6.7-9.5,11.2-10.9c1-0.3,1.9-0.4,2.5-0.2
			c2.2,0.5,2.6,3.5,1.2,8.8c-0.5,1.9-1.1,4-2,6.2c1-1.5,2.7-3.4,5-5.6c2.6-2.4,5-3.4,7.3-2.8c1.6,0.4,2.7,1.5,3.4,3.3
			C157.4,286.4,157.5,288.5,156.9,290.9z"/>
		<path class="st3" d="M189.4,283.7c0.1,1.5,0,3-0.3,4.7c-1.2,5.5-3.7,8.5-7.6,8.9c-1.6,0.2-3.1-0.1-4.6-0.9c-0.8-0.4-1.8-1.2-3-2.2
			c1.1,4,2.8,8.2,5.1,12.4c-4.1,1.5-8.4,3.1-12.7,4.7c-0.2-0.5-0.3-1-0.3-1.5c-0.1-0.7,0-1.1,0.2-1.2c0.4-0.2,0.9-0.4,1.6-0.8
			c0.7-0.4,1.1-1.1,1-1.9c0-0.1,0-0.2-0.1-0.4c-1.2-5.6-1.9-10.2-2.3-13.6c-0.4-3.6-0.4-7.2-0.2-10.7c-0.6,0.4-1.3,0.6-1.8,0.6
			c-0.7,0.1-1.4-0.1-1.9-0.4l-0.2-4.9c3.1,1.5,6.1,2.1,9,1.9c0.9-0.1,2.4-0.4,4.5-0.8s3.6-0.8,4.7-0.9c2.8-0.3,5.1,0.3,6.6,1.7
			C188.3,279.6,189.1,281.4,189.4,283.7z M185.9,285.1c-0.1-1-0.8-1.7-2.1-2.1c-1.3-0.4-2.9-0.5-4.9-0.3c-2.2,0.2-4.1,0.9-5.8,2.2
			c-1.6,1.2-2.3,2.3-2.2,3.4c0.1,0.7,0.9,1.2,2.4,1.6c1.4,0.4,2.9,0.5,4.4,0.3c2-0.2,3.9-0.8,5.6-1.8
			C185.1,287.2,186,286.1,185.9,285.1z"/>
		<path class="st3" d="M216.8,275.9c0.9,2.3,1.4,5.1,1.7,8.6c0.3,4,0,7.4-0.7,10.2c-1.1,3.9-3,6.4-5.9,7.5c-2.6,1-5.5,0.5-8.6-1.6
			c-3.2-2.2-5.6-5.4-7.3-9.6c-1.5-4-1.8-7.9-0.8-11.7c1.1-4.1,3.5-6.9,7.2-8.4C209.6,268,214.4,269.7,216.8,275.9z M214.8,282.4
			c-0.7-1.7-2-2.8-4-3.4c-1.9-0.6-4-0.5-6.1,0.3c-1.9,0.7-3.5,2.1-4.8,4.1c-1.4,2.1-1.7,4-1.1,5.7c0.8,2,2.3,3.2,4.5,3.9
			c2,0.5,3.8,0.4,5.5-0.2c2.2-0.8,3.9-2.4,5.1-4.6C215.1,286.1,215.4,284.1,214.8,282.4z"/>
		<path class="st3" d="M253.7,261.7c1,1.3,1.7,3,2.1,5c0.5,2.8-0.2,5.4-1.9,7.5c-1.2,1.5-2.3,2.6-3.2,3.3c-2.9,2.3-5.5,2.5-7.7,0.4
			c-0.7-0.6-1.9-1.9-3.5-3.8c-1.2-1.4-2.2-2.3-3-2.7c-1.2-0.6-2.6-0.9-4.2-0.6c0.1,0.3,0.7,1,1.6,2.2c2.4,3,5.4,5.9,9.2,8.9
			l-5.7,4.6c-2.6,2.2-4,3.3-4.1,3.4c0,0-0.1-0.1-0.2-0.2c-0.9-1.1-1.2-1.8-1-2.1c0.4-0.5,0.8-0.9,1.2-1.4c0.3-0.6,0.2-1.2-0.3-1.9
			c-2.8-4-4.9-7.1-6.2-9.2c-2.3-3.8-4.1-7.5-5.5-11.2c-0.1,0.2-0.4,0.4-0.7,0.6c-0.9,0.7-1.8,0.9-2.7,0.8l-2.1-4.2
			c2.5,0.3,4.8,0.1,6.8-0.6c1.7-0.5,3.4-1.5,5.1-2.9c0.7-0.6,1.9-1.6,3.4-3.1s2.5-2.3,2.9-2.6c1.8-1.4,3.6-2,5.3-1.6
			c1.5,0.3,2.8,1.2,4,2.7c1.8,2.2,2.2,4.8,1.4,7.6c-0.8,2.5-2.3,4.7-4.8,6.6c-0.8,0.6-1.7,1.2-2.7,1.8c2.2-1,3.9-1.4,5.2-1.3
			c1,0.1,1.9,0.5,2.6,1.4c0.3,0.3,0.7,1,1.2,1.9c0.5,0.9,1,1.7,1.4,2.1c1,1.3,2.1,1.4,3.2,0.5c0.9-0.7,1.8-1.9,2.5-3.4
			c0.7-1.5,0.9-2.4,0.6-2.7c-0.1-0.1-0.2-0.1-0.4,0c-0.1,0.1-0.4,0.5-1,1.3c-0.5,0.8-1,1.3-1.5,1.7c-1.1,0.9-2.1,1-3.1,0.3
			c-0.1-0.1-0.3-0.2-0.4-0.4c-0.5-0.7-0.8-1.7-0.7-3.1c0.1-1.5,0.5-3.1,1.3-4.7c0.4-0.8,0.8-1.4,1.3-1.8c0.7-0.6,1.6-0.7,2.5-0.5
			C252.5,260.6,253.1,261,253.7,261.7z M240.1,258.7c-0.7-0.9-2.1-1.1-4.2-0.7c-2.1,0.4-3.9,1.2-5.5,2.4c-1.3,1-2.3,2.1-3,3.3
			c-0.7,1.2-0.8,2-0.3,2.6c0.8,1,2.4,1.1,5,0.2c2-0.7,3.7-1.5,4.9-2.5c1.2-1,2.1-1.9,2.7-2.8C240.5,260.1,240.6,259.3,240.1,258.7z"
			/>
		<path class="st3" d="M279.9,233.4c0.5,0.7,1.1,1.8,2.1,3.2c-1,1.4-1.7,2.3-2.1,2.9c-1.3,2-2.4,4.3-3.5,6.9c-1.7-1.4-3.5-2.8-5.3-4
			c-2-1.3-3.7-2.2-5-2.7c-1.1,1.3-2.9,3.4-5.3,6.1c1.1,1.1,2.2,2.3,3.2,3.5c1.2,1.4,2.1,2.7,2.9,3.8c0.5-0.4,1.5-1.7,3-3.7
			c1.3,1.1,2.5,2,3.7,2.8c-2.1,1.4-4,2.8-5.7,4.2c-1.1,0.9-2.4,2.1-4,3.6c-0.2-0.5-0.5-1.1-0.9-1.9l-0.7-1.5c0.4-0.2,1-0.5,1.8-1
			c-1.4-2.8-3.9-6.1-7.6-10c-3.8-4.1-7.1-7.1-10-9.1c0.7-1.4,1.2-2.8,1.6-4.1c0.4-1.3,0.8-2.9,1.1-4.6c3.5,0.4,8.4,1.6,14.7,3.5
			c3,1,7,2.2,12,3.8c0.7,0.2,1.4,0,2.3-0.6C278.8,234.4,279.3,233.9,279.9,233.4z M258.8,233.9c-1.5-1-2.8-0.7-3.8,1
			c-0.8,1.2-1.1,2.5-0.9,4c0.2,1.5,0.8,2.6,1.9,3.3c1.4,0.9,2.8,0.4,4-1.5C261.7,237.8,261.3,235.6,258.8,233.9z"/>
		<path class="st3" d="M284.2,199.1c6.6,2,8.9,6.3,6.9,12.9c-0.3,1-0.8,2.5-1.6,4.3c-0.7,1.8-1.2,3.1-1.5,4c-0.7,2.2-0.7,4,0,5.4
			l-4.9-1.1c-0.4-0.9-0.5-1.8-0.2-2.6c0.2-0.5,0.5-1,1-1.4c-6.1,0-12.8-1.1-20.1-3.3c-0.9-0.3-1.6-0.2-2.2,0.3
			c-0.1,0-0.4,0.6-1.2,1.6c-0.2,0.2-0.9,0-2.4-0.4s-2.2-0.7-2.4-0.9c3.1-1.5,5.3-4.4,6.5-8.7c0.1-0.5,0.3-1.1,0.5-2
			c0.2-0.9,0.3-1.5,0.5-1.9c1.1-3.5,3.3-5.8,6.6-6.8c2.4-0.8,5.8-0.9,10.1-0.3C281.6,198.4,283,198.7,284.2,199.1z M279.7,201.9
			c-2.1-0.6-4-0.4-5.6,0.7c-1.1,0.7-2.3,2-3.6,4c-0.9,1.3-1.6,2.8-2.1,4.5c-0.1,0.3-0.1,0.4-0.1,0.5c1.2,0.6,2.5,1.1,4.1,1.6
			c3.1,1,6,1.5,8.6,1.6c0.8-0.7,1.6-2,2.2-4.1c0.7-2.2,0.7-4,0.2-5.5C282.8,203.6,281.6,202.5,279.7,201.9z"/>
		<path class="st3" d="M292.2,162.5c0.8,0.3,1.9,0.9,3.5,1.6c-0.1,1.7-0.2,2.9-0.2,3.6c0,2.3,0.3,4.9,0.8,7.7
			c-2.2-0.3-4.4-0.4-6.6-0.4c-2.4,0-4.3,0.1-5.6,0.4c-0.2,1.7-0.6,4.4-1.1,8c1.5,0.4,3,0.8,4.6,1.2c1.8,0.5,3.2,1.1,4.5,1.7
			c0.2-0.6,0.4-2.2,0.5-4.8c1.7,0.2,3.2,0.3,4.6,0.3c-1,2.4-1.8,4.6-2.5,6.6c-0.4,1.4-0.9,3.1-1.4,5.2c-0.5-0.3-1.1-0.7-1.8-1.1
			l-1.4-0.8c0.2-0.4,0.5-1,1-1.8c-2.7-1.6-6.6-3-11.8-4.3c-5.4-1.4-9.8-2.1-13.3-2.3c-0.2-1.6-0.5-3-0.8-4.3
			c-0.4-1.4-0.9-2.8-1.5-4.4c3.1-1.5,7.9-3.2,14.2-5c3.1-0.8,7.1-1.9,12.2-3.3c0.7-0.2,1.2-0.8,1.6-1.7
			C291.8,164,292,163.3,292.2,162.5z M274.7,174.3c-1.8,0-2.7,0.9-2.7,2.9c0,1.4,0.5,2.7,1.4,3.8c1,1.2,2.1,1.8,3.4,1.8
			c1.7,0,2.5-1.1,2.6-3.5C279.3,176,277.8,174.4,274.7,174.3z"/>
	</g>
</g>
<g id="PRETEMPORADA" class="st0">
	<circle class="st5" cx="165.5" cy="176.9" r="143.1"/>
	<g class="st2">
		<path class="st3" d="M56.7,180c-1.5-0.1-3-0.5-4.5-1.2c-5.2-2.2-7.6-5.3-7.2-9.2c0.2-1.6,0.7-3,1.8-4.3c0.6-0.7,1.5-1.6,2.8-2.5
			c-4.1,0.3-8.5,1.1-13.2,2.5c-0.7-4.4-1.4-8.8-2.2-13.4c0.5-0.1,1-0.1,1.5,0c0.7,0.1,1,0.2,1.1,0.4c0.1,0.4,0.3,1,0.5,1.7
			c0.3,0.8,0.8,1.3,1.7,1.3c0.1,0,0.2,0,0.4,0c5.8-0.1,10.4,0.1,13.8,0.4c3.6,0.3,7.1,1,10.5,1.8c-0.2-0.7-0.3-1.3-0.3-1.9
			c0.1-0.7,0.3-1.4,0.8-1.8l4.9,0.7c-2.1,2.7-3.3,5.6-3.6,8.5c-0.1,0.9-0.1,2.4,0,4.6c0.1,2.1,0,3.7-0.1,4.8c-0.3,2.9-1.3,4.9-3,6.2
			C60.9,179.7,59,180.2,56.7,180z M56,176.3c1,0.1,1.8-0.5,2.5-1.7c0.7-1.2,1.1-2.7,1.3-4.7c0.2-2.2-0.1-4.2-1-6.1
			c-0.8-1.8-1.8-2.7-2.9-2.8c-0.7-0.1-1.4,0.6-2.1,2.1c-0.6,1.3-1,2.7-1.1,4.2c-0.2,2,0,3.9,0.7,5.8C54.1,175.2,55,176.2,56,176.3z"
			/>
		<path class="st3" d="M51,218.5c-1.6,0.4-3.4,0.2-5.4-0.4c-2.8-0.9-4.7-2.6-5.9-5.1c-0.8-1.7-1.3-3.2-1.6-4.4
			c-0.8-3.6,0.2-6,3.1-7.1c0.9-0.3,2.6-0.8,5-1.5c1.7-0.5,3-1,3.8-1.5c1.1-0.8,1.9-1.9,2.4-3.5c-0.3,0-1.2,0.1-2.7,0.4
			c-3.7,0.8-7.7,2.2-12,4.3l-1.6-7.2c-0.8-3.3-1.2-5-1.2-5.1c0.1,0,0.1-0.1,0.2-0.1c1.4-0.3,2.2-0.3,2.3,0.1
			c0.2,0.6,0.5,1.1,0.7,1.7c0.4,0.5,1,0.7,1.9,0.6c4.8-0.8,8.5-1.3,11-1.5c4.4-0.4,8.6-0.3,12.5,0.1c-0.1-0.2-0.2-0.5-0.3-0.9
			c-0.2-1.1-0.1-2,0.5-2.8l4.7,0c-1.4,2.2-2.2,4.3-2.5,6.3c-0.3,1.7-0.2,3.7,0.3,5.8c0.2,0.9,0.6,2.4,1.2,4.4c0.6,2,1,3.3,1.1,3.8
			c0.5,2.3,0.2,4.1-0.9,5.5c-0.9,1.2-2.3,2-4.2,2.4c-2.8,0.6-5.3-0.1-7.4-2.1c-1.9-1.8-3.2-4.2-3.8-7.2c-0.2-1-0.4-2.1-0.5-3.2
			c-0.1,2.4-0.5,4.2-1.1,5.3c-0.5,0.9-1.3,1.5-2.4,1.7c-0.4,0.1-1.2,0.2-2.3,0.2c-1.1,0.1-1.9,0.2-2.5,0.3c-1.6,0.3-2.2,1.2-1.9,2.7
			c0.2,1.2,0.9,2.4,1.9,3.7c1,1.3,1.7,1.9,2.2,1.8c0.2,0,0.2-0.2,0.2-0.4c0-0.1-0.3-0.6-0.7-1.4c-0.4-0.8-0.7-1.5-0.8-2
			c-0.3-1.4,0.1-2.3,1.1-2.9c0.1-0.1,0.3-0.1,0.5-0.2c0.9-0.2,1.9,0.1,3.1,0.7c1.3,0.7,2.5,1.8,3.6,3.2c0.5,0.7,0.9,1.3,1,2
			c0.2,0.9,0,1.7-0.7,2.5C52.5,217.9,51.8,218.3,51,218.5z M59.6,207.7c1.1-0.2,1.9-1.4,2.5-3.4s0.7-4,0.3-6c-0.4-1.6-0.9-3-1.7-4.1
			c-0.8-1.1-1.5-1.6-2.2-1.4c-1.2,0.3-2,1.7-2.4,4.4c-0.3,2.1-0.3,4,0.1,5.5c0.3,1.5,0.8,2.7,1.3,3.7
			C58.2,207.3,58.9,207.8,59.6,207.7z"/>
		<path class="st3" d="M67.2,248.8c-0.2,0.1-0.4,0.2-0.6,0.3c-3.2,1.5-5.9,1.6-8.2,0.4c-1.7-0.9-3.4-2.6-4.8-5.2
			c-0.2-0.4-1.1-2.1-2.6-5.2c-0.3-0.5-0.7-1.5-1.2-2.9c-0.5-1.2-0.9-2-1.2-2.6c-0.7-1.1-1.4-1.9-2.3-2.2l4.4-2.4
			c0.3,0.2,0.6,0.5,0.9,0.9c0.4,0.6,0.5,1.5,0.5,2.5c3.8-3.8,9.9-8.2,18.5-13.2c0.8-0.5,1.1-1,1.1-1.7c-0.2-0.6-0.4-1.3-0.6-2.1
			c0-0.3,0.4-0.7,1.3-1.1c0.5-0.3,0.8-0.4,1-0.5c0.1,1,0.8,3.1,2.2,6.3c1.3,3.2,2.6,5.8,3.7,7.8c1.3,2.2,2.9,4.9,4.9,8
			c-1.4,0.2-3,0.5-4.5,0.9c-1.3,0.4-2.6,0.8-3.8,1.2c-0.1-0.1-0.3-0.4-0.6-0.8c-0.3-0.3-0.5-0.6-0.6-0.8c-0.1-0.2-0.1-0.3,0-0.4
			c1.6-1,2.6-1.9,3-2.6c0.7-1.1,0.4-2.8-0.9-5.1c-0.1-0.2-0.7-1.1-1.7-2.6c-1.9,0.4-3.9,1.2-6.1,2.5c-0.4,0.2-1,0.6-1.7,1
			c-0.7,0.4-1.2,0.7-1.5,0.9c0.5,0.7,0.9,1.2,1.3,1.7c0.9,1.1,1.4,1.7,1.6,1.6c0.3-0.1,0.7-0.2,1-0.4c0.5-0.3,0.9-0.7,1.2-1.2
			c0.2-0.4,0.3-0.8,0.5-1.3c0.5,0.3,1,0.5,1.4,0.8c1,0.6,1.7,1.2,2,1.8c-0.4,0.4-0.9,0.9-1.8,1.4c-0.2,0.1-0.6,0.3-1.1,0.6
			c-0.5,0.3-0.9,0.5-1.1,0.6c-0.8,0.5-2.1,1.5-3.8,2.9c-0.2,0.2-0.3,0.2-0.4,0.2c0,0-0.1-0.1-0.1-0.1c-0.3-0.8-0.9-2.2-1.9-4.1
			c-0.4-0.9-0.9-1.7-1.3-2.6c-3.8,2.4-6.1,4.6-6.9,6.6c-0.7,1.8-0.3,3.8,1,6.2c0.4,0.8,1,1.4,1.8,1.8c0.7,0.4,1.1,0.5,1.4,0.4
			c0.1-0.1,0.1-0.2,0-0.4c-0.1-0.2-0.2-0.4-0.4-0.6c-0.2-0.3-0.3-0.5-0.4-0.7c-1-1.8-0.8-3.4,0.5-4.9c0.2-0.3,0.5-0.5,0.8-0.6
			c0.9-0.5,1.9-0.5,3.1-0.1c1.3,0.5,2.5,1.5,3.8,3c0.4,0.4,0.7,0.9,0.9,1.2C69.8,246,69.3,247.6,67.2,248.8z"/>
		<path class="st3" d="M91.8,273.4c-0.5,0.5-1.2,1-2.3,1.6c-2.7,1.5-5.5,2-8.4,1.4c-2.6-0.5-4.8-1.7-6.8-3.6
			c-2.7-2.6-3.8-5.4-3.5-8.5c0.3-2.8,1.8-5.6,4.5-8.4c2.2-2.2,4.9-4.2,8.1-5.8c2.2-1.1,4.1-1.9,5.7-2.3c-2.4-1.8-5.3-2.6-8.6-2.6
			c-0.2,0-0.3,0-0.2-0.2c1.1-1.4,2.8-3.7,5.3-6.7c0.1,0,0.2-0.1,0.3,0c5.3,6.3,11.2,12.6,17.6,18.8c0.1,0.1,0.1,0.3-0.1,0.4
			c-4.5,3.1-8,5.7-10.4,7.9c-0.4-0.6-1-1.5-1.6-2.5c-0.2-0.6-0.2-1,0.1-1.4c0.2-0.2,0.6-0.6,1.4-1.1c0.7-0.5,1.3-1,1.6-1.3
			c0.4-0.5,0.6-0.9,0.6-1.3c-0.3-2.4-0.7-4-1.4-4.9c-4.4,1.9-8.5,4.8-12.3,8.7c-2.1,2.2-3.5,4.2-4.3,6.1c-0.9,2-0.9,3.5,0.1,4.5
			c0.7,0.7,1.9,1.1,3.4,1.2c1.5,0.1,2.4-0.1,2.8-0.5c0.2-0.2,0.2-0.3,0.1-0.4c-0.9-1.3-1.5-2.7-1.6-4.2c-0.2-1.8,0.3-3.2,1.5-4.4
			c0.6-0.6,1.5-0.8,2.5-0.6c1.1,0.2,2.2,0.9,3.4,2c0.5,0.5,1.1,1.1,1.7,1.9C93,269.7,93.3,271.8,91.8,273.4z"/>
		<path class="st3" d="M120.6,290.1c-0.1,0.3-0.2,0.4-0.3,0.5c-1.9,2.9-4.1,4.5-6.7,4.7c-1.9,0.2-4.2-0.4-6.8-1.8
			c-0.4-0.2-2.1-1.2-4.9-3c-0.5-0.3-1.4-0.9-2.6-1.8c-1-0.7-1.8-1.3-2.4-1.6c-1.2-0.6-2.2-0.8-3.1-0.6l2.4-4.4
			c0.4,0,0.8,0.1,1.2,0.3c0.7,0.3,1.3,1,1.8,1.9c1.2-5.2,4-12.2,8.6-21.1c0.4-0.8,0.4-1.5,0-2c-0.5-0.4-1-0.9-1.6-1.5
			c-0.1-0.2,0-0.8,0.5-1.6c0.3-0.5,0.5-0.8,0.6-0.9c0.6,0.8,2.3,2.2,5.2,4.2c2.9,2,5.3,3.6,7.3,4.6c2.3,1.2,5.1,2.6,8.4,4.1
			c-1.1,0.9-2.2,2-3.3,3.2c-0.9,1-1.7,2-2.6,3.1c-0.1-0.1-0.5-0.2-1-0.4c-0.4-0.1-0.7-0.3-1-0.4c-0.2-0.1-0.2-0.2-0.2-0.4
			c0.8-1.7,1.2-2.9,1.2-3.8c0-1.3-1.2-2.6-3.5-3.8c-0.2-0.1-1.1-0.5-2.8-1.3c-1.4,1.3-2.7,3.1-3.9,5.4c-0.2,0.4-0.5,1-0.9,1.7
			c-0.4,0.7-0.6,1.3-0.8,1.6c0.8,0.3,1.4,0.6,2,0.8c1.4,0.5,2.1,0.7,2.3,0.5c0.2-0.3,0.4-0.5,0.6-0.9c0.3-0.5,0.4-1.1,0.3-1.7
			c-0.1-0.4-0.2-0.9-0.3-1.3c0.6-0.1,1.1-0.1,1.6-0.1c1.2,0,2,0.1,2.6,0.4c-0.1,0.6-0.3,1.3-0.8,2.1c-0.1,0.3-0.3,0.6-0.6,1.1
			c-0.3,0.5-0.5,0.9-0.6,1.1c-0.4,0.8-1,2.4-1.7,4.5c-0.1,0.2-0.1,0.4-0.2,0.4c0,0-0.1,0-0.2-0.1c-0.7-0.5-2-1.4-3.8-2.5
			c-0.8-0.5-1.7-1-2.5-1.5c-1.9,4.1-2.7,7.2-2.3,9.3c0.4,1.9,1.8,3.4,4.2,4.7c0.8,0.4,1.6,0.6,2.5,0.6c0.8,0,1.2-0.2,1.4-0.4
			c0.1-0.1,0-0.2-0.2-0.3c-0.2-0.1-0.4-0.2-0.7-0.3c-0.3-0.1-0.5-0.2-0.7-0.3c-1.8-0.9-2.5-2.4-2.2-4.5c0.1-0.3,0.2-0.7,0.3-1
			c0.5-0.9,1.3-1.5,2.6-1.7c1.3-0.3,2.9-0.1,4.8,0.5c0.6,0.2,1,0.4,1.4,0.6C121.3,286.4,121.7,288,120.6,290.1z"/>
		<path class="st3" d="M168.8,290.5c-0.7,4.8-3.4,9.2-8.2,13l4.1,1.7c0.1,0.5,0.3,1.4,0.6,2.4c-1.1-0.3-2.8-0.6-5-0.9
			c-2.1-0.3-4.2-0.6-6.6-0.8c1-1.4,2.3-3.7,3.7-7c1.6-3.6,2.5-6.3,2.8-8.3c0.2-1.5,0-2.4-0.8-2.5c-1.2-0.2-2.7,1.2-4.7,4
			c-1.6,2.4-3,5.1-4.1,8.1c-0.5,3.4-0.6,5.5-0.5,6.4c0.4,0.3,1.1,0.8,2.1,1.5c-0.2,0.3-0.4,1-0.8,1.9c-3.4-1.4-6.4-2.8-8.9-4.1
			c1.6-3,2.7-7,3.4-11.8c0.7-5.2,0.4-7.9-1-8c-0.9-0.1-2,0.8-3.1,2.7c-1.1,1.9-2,4.2-2.7,6.9c-0.2,1.6-0.2,4.9,0.1,9.8
			c-1.9-1.4-3.9-2.2-6.2-2.6c-2-0.3-3.4,0-4.3,0.8l0.5-4.6c0.4-0.2,0.9-0.3,1.5-0.2c0.6,0.1,1.3,0.4,2.1,0.9
			c-0.3-2.6-0.4-5.8-0.3-9.5c0.1-3.6,0.3-6.8,0.8-9.7l0.1-0.8c0.2-1.1-0.1-1.8-0.8-2.1c-0.7-0.2-1.4-0.3-2-0.5
			c-0.4-0.1-0.4-1.1-0.2-3c0-0.1,0.1-0.1,0.3-0.1c1.2,0.2,5.2,0.4,12.1,0.7c-1.5,3.5-2.6,7.3-3.2,11.5c-0.1,0.8-0.2,1.5-0.2,2.1
			c2.3-6.2,5.6-10.2,10-12c1-0.4,1.8-0.6,2.5-0.5c2.2,0.3,2.9,3.2,2.1,8.7c-0.3,2-0.7,4.1-1.3,6.4c0.8-1.6,2.3-3.6,4.4-6
			c2.3-2.7,4.6-3.9,6.9-3.6c1.6,0.2,2.9,1.2,3.8,2.9C168.9,286,169.2,288.1,168.8,290.5z"/>
		<path class="st3" d="M200.2,280c0.3,1.4,0.4,3,0.2,4.7c-0.6,5.6-2.8,8.8-6.6,9.6c-1.6,0.3-3.1,0.2-4.7-0.4c-0.9-0.4-1.9-1-3.3-1.9
			c1.5,3.9,3.6,7.8,6.3,11.8c-4,1.9-8,3.9-12.1,6c-0.2-0.4-0.4-0.9-0.5-1.5c-0.1-0.7-0.1-1.1,0.1-1.2c0.3-0.2,0.8-0.5,1.5-1
			c0.7-0.5,1-1.2,0.8-2c0-0.1-0.1-0.2-0.1-0.4c-1.7-5.5-3-9.9-3.7-13.3c-0.7-3.6-1.2-7.1-1.3-10.6c-0.6,0.4-1.2,0.7-1.8,0.8
			c-0.7,0.2-1.4,0.1-2-0.2l-0.7-4.9c3.2,1.2,6.3,1.5,9.2,0.9c0.9-0.2,2.4-0.6,4.4-1.3c2-0.7,3.5-1.1,4.6-1.3c2.8-0.6,5.1-0.2,6.8,1
			C198.7,276.1,199.7,277.7,200.2,280z M196.9,281.7c-0.2-1-1-1.6-2.3-1.9c-1.3-0.3-2.9-0.3-4.9,0.2c-2.2,0.4-4,1.4-5.5,2.7
			c-1.5,1.3-2.1,2.5-1.9,3.6c0.1,0.7,1,1.1,2.6,1.4c1.5,0.2,2.9,0.2,4.4-0.1c2-0.4,3.7-1.2,5.4-2.4
			C196.4,283.9,197.1,282.7,196.9,281.7z"/>
		<path class="st3" d="M226.4,269.4c1.1,2.2,2,4.9,2.6,8.3c0.7,3.9,0.8,7.3,0.3,10.2c-0.6,4-2.3,6.6-5.1,8c-2.5,1.3-5.4,1-8.7-0.7
			c-3.4-1.8-6.2-4.8-8.2-8.8c-2-3.8-2.6-7.7-2-11.5c0.7-4.2,2.8-7.3,6.3-9.1C218.5,262.4,223.4,263.5,226.4,269.4z M225.1,276.2
			c-0.8-1.6-2.3-2.6-4.3-3c-2-0.4-4-0.1-6,1c-1.8,0.9-3.3,2.5-4.3,4.6c-1.1,2.3-1.3,4.2-0.5,5.8c1,1.9,2.6,3,4.9,3.4
			c2,0.3,3.8,0,5.5-0.8c2.1-1.1,3.6-2.8,4.6-5.1C225.9,279.8,225.9,277.8,225.1,276.2z"/>
		<path class="st3" d="M261.5,251.6c1.2,1.2,2,2.8,2.6,4.8c0.8,2.8,0.4,5.3-1.2,7.7c-1,1.6-2,2.8-2.9,3.7c-2.7,2.6-5.2,3-7.6,1.2
			c-0.8-0.6-2.1-1.7-3.9-3.5c-1.3-1.2-2.4-2-3.3-2.4c-1.2-0.5-2.7-0.6-4.3-0.2c0.2,0.3,0.8,1,1.8,2c2.7,2.7,6,5.3,10.1,7.9l-5.2,5.2
			c-2.4,2.4-3.6,3.7-3.7,3.8c-0.1,0-0.1-0.1-0.2-0.1c-1-1-1.4-1.7-1.2-2c0.4-0.5,0.7-1,1.1-1.5c0.3-0.6,0.1-1.2-0.5-1.9
			c-3.2-3.7-5.6-6.5-7.2-8.5c-2.7-3.5-4.9-7.1-6.6-10.6c-0.1,0.2-0.3,0.4-0.6,0.7c-0.8,0.8-1.7,1.1-2.7,1l-2.5-4
			c2.6,0,4.8-0.4,6.7-1.3c1.6-0.7,3.2-1.8,4.7-3.4c0.7-0.7,1.7-1.8,3.1-3.4c1.4-1.6,2.3-2.6,2.6-2.9c1.6-1.6,3.4-2.3,5.1-2.2
			c1.5,0.1,2.9,0.9,4.3,2.2c2,2,2.7,4.5,2.2,7.4c-0.5,2.5-1.8,4.9-4.1,7.1c-0.7,0.7-1.6,1.4-2.5,2.1c2.1-1.2,3.8-1.8,5.1-1.9
			c1.1,0,2,0.3,2.7,1.1c0.3,0.3,0.8,0.9,1.4,1.8c0.6,0.9,1.2,1.5,1.6,2c1.1,1.1,2.2,1.2,3.3,0.1c0.8-0.8,1.5-2,2.1-3.6
			c0.5-1.5,0.6-2.4,0.3-2.8c-0.1-0.1-0.3-0.1-0.4,0c-0.1,0.1-0.4,0.6-0.8,1.4s-0.9,1.4-1.3,1.8c-1,1-2,1.2-3.1,0.6
			c-0.1-0.1-0.3-0.2-0.4-0.3c-0.6-0.6-1-1.6-1-3c-0.1-1.5,0.1-3.1,0.8-4.8c0.3-0.8,0.7-1.5,1.1-1.9c0.7-0.7,1.5-0.9,2.5-0.7
			C260.2,250.6,260.9,251,261.5,251.6z M247.7,250c-0.8-0.8-2.2-0.9-4.2-0.3c-2,0.6-3.8,1.6-5.2,3c-1.2,1.2-2.1,2.4-2.6,3.6
			c-0.5,1.2-0.5,2.1,0,2.6c0.9,0.9,2.5,0.8,5-0.3c2-0.9,3.5-1.9,4.6-3c1.1-1.1,1.9-2.1,2.4-3.1C248.2,251.4,248.2,250.6,247.7,250z"
			/>
		<path class="st3" d="M284.6,221c0.5,0.6,1.3,1.6,2.4,3c-0.9,1.5-1.5,2.5-1.8,3.1c-1.1,2.1-2,4.5-2.7,7.2c-1.9-1.3-3.8-2.4-5.7-3.4
			c-2.1-1.1-3.9-1.8-5.2-2.2c-1,1.4-2.5,3.6-4.6,6.6c1.2,1,2.4,2.1,3.5,3.2c1.3,1.3,2.4,2.4,3.2,3.5c0.4-0.5,1.3-1.8,2.6-4
			c1.4,0.9,2.7,1.7,4,2.4c-2,1.6-3.7,3.2-5.2,4.8c-1,1-2.2,2.4-3.6,4c-0.3-0.5-0.7-1.1-1.1-1.8l-0.9-1.4c0.3-0.2,0.9-0.6,1.7-1.1
			c-1.7-2.6-4.5-5.7-8.5-9.2c-4.2-3.7-7.8-6.3-10.8-8c0.5-1.5,0.9-2.9,1.2-4.2c0.3-1.4,0.5-2.9,0.6-4.6c3.5,0.1,8.5,0.7,14.9,2
			c3.1,0.7,7.2,1.5,12.3,2.6c0.7,0.1,1.4-0.1,2.2-0.8C283.5,222.1,284,221.6,284.6,221z M263.6,223.6c-1.6-0.8-2.8-0.4-3.7,1.4
			c-0.6,1.2-0.8,2.6-0.5,4c0.3,1.5,1.1,2.5,2.2,3.1c1.5,0.8,2.8,0.1,3.9-1.9C266.9,227.2,266.3,225,263.6,223.6z"/>
		<path class="st3" d="M285.2,186.5c6.8,1.3,9.5,5.4,8.2,12.1c-0.2,1.1-0.6,2.5-1.1,4.4c-0.5,1.9-0.9,3.3-1,4.1
			c-0.4,2.3-0.3,4.1,0.5,5.4l-5-0.6c-0.5-0.9-0.6-1.7-0.5-2.5c0.1-0.6,0.4-1.1,0.8-1.5c-6,0.6-12.8,0.2-20.4-1.2
			c-0.9-0.2-1.7,0-2.1,0.5c0,0.1-0.4,0.6-1,1.7c-0.1,0.2-0.9,0.1-2.4-0.1c-1.4-0.3-2.3-0.5-2.5-0.6c2.9-1.8,4.8-4.9,5.6-9.3
			c0.1-0.5,0.2-1.1,0.3-2c0.1-0.9,0.2-1.5,0.3-1.9c0.7-3.6,2.6-6.1,5.8-7.4c2.4-1,5.7-1.5,10-1.4C282.5,186.1,284,186.3,285.2,186.5
			z M281.1,189.8c-2.2-0.4-4,0-5.5,1.3c-1,0.8-2,2.3-3.1,4.3c-0.7,1.4-1.3,2.9-1.6,4.7c-0.1,0.3-0.1,0.4-0.1,0.5
			c1.2,0.5,2.6,0.9,4.2,1.2c3.2,0.6,6.1,0.8,8.7,0.6c0.8-0.8,1.4-2.2,1.8-4.3c0.4-2.2,0.3-4-0.4-5.5
			C284.3,191.1,283,190.2,281.1,189.8z"/>
		<path class="st3" d="M289.4,149.5c0.8,0.3,2,0.7,3.6,1.2c0.1,1.7,0.1,2.9,0.2,3.6c0.2,2.3,0.8,4.9,1.6,7.6c-2.3,0-4.5,0-6.6,0.3
			c-2.4,0.2-4.3,0.6-5.6,1c0,1.7-0.1,4.4-0.3,8.1c1.5,0.2,3.1,0.4,4.7,0.7c1.8,0.3,3.3,0.7,4.6,1.2c0.1-0.6,0.1-2.2,0-4.8
			c1.7,0,3.2,0,4.6-0.2c-0.8,2.4-1.4,4.7-1.8,6.8c-0.3,1.4-0.6,3.2-0.9,5.4c-0.5-0.2-1.1-0.5-1.9-0.9l-1.5-0.7
			c0.2-0.4,0.4-1,0.8-1.9c-2.8-1.3-6.9-2.3-12.1-3.1c-5.5-0.8-10-1.1-13.5-0.9c-0.4-1.5-0.8-2.9-1.3-4.2c-0.5-1.3-1.2-2.7-2-4.2
			c3-1.8,7.5-4,13.6-6.4c3-1.1,6.9-2.6,11.8-4.5c0.7-0.3,1.1-0.9,1.4-1.9C289.1,151,289.2,150.3,289.4,149.5z M273.1,163.1
			c-1.8,0.2-2.6,1.2-2.4,3.2c0.1,1.4,0.7,2.6,1.8,3.7c1.1,1.1,2.3,1.6,3.5,1.4c1.7-0.2,2.4-1.4,2.2-3.7
			C277.9,164.3,276.2,162.8,273.1,163.1z"/>
	</g>
</g>
<g id="Verdura" class="st0">
	<path id="SVGID_x5F_1_x5F_" class="st6" d="M280.8,181.1c-3,64.3-57.5,114-121.8,111s-114-57.5-111-121.8
		c3-64.3,57.5-114,121.8-111C234.2,62.2,283.8,116.8,280.8,181.1z"/>
	<text class="st2">	<textPath  xlink:href="#SVGID_x5F_1_x5F_" startOffset="75.651%">
<tspan  style="font-family:'Ravie'; font-size:44px; letter-spacing:250;">VERDURA</tspan>	</textPath>
</text>
</g>
<g id="Fruta">
	<g>
		<path class="st3" d="M101.7,69.6c1.2,1.6,1.8,2.9,1.8,4c0,1.1-0.5,2-1.6,2.9c-1.5,1.1-3.3,1.8-5.4,2.1c-2.4,0.3-4-0.2-5-1.5
			c-0.7-1-1-2.2-0.7-3.5c0.3-1.3,1-2.3,2.1-3.2c1.4-1,2.9-1.5,4.5-1.5c0.2,0,0.3,0,0.3,0c0.1-0.1,0.1-0.1,0-0.3
			c-0.4-0.6-1.3-0.8-2.6-0.9c-1.8-0.1-3.5,0.6-5.3,1.9c-0.7,0.5-1.2,1-1.6,1.4c-2.1,2.1-1.7,5.2,1.3,9.2c1.2,1.5,2.6,3.1,4.3,4.8
			c1.6-1,3.1-2,4.6-3.1c0.4-0.3,0.9-0.7,1.6-1.3s1.1-0.9,1.2-1c0.2-0.1,0.4-0.1,0.5,0.2c0.4,0.6,0.8,1.3,1.3,1.9
			c1,1.4,2.2,2.8,3.5,4.1c-0.2,0.2-0.6,0.6-1.2,1.3c-0.6,0.7-1,1.1-1.3,1.3c-0.4,0.3-0.7,0.4-0.9,0.3c-0.2-0.1-0.8-0.6-1.7-1.6
			c-0.8-0.9-1.4-1.2-2-1c-0.3,0.1-1.3,0.6-3.1,1.5c4.6,4,8.2,6.9,11,8.6c-3,3.6-6.1,7.5-9.2,11.5c-0.5-0.5-0.9-0.9-1.2-1.3
			c-0.3-0.4-0.5-0.7-0.5-0.9c0-0.2,0-0.5,0.3-0.8c1.1-1.4,1.3-2.5,0.7-3.3c0.2,0.3-1-1-3.7-4.1c-2.7-3.1-5-5.8-6.9-8.4
			c-2.6-3.5-4.9-7-6.6-10.4c-0.4,0.7-0.9,1.3-1.5,1.7c-0.6,0.4-1.2,0.7-1.7,0.7l-3-4.5c1.8,0.3,4.8-1.1,9-4.3
			c4.2-3.2,7.7-6.3,10.4-9.4c0.1-0.1,0.2-0.1,0.3,0C96.8,64.1,99.4,66.5,101.7,69.6z"/>
		<path class="st3" d="M147.2,66.6c0.6,1.7,0.7,3.7,0.3,6c-0.6,3.1-2.2,5.5-4.8,7.1c-1.8,1.1-3.3,1.8-4.6,2.3
			c-3.9,1.3-6.6,0.5-8.1-2.5c-0.5-0.9-1.2-2.7-2.2-5.3c-0.7-1.8-1.4-3.2-2.1-3.9c-1-1.1-2.3-1.9-4.1-2.2c0,0.4,0.3,1.3,0.8,2.9
			c1.3,3.9,3.4,8.2,6.2,12.6l-7.7,2.7c-3.5,1.2-5.4,1.9-5.5,2c0-0.1-0.1-0.1-0.1-0.2c-0.5-1.5-0.6-2.4-0.2-2.6
			c0.6-0.3,1.2-0.6,1.8-1c0.5-0.5,0.7-1.2,0.4-2.1c-1.4-5.2-2.5-9.2-3-11.9c-1-4.8-1.5-9.3-1.5-13.7c-0.2,0.1-0.5,0.3-0.9,0.4
			c-1.2,0.4-2.2,0.3-3.1-0.2l-0.6-5.2c2.5,1.2,5,1.9,7.3,1.9c1.9,0.1,4-0.3,6.3-1.1c1-0.3,2.5-1,4.7-1.9c2.2-0.9,3.5-1.5,4-1.7
			c2.4-0.8,4.4-0.7,6.1,0.3c1.4,0.9,2.5,2.3,3.2,4.3c1,3,0.5,5.8-1.4,8.4c-1.7,2.3-4.2,4-7.4,5.1c-1.1,0.4-2.2,0.7-3.5,0.9
			c2.6-0.2,4.6,0,5.9,0.6c1.1,0.5,1.8,1.3,2.2,2.4c0.2,0.5,0.3,1.3,0.5,2.5c0.2,1.2,0.4,2.1,0.6,2.7c0.6,1.7,1.6,2.2,3.2,1.7
			c1.2-0.4,2.5-1.3,3.8-2.6c1.3-1.2,1.8-2.1,1.6-2.6c-0.1-0.2-0.2-0.2-0.4-0.1c-0.2,0.1-0.6,0.4-1.5,0.9c-0.8,0.6-1.5,1-2.1,1.2
			c-1.5,0.5-2.6,0.2-3.4-0.8c-0.1-0.1-0.2-0.3-0.3-0.5c-0.3-0.9-0.2-2.1,0.4-3.4c0.6-1.5,1.6-3,3-4.4c0.7-0.7,1.4-1.1,2-1.3
			c1-0.3,1.9-0.2,2.8,0.5C146.4,65,146.9,65.7,147.2,66.6z M134.3,58.5c-0.4-1.1-1.7-1.9-4-2.3c-2.3-0.4-4.5-0.3-6.6,0.5
			c-1.7,0.6-3.2,1.4-4.3,2.3c-1.1,1-1.5,1.8-1.3,2.6c0.4,1.3,2.1,2,5.1,2.1c2.4,0,4.4-0.2,6-0.8c1.6-0.5,2.9-1.2,3.9-1.9
			C134.1,60.1,134.5,59.2,134.3,58.5z"/>
		<path class="st3" d="M180.6,44.6c0,0.7,0,1.5-0.1,2.2c-0.3,0-0.7-0.1-1.3-0.2c-0.5-0.1-0.9-0.2-1.1-0.2c-0.5,0-0.7,0.2-0.7,0.7
			c-0.3,6.9-0.4,10.5-0.4,10.7c-0.2,4.3-0.6,8.4-1.2,12.1c0.9-0.6,1.8-1,2.8-1c0.6,0,1.1,0.1,1.6,0.3l0.3,4.2c-0.1,0-0.3,0-0.5,0
			c-0.2,0-0.4,0-0.5,0c-1.7,0-3.8,0.5-6.1,1.5c-2.1,0.9-3.9,1.9-5.3,3.1c-0.2,0.2-0.4,0.3-0.6,0.2c-0.1,0-0.2-0.2-0.2-0.3
			c0.7-4.4,1-7.3,1-8.8c-1.7,2.9-3.7,5-6,6.5c-1.8,1.1-3.5,1.7-5.1,1.7c-1.9,0-3.3-0.7-4.4-2.1c-1.2-1.5-1.8-3.5-1.8-6.1
			c0-4.2,1.1-8.3,3.2-12.5c1.4-2.7,3-5.1,4.9-7.3c-2.4,0.1-4.7,0.2-7,0.5c-0.1,0-0.2-0.1-0.2-0.2c0.6-1.6,1.1-2.7,1.3-3.5
			c0-0.1,0.1-0.2,0.2-0.2c2.9,0.2,5.3,0.3,7.2,0.3c1.8,0,3.9,0,6.2-0.1c-2,3.3-3.6,6.8-4.9,10.6c-1.3,3.9-2,7.1-2,9.7
			c0,1.4,0.2,2.5,0.7,3.4c0.5,0.9,1.1,1.3,2,1.3c1.2,0,2.5-1.4,3.7-4.3c1.4-3,2.4-6.9,3.1-11.7c0.6-4,0.9-8,0.9-11.9
			c0-0.2,0-0.5,0-0.9c0-0.4,0-0.6,0-0.6c0-0.3,0.2-0.4,0.5-0.3C173.3,42.2,176.4,43.3,180.6,44.6z"/>
		<path class="st3" d="M213.1,76.1c-0.2,0.7-0.7,1.6-1.4,2.7c-1.9,2.8-4.4,4.7-7.6,5.5c-2.8,0.8-5.6,0.7-8.5-0.2
			c-3.9-1.2-6.4-3.5-7.6-6.7c-1.1-2.9-1-6.4,0.3-10.5c1-3.3,2.7-6.5,5.1-9.7c1.6-2.2,3.1-3.9,4.5-5c-3.3-0.5-6.5,0-9.8,1.7
			c-0.2,0.1-0.3,0.1-0.2-0.1c0.3-1.9,1-5,1.9-9.2c0-0.1,0.1-0.1,0.3-0.1c8.4,3.6,17.2,6.9,26.6,9.9c0.2,0.1,0.2,0.2,0.1,0.5
			c-2.9,5.3-5,9.6-6.4,12.9c-0.7-0.4-1.7-1-2.8-1.7c-0.5-0.4-0.7-0.9-0.5-1.4c0.1-0.3,0.4-0.9,0.8-1.8c0.5-0.9,0.8-1.6,0.9-2
			c0.2-0.7,0.2-1.2-0.1-1.6c-1.5-2.2-2.7-3.6-3.8-4.2c-3.4,4-6.1,8.9-7.8,14.5c-1,3.1-1.4,5.8-1.3,8.1c0.1,2.5,0.9,3.9,2.3,4.4
			c1.1,0.3,2.4,0.2,4-0.5c1.5-0.6,2.3-1.2,2.5-1.9c0.1-0.2,0.1-0.4-0.1-0.4c-1.6-0.8-2.8-2-3.6-3.4c-1-1.7-1.3-3.4-0.7-5.1
			c0.3-0.9,1-1.5,2.2-1.8c1.2-0.3,2.6-0.2,4.3,0.4c0.8,0.2,1.6,0.6,2.6,1.1C212.6,71.9,213.8,73.8,213.1,76.1z"/>
		<path class="st3" d="M239.5,101.6c-0.8,0.5-2,1.2-3.6,2.1c-1.5-1.2-2.5-2-3.1-2.4c-2.1-1.5-4.6-2.8-7.5-4.1
			c1.7-1.8,3.2-3.8,4.6-5.7c1.5-2.2,2.6-4,3.1-5.4c-1.4-1.3-3.6-3.3-6.5-6.1c-1.3,1.2-2.6,2.3-4,3.4c-1.6,1.3-3,2.3-4.3,3
			c0.4,0.6,1.8,1.7,4,3.5c-1.2,1.4-2.3,2.7-3.2,4c-1.5-2.4-3-4.5-4.4-6.4c-1-1.3-2.2-2.8-3.9-4.6c0.6-0.2,1.3-0.6,2.1-0.9l1.6-0.8
			c0.2,0.4,0.5,1.1,1,2c3.1-1.4,6.9-4.1,11.3-7.9c4.6-4,8.1-7.6,10.4-10.6c1.5,0.8,3,1.4,4.4,1.9c1.5,0.5,3.1,1,5,1.4
			c-0.6,3.8-2.1,9.1-4.4,16c-1.2,3.3-2.7,7.6-4.7,13.1c-0.3,0.7-0.1,1.6,0.6,2.5C238.5,100.3,239,100.9,239.5,101.6z M239.9,78.3
			c1.1-1.6,0.8-3-0.9-4.2c-1.3-0.9-2.7-1.3-4.3-1.2c-1.7,0.1-2.9,0.8-3.7,1.9c-1.1,1.5-0.6,3,1.5,4.5
			C235.4,81.4,237.9,81.1,239.9,78.3z"/>
	</g>
</g>
<g id="guia" class="st0">
	<rect x="0.5" y="118.6" class="st7" width="322" height="148.2"/>
</g>
<g id="Arbol">
	<g>
		<g>
			<path class="st3" d="M205,130c0,0.1-0.1,0.3-0.1,0.4c0.1,1.1,0.3,2.3,0.5,3.4c1.3,6.4,0.1,12.2-4.4,17c-0.9,1-1.8,2-2.8,2.9
				c-3,2.7-6.1,5.3-9,8c-5.5,5.3-10.7,10.9-15,17.3c-0.5,0.7-1.1,1.3-1.6,1.9c-0.6-5.9-0.9-11.7-1-17.5c-0.1-7,0.2-14,2.7-20.8
				c2.4-6.5,6.6-11,13.3-12.9c1.1-0.3,2.3-0.6,3.4-0.9c-10.7-0.1-16.7,6.2-20.7,15.4c-0.2-0.8-0.3-1.3-0.5-1.8
				c-1-3.9-1.8-7.8-3-11.6c-2-6.3-5.1-12-10.4-16.2c-2.8-2.2-6-3.6-9.6-4.2c5.2,2.8,9.8,6.2,12.5,11.8c2.6,5.4,3.7,11,4.1,16.9
				c-3.4-3.2-7-6.2-11.4-7.7s-8.9-1.9-13.5-0.9c1,0.3,2,0.4,3,0.5c2,0.3,4.1,0.5,6.1,1c5.9,1.4,9.5,5.9,13.3,10.2
				c2.7,3.1,4.1,6.7,4.3,10.8c0.5,12.5,0.9,24.9,1.3,37.4c0.1,2.4,0,4.7,0,7.6c-0.9-1-1.4-1.6-1.9-2.3c-1.4-1.9-2.7-3.9-4.3-5.7
				c-4.7-5.5-9.9-10.4-15.6-14.9c-7.2-5.5-9.8-12.7-7.4-21.6c0.2-0.6,0.3-1.3,0.4-1.9c0.1-0.6,0.2-1.1,0.3-1.7
				c-2.2,3.2-3.2,6.7-3.3,10.6c-0.1,3.8,1.1,7.4,2.7,11.5c-9.2-3.5-17.9-3-26.4,0.2c3.3-0.2,6.6-0.6,9.9-0.8c3.9-0.3,7.8,0,11.5,1.5
				c9,3.7,15.4,10.5,20.6,18.4c2.7,4,4.8,8.3,7.2,12.5c0.2,0.3,0.2,0.6,0.2,0.7c-4.4-0.7-8.7-1.7-13.1-2.1
				c-4.5-0.4-8.9,0.3-13.2,2.1c-4.7,1.9-9.9,4.8-11.4,6.9c1.7-0.9,3.1-1.7,4.5-2.4c6.9-3.5,13.9-5.4,21.7-3.4
				c4.5,1.2,8.5,3.2,10.8,7.4c2.6,4.8,3.9,9.9,4,15.4c0.1,6.8-1.1,13.5-3.3,19.9c-1.7,5-3.8,9.8-7.1,13.9c-1.1,1.4-2.2,2.9-3.5,4.7
				c1.2,0.1,2.1,0.4,2.9,0.3c2.1-0.2,4.2-0.6,6.3-0.7c2.6-0.2,5.2-0.3,7.7-0.2c3.2,0.2,6.3,0.7,9.5,0.9c2.2,0.1,2.4-0.4,1.7-2.5
				c-0.6-1.9-1.5-3.8-1.7-5.7c-0.6-7.9-1.1-15.8-1.3-23.7c-0.2-8.2-0.3-16.4,0-24.6c0.2-5.2,0.6-10.5,2.2-15.4
				c3.2-9.7,9.6-16.8,19.8-19.8c5.2-1.5,10.5-2.2,15.8-0.5c3.5,1.2,6.7,2.9,10.1,4.3c0.8,0.4,1.6,0.7,2.4,1.1
				c-5.2-4.7-11.3-7.5-18.2-8.8c-7-1.3-13.5,1-20.4,2.9c0.6-1.1,0.9-1.8,1.4-2.4c3.6-4.2,6.9-8.7,10.8-12.5
				c6.8-6.5,15.2-8.6,24.4-7.7c2.4,0.2,4.8,0.5,7.2,0.7c-8.5-3.5-17.2-3.3-26.2-0.9C208.1,144.9,208.2,137.5,205,130z M103.1,145.3
				c1.4,5,3.4,9.2,6.1,13.2c1.9,2.9,4.3,5.2,7.6,6.4c2.8,1,5.8,1.7,8.7,2.4c2.2,0.5,4.5,0.6,7.1,0.9c-0.3-1-0.3-1.5-0.5-1.9
				c-1.8-3.8-3.5-7.8-5.6-11.5c-1.5-2.8-3.8-5.1-6.8-6.2c-3-1-6.1-1.9-9.2-2.5C108.1,145.6,105.7,145.5,103.1,145.3z M200.7,163.1
				c0.6,0.6,0.9,0.9,1.3,1.2c3.8,3.1,8.2,5.3,12.8,6.8c2,0.6,4.3,1.1,6.3,0.9c4.9-0.5,9.3-2.6,13.5-5.1c1-0.6,1.8-1.4,3.1-2.3
				c-3.3-2-6.2-4-9.4-5.5c-2.7-1.2-5.7-2.4-8.6-2.6C212.8,156.2,206.8,159.6,200.7,163.1z M209.8,147.9c0.2,0.2,0.3,0.3,0.4,0.3
				c0.3,0,0.5,0,0.8,0c4.7-0.7,9.1-2.3,13.3-4.4c2.3-1.2,4.6-2.5,5.9-4.9c1.3-2.5,2.7-5,3.6-7.6c1-2.9,1.5-5.9,2.3-9.1
				c-4.4,0.6-8.1,1.6-11.6,3.3c-2.6,1.3-5.5,2.7-7.4,4.8C212.7,135.2,211.1,141.5,209.8,147.9z M184.3,99.4c-4,2.4-7.4,5.2-10.4,8.4
				c-2,2.2-3.8,4.6-4.5,7.6c-1,4.7-0.8,9.4-0.2,14.1c0.1,1.3,0.5,2.5,0.8,4.3c2.5-1.9,4.7-3.4,6.7-5.1c3.7-3.2,7.4-6.4,8.5-11.4
				C186.6,111.3,186,105.4,184.3,99.4z M179.3,194.6c4.2,1.5,7.9,1.3,11.5,1.4c5.9,0.1,11.1-1.5,15.1-6c2.8-3.1,5.4-6.3,7.3-10.5
				c-2.1-0.3-3.9-0.6-5.8-0.8c-7.9-0.7-15.3,0-20.8,6.7C184.2,188.4,181.9,191.4,179.3,194.6z M114.9,185.8c2.4,3.6,5.5,6.5,8.8,9
				c2.1,1.5,4.5,3,6.9,3.7c4.5,1.2,9.1,0.6,13.6-0.5c2-0.5,3.9-1,6.4-1.7c-2.1-2.2-3.7-4-5.4-5.6c-4.9-4.7-10.1-8.7-17.6-7.9
				C123.3,183.3,119.1,184.2,114.9,185.8z M208.3,220.7c-1.6-4.4-3.6-8.3-6.1-11.9c-2.2-3.2-5-5.8-8.8-6.8c-3.7-1-7.5-1.6-11.3-2.2
				c-1.3-0.2-2.6,0-4.1,0c0.2,0.6,0.2,1,0.4,1.4c2.1,3.9,3.9,7.9,6.3,11.5c1.4,2.1,3.4,4.2,5.6,5.2c3.3,1.5,7,2.2,10.6,2.8
				C203.2,221,205.7,220.7,208.3,220.7z M146.6,208c-0.5,0-0.9-0.1-1.2-0.1c-3.8,0.7-7.6,1.3-11.3,2.3c-2.9,0.7-5.7,1.8-7.8,4
				c-4.5,4.7-6.7,10.5-8.5,17c2.4-0.3,4.6-0.5,6.7-0.8c8-1.2,14.5-4.5,18.1-12.1C144.2,215,145.9,211.8,146.6,208z M191,132.4
				c-2.5,2-4.7,3.6-6.7,5.5c-2.9,2.6-5.7,5.4-7.1,9.2c-1.9,5.3-1.3,10.8-0.5,16.2c0.2,1.2,0.6,2.4,0.9,3.9c1-0.6,1.7-1,2.3-1.5
				c2.8-2.5,5.7-4.9,8.3-7.6c2.1-2.2,4-4.7,4.2-7.9c0.2-3.8,0.1-7.7-0.1-11.5C192.2,136.8,191.6,134.9,191,132.4z M161.9,181.8
				c0-5.2-0.5-9.9-1.8-14.5c-1-3.6-2.7-6.6-5.7-9c-3.3-2.6-7-4.5-10.8-6.1c-0.8-0.3-1.6-0.5-2.5-0.8c-0.3,4.9,0.3,9.4,1.5,13.9
				c0.9,3.5,2.5,6.8,5.6,8.9c3.5,2.4,7.2,4.6,10.9,6.7C159.7,181.4,160.7,181.4,161.9,181.8z M113.3,167.1c-2.6-1.7-5-3.4-7.5-5
				c-4.5-2.9-9.3-3.3-14.3-1.4c-2.6,1-5.1,2.2-8,3.5c2.3,1.7,4.1,3.2,6,4.4c4.6,3,9.5,4.5,15,2.5
				C107.4,170.1,110.6,169.5,113.3,167.1z M225.6,202.9c-3-2.8-5.9-5.3-9.5-6.8c-1.9-0.8-4-1.5-6-1.5c-4.3,0.1-8.4,1.4-12.3,3.2
				c-0.4,0.2-0.7,0.4-1.3,0.8c1.7,1.5,3.2,2.9,4.9,4.1c4.1,2.9,8.3,5.5,13.7,4.3C218.7,206.2,222.3,205.2,225.6,202.9z M253.7,175.9
				c-1.2-0.8-2.3-1.6-3.4-2.2c-3.7-2.2-7.4-4.6-11.9-4.1c-3.2,0.4-6.3,1.7-9.4,2.8c-1.7,0.6-3.1,1.7-4.8,2.6
				C235.7,183.9,243,184,253.7,175.9z M101.2,200.1c9.9,9.3,18.4,9.7,29.1,2.6c-2.8-2.7-6-4.6-9.5-6.1c-1.6-0.7-3.5-1.3-5.3-1.4
				C110.3,195.1,105.8,197.5,101.2,200.1z M235.8,202c0.4-10.6-9.2-20.5-20.2-21c0.7,5.4,2,10.7,5.6,14.8
				C224.9,199.9,230.2,201.2,235.8,202z M254.7,146.7c-2.8-1.6-5.2-3.1-7.9-4.3c-6.7-3.2-16-1.6-21.6,3.8c4.6,3.5,9.4,6.7,15.3,6.7
				C245.8,152.8,250.3,150.2,254.7,146.7z M153.3,109.2c-0.3-2-0.5-3.9-0.8-5.7c-1.2-6.1-3.3-11.6-9.6-14.2
				c-2.6-1.1-5.2-2.1-7.9-3.2C134.1,98,141.9,107.8,153.3,109.2z M154.9,127.8c-1.7-2.8-3.1-5.4-4.7-7.9c-4.6-7.4-12.3-8.4-20.4-7.3
				C135,126.1,142.2,129,154.9,127.8z M210.5,133.3c0.9-1.1,1.9-2.1,2.8-3.2c4.1-5.2,7.2-10.8,4.7-17.7c-1-2.6-2-5.2-3-7.9
				c-0.3,0-0.5,0-0.8-0.1c-1.9,2.7-3.9,5.4-5.8,8.2c-4.3,6.3-1,15.5,1.8,20.6C210.2,133.2,210.2,133.2,210.5,133.3z M124.7,126.3
				c-0.7,2.2-1.3,4-1.7,5.8c-1,4.6-2,9.4,0.9,13.7c1.9,2.8,4.3,5.4,6.5,8.1c0.4,0.4,0.9,0.7,1.6,1.2c1.9-5.3,3.6-10.6,2.4-16
				C133.1,133.6,129,130,124.7,126.3z M117.2,174.6c-2.6,0.5-4.7,0.8-6.8,1.4c-4.6,1.3-9.1,2.8-11.6,7.5c-1.8,3.3-3.1,6.8-3.9,10.9
				c5.3-0.7,10.4-1.5,14.5-4.7C114,186,115.5,180.5,117.2,174.6z M165.3,117.8c1.9-5.7,3.7-11.3,1.8-17.1c-1.6-4.8-5.3-8.2-9.3-11.4
				C152.7,100.1,155.7,111.7,165.3,117.8z M232.8,183.9c1.8,4.7,3.6,9.4,8.2,11.9c3.7,2.1,7.8,2.5,12.1,1.7
				C249.1,186.6,244.6,183.5,232.8,183.9z M116.4,104c8.5,8.3,15.1,8.2,23.9,2.4C134.3,99.1,123.3,98,116.4,104z M102.5,175.5
				c-10-3.9-19.2-0.8-22.8,7.6C89.8,187.1,96.8,184.8,102.5,175.5z M202.8,109.6c-10.2,1.1-17.2,8.2-17,17.1
				C194.5,127.8,202.7,119.7,202.8,109.6z M95.7,218.9c4.4,1.9,9,2.7,13.4,1.3c4.3-1.4,7.2-4.9,9.8-8.6
				C108,207.9,102.5,208.9,95.7,218.9z M137,135.6c4.6,10.1,10.9,13.2,21.5,10.7C155.6,137.5,145.2,132.3,137,135.6z"/>
			<path class="st3" d="M205,130c3.2,7.5,3.1,14.8-0.9,22.2c8.9-2.4,17.6-2.6,26.2,0.9c-2.4-0.2-4.8-0.5-7.2-0.7
				c-9.2-0.9-17.6,1.2-24.4,7.7c-4,3.8-7.3,8.3-10.8,12.5c-0.5,0.6-0.8,1.3-1.4,2.4c7-1.9,13.5-4.2,20.4-2.9s12.9,4.1,18.2,8.8
				c-0.8-0.4-1.6-0.8-2.4-1.1c-3.4-1.5-6.6-3.2-10.1-4.3c-5.3-1.8-10.5-1.1-15.8,0.5c-10.2,3-16.6,10.1-19.8,19.8
				c-1.6,4.8-2,10.2-2.2,15.4c-0.3,8.2-0.3,16.4,0,24.6c0.2,7.9,0.7,15.8,1.3,23.7c0.1,1.9,1,3.8,1.7,5.7c0.7,2.1,0.5,2.6-1.7,2.5
				c-3.2-0.2-6.3-0.8-9.5-0.9c-2.6-0.1-5.2,0-7.7,0.2c-2.1,0.1-4.2,0.5-6.3,0.7c-0.8,0.1-1.7-0.2-2.9-0.3c1.3-1.8,2.4-3.2,3.5-4.7
				c3.3-4.2,5.4-9,7.1-13.9c2.2-6.4,3.4-13.1,3.3-19.9c-0.1-5.4-1.3-10.6-4-15.4c-2.3-4.2-6.2-6.2-10.8-7.4
				c-7.8-2-14.8-0.1-21.7,3.4c-1.4,0.7-2.8,1.5-4.5,2.4c1.5-2,6.7-4.9,11.4-6.9c4.3-1.7,8.7-2.5,13.2-2.1c4.4,0.4,8.7,1.4,13.1,2.1
				c0-0.1-0.1-0.4-0.2-0.7c-2.4-4.2-4.5-8.5-7.2-12.5c-5.3-7.9-11.6-14.7-20.6-18.4c-3.6-1.5-7.6-1.8-11.5-1.5
				c-3.3,0.2-6.6,0.6-9.9,0.8c8.6-3.2,17.3-3.7,26.4-0.2c-1.5-4.1-2.7-7.6-2.7-11.5c0.1-3.8,1.1-7.3,3.3-10.6
				c-0.1,0.6-0.2,1.1-0.3,1.7c-0.1,0.6-0.2,1.3-0.4,1.9c-2.4,8.9,0.3,16,7.4,21.6c5.7,4.4,11,9.3,15.6,14.9c1.5,1.8,2.8,3.8,4.3,5.7
				c0.5,0.7,1.1,1.3,1.9,2.3c0-2.9,0.1-5.2,0-7.6c-0.4-12.5-0.8-24.9-1.3-37.4c-0.2-4.1-1.6-7.7-4.3-10.8
				c-3.7-4.3-7.4-8.8-13.3-10.2c-2-0.5-4-0.7-6.1-1c-1-0.1-2-0.2-3-0.5c4.6-1,9.1-0.6,13.5,0.9s8,4.4,11.4,7.7
				c-0.4-5.9-1.5-11.5-4.1-16.9c-2.7-5.6-7.2-9-12.5-11.8c3.6,0.6,6.8,2,9.6,4.2c5.3,4.2,8.4,9.9,10.4,16.2c1.2,3.8,2,7.7,3,11.6
				c0.1,0.5,0.3,1,0.5,1.8c4-9.3,10.1-15.6,20.7-15.4c-1.1,0.3-2.3,0.5-3.4,0.9c-6.7,1.9-10.9,6.4-13.3,12.9
				c-2.5,6.7-2.8,13.7-2.7,20.8c0.1,5.8,0.4,11.6,1,17.5c0.5-0.6,1.1-1.2,1.6-1.9c4.3-6.3,9.5-12,15-17.3c2.9-2.8,6-5.3,9-8
				c1-0.9,1.9-2,2.8-2.9c4.6-4.9,5.7-10.6,4.4-17c-0.2-1.1-0.3-2.2-0.5-3.4C204.9,130.3,205,130.2,205,130z"/>
			<path class="st3" d="M103.1,145.3c2.6,0.3,5,0.3,7.3,0.7c3.1,0.6,6.2,1.5,9.2,2.5c3.1,1.1,5.3,3.4,6.8,6.2
				c2.1,3.7,3.8,7.6,5.6,11.5c0.2,0.4,0.2,0.9,0.5,1.9c-2.6-0.3-4.8-0.4-7.1-0.9c-2.9-0.6-5.9-1.4-8.7-2.4c-3.3-1.1-5.7-3.5-7.6-6.4
				C106.6,154.5,104.6,150.3,103.1,145.3z"/>
			<path class="st3" d="M200.7,163.1c6.1-3.5,12.1-6.9,19.1-6.6c2.9,0.1,5.9,1.3,8.6,2.6c3.2,1.5,6.1,3.5,9.4,5.5
				c-1.2,0.9-2.1,1.8-3.1,2.3c-4.2,2.5-8.6,4.6-13.5,5.1c-2.1,0.2-4.3-0.2-6.3-0.9c-4.7-1.5-9-3.7-12.8-6.8
				C201.6,164,201.3,163.7,200.7,163.1z"/>
			<path class="st3" d="M209.8,147.9c1.3-6.3,2.9-12.7,7.3-17.7c1.9-2.1,4.8-3.5,7.4-4.8c3.5-1.7,7.2-2.8,11.6-3.3
				c-0.8,3.2-1.3,6.2-2.3,9.1c-0.9,2.6-2.2,5.1-3.6,7.6c-1.3,2.4-3.6,3.8-5.9,4.9c-4.2,2.1-8.6,3.7-13.3,4.4c-0.3,0-0.5,0-0.8,0
				C210.1,148.1,210,148,209.8,147.9z"/>
			<path class="st3" d="M184.3,99.4c1.7,6,2.3,11.9,1,17.8c-1.1,4.9-4.9,8.2-8.5,11.4c-2,1.8-4.3,3.3-6.7,5.1
				c-0.3-1.8-0.7-3-0.8-4.3c-0.6-4.7-0.8-9.4,0.2-14.1c0.7-3,2.4-5.4,4.5-7.6C176.9,104.5,180.3,101.7,184.3,99.4z"/>
			<path class="st3" d="M179.3,194.6c2.6-3.2,4.9-6.2,7.3-9.2c5.5-6.7,12.9-7.4,20.8-6.7c1.9,0.2,3.7,0.5,5.8,0.8
				c-1.9,4.1-4.5,7.3-7.3,10.5c-4.1,4.6-9.2,6.1-15.1,6C187.2,195.9,183.5,196,179.3,194.6z"/>
			<path class="st3" d="M114.9,185.8c4.2-1.6,8.4-2.5,12.8-3c7.5-0.8,12.7,3.2,17.6,7.9c1.7,1.7,3.3,3.5,5.4,5.6
				c-2.5,0.7-4.4,1.3-6.4,1.7c-4.5,1.1-9.1,1.6-13.6,0.5c-2.5-0.6-4.8-2.1-6.9-3.7C120.4,192.3,117.4,189.4,114.9,185.8z"/>
			<path class="st3" d="M208.3,220.7c-2.6,0-5.1,0.3-7.4-0.1c-3.6-0.6-7.3-1.3-10.6-2.8c-2.2-1-4.3-3.1-5.6-5.2
				c-2.4-3.6-4.2-7.6-6.3-11.5c-0.2-0.4-0.2-0.8-0.4-1.4c1.4,0,2.8-0.2,4.1,0c3.8,0.6,7.6,1.2,11.3,2.2c3.8,1,6.6,3.6,8.8,6.8
				C204.7,212.4,206.7,216.3,208.3,220.7z"/>
			<path class="st3" d="M146.6,208c-0.7,3.7-2.4,7-4,10.3c-3.6,7.7-10.2,11-18.1,12.1c-2.1,0.3-4.2,0.5-6.7,0.8
				c1.8-6.5,4-12.3,8.5-17c2.1-2.2,5-3.3,7.8-4c3.7-1,7.5-1.6,11.3-2.3C145.7,207.9,146.1,208,146.6,208z"/>
			<path class="st3" d="M191,132.4c0.5,2.5,1.2,4.4,1.3,6.3c0.2,3.8,0.3,7.7,0.1,11.5c-0.2,3.1-2.1,5.7-4.2,7.9
				c-2.6,2.7-5.5,5.1-8.3,7.6c-0.6,0.5-1.3,0.9-2.3,1.5c-0.3-1.4-0.7-2.7-0.9-3.9c-0.8-5.4-1.4-10.9,0.5-16.2
				c1.4-3.8,4.2-6.6,7.1-9.2C186.3,136.1,188.5,134.4,191,132.4z"/>
			<path class="st3" d="M161.9,181.8c-1.2-0.3-2.2-0.4-2.9-0.9c-3.7-2.2-7.3-4.3-10.9-6.7c-3.1-2.1-4.7-5.3-5.6-8.9
				c-1.2-4.5-1.8-9-1.5-13.9c0.9,0.3,1.7,0.5,2.5,0.8c3.9,1.6,7.5,3.5,10.8,6.1c3,2.3,4.7,5.4,5.7,9
				C161.3,171.9,161.8,176.6,161.9,181.8z"/>
			<path class="st3" d="M113.3,167.1c-2.7,2.4-5.9,3-8.8,4.1c-5.5,2-10.4,0.5-15-2.5c-1.9-1.2-3.7-2.7-6-4.4c3-1.3,5.5-2.5,8-3.5
				c5-1.9,9.8-1.5,14.3,1.4C108.3,163.7,110.7,165.4,113.3,167.1z"/>
			<path class="st3" d="M225.6,202.9c-3.3,2.3-6.9,3.3-10.5,4.1c-5.4,1.2-9.6-1.4-13.7-4.3c-1.7-1.2-3.1-2.6-4.9-4.1
				c0.6-0.4,0.9-0.7,1.3-0.8c3.9-1.8,8-3.1,12.3-3.2c2,0,4.1,0.7,6,1.5C219.7,197.6,222.6,200.1,225.6,202.9z"/>
			<path class="st3" d="M253.7,175.9c-10.7,8.1-18,8-29.4-0.9c1.7-0.9,3.2-2,4.8-2.6c3.1-1.1,6.2-2.4,9.4-2.8
				c4.4-0.5,8.2,1.9,11.9,4.1C251.5,174.3,252.5,175.1,253.7,175.9z"/>
			<path class="st3" d="M101.2,200.1c4.6-2.6,9.1-5,14.3-4.9c1.8,0,3.6,0.6,5.3,1.4c3.5,1.5,6.7,3.4,9.5,6.1
				C119.6,209.9,111.2,209.4,101.2,200.1z"/>
			<path class="st3" d="M235.8,202c-5.6-0.8-10.9-2.1-14.6-6.3c-3.6-4.1-4.9-9.3-5.6-14.8C226.5,181.5,236.1,191.4,235.8,202z"/>
			<path class="st3" d="M254.7,146.7c-4.4,3.5-9,6.1-14.2,6.1c-5.9,0-10.7-3.2-15.3-6.7c5.7-5.4,14.9-7,21.6-3.8
				C249.5,143.6,252,145.2,254.7,146.7z"/>
			<path class="st3" d="M153.3,109.2c-11.4-1.4-19.2-11.2-18.4-23.1c2.7,1.1,5.3,2.1,7.9,3.2c6.3,2.6,8.5,8.1,9.6,14.2
				C152.8,105.3,153,107.2,153.3,109.2z"/>
			<path class="st3" d="M154.9,127.8c-12.7,1.2-19.8-1.7-25.1-15.2c8.1-1,15.9-0.1,20.4,7.3C151.7,122.4,153.2,125,154.9,127.8z"/>
			<path class="st3" d="M210.5,133.3c-0.2-0.1-0.3-0.1-0.3-0.2c-2.8-5-6.1-14.3-1.8-20.6c1.9-2.8,3.8-5.5,5.8-8.2
				c0.3,0,0.5,0,0.8,0.1c1,2.6,2.1,5.2,3,7.9c2.5,7-0.6,12.5-4.7,17.7C212.4,131.2,211.4,132.3,210.5,133.3z"/>
			<path class="st3" d="M124.7,126.3c4.3,3.8,8.5,7.4,9.7,12.7c1.2,5.4-0.4,10.7-2.4,16c-0.7-0.5-1.2-0.8-1.6-1.2
				c-2.2-2.7-4.5-5.2-6.5-8.1c-2.9-4.3-1.9-9-0.9-13.7C123.3,130.2,124,128.5,124.7,126.3z"/>
			<path class="st3" d="M117.2,174.6c-1.7,5.9-3.2,11.4-7.8,15.1c-4.1,3.3-9.1,4.1-14.5,4.7c0.8-4.1,2.1-7.5,3.9-10.9
				c2.5-4.7,7-6.2,11.6-7.5C112.5,175.4,114.6,175.1,117.2,174.6z"/>
			<path class="st3" d="M165.3,117.8c-9.6-6.2-12.7-17.8-7.5-28.4c4,3.1,7.7,6.5,9.3,11.4C169.1,106.5,167.2,112.2,165.3,117.8z"/>
			<path class="st3" d="M232.8,183.9c11.8-0.4,16.3,2.7,20.3,13.6c-4.3,0.9-8.4,0.4-12.1-1.7C236.5,193.3,234.7,188.6,232.8,183.9z"
				/>
			<path class="st3" d="M116.4,104c6.9-6,17.8-4.9,23.9,2.4C131.6,112.2,124.9,112.3,116.4,104z"/>
			<path class="st3" d="M102.5,175.5c-5.7,9.3-12.7,11.6-22.8,7.6C83.3,174.7,92.5,171.6,102.5,175.5z"/>
			<path class="st3" d="M202.8,109.6c-0.1,10.1-8.2,18.2-17,17.1C185.5,117.8,192.5,110.7,202.8,109.6z"/>
			<path class="st3" d="M95.7,218.9c6.8-10,12.3-11,23.2-7.4c-2.6,3.7-5.5,7.2-9.8,8.6C104.6,221.6,100.1,220.8,95.7,218.9z"/>
			<path class="st3" d="M137,135.6c8.2-3.3,18.6,1.8,21.5,10.7C147.9,148.8,141.6,145.7,137,135.6z"/>
		</g>
		<circle class="st3" cx="91" cy="189.9" r="4.3"/>
		<circle class="st3" cx="117.2" cy="140.9" r="4.1"/>
		<circle class="st3" cx="153.4" cy="151.6" r="2"/>
		<circle class="st3" cx="122" cy="113.8" r="3.4"/>
		<circle class="st3" cx="171.7" cy="103.1" r="4"/>
		<circle class="st3" cx="200" cy="141.1" r="3.1"/>
		<circle class="st3" cx="152.7" cy="169" r="4.3"/>
		<circle class="st3" cx="177.3" cy="168.1" r="4.1"/>
		<circle class="st3" cx="179.4" cy="214.6" r="4.3"/>
	</g>
</g>
</svg>
