<?xml version="1.0" encoding="utf-8"?>
<!-- Generator: Adobe Illustrator 24.1.2, SVG Export Plug-In . SVG Version: 6.00 Build 0)  -->
<svg version="1.1" xmlns="http://www.w3.org/2000/svg" xmlns:xlink="http://www.w3.org/1999/xlink" x="0px" y="0px"
	 viewBox="0 0 339.9 353.2" style="enable-background:new 0 0 339.9 353.2;" xml:space="preserve">
<style type="text/css">
	.st0{fill:#6D2222;}
	.st1{fill:#FFFFFF;}
	.st2{display:none;}
	.st3{display:inline;fill:#8E7404;}
	.st4{display:inline;fill:none;}
	.st5{display:inline;}
	.st6{display:inline;fill:#294C23;}
	.st7{display:inline;fill:none;stroke:#020202;stroke-miterlimit:10;}
</style>
<g id="POSTEMPORADA">
	<circle class="st0" cx="166.7" cy="177.5" r="143.1"/>
	<g>
		<path class="st1" d="M58.8,185c-1.5-0.1-3-0.4-4.6-1c-5.3-2-7.8-5-7.6-8.9c0.1-1.6,0.6-3.1,1.6-4.4c0.6-0.7,1.5-1.6,2.7-2.6
			c-4.1,0.5-8.5,1.5-13.1,3c-0.8-4.3-1.7-8.7-2.7-13.3c0.5-0.1,1-0.1,1.5-0.1c0.7,0,1.1,0.2,1.1,0.4c0.1,0.4,0.3,0.9,0.5,1.7
			c0.3,0.8,0.9,1.2,1.7,1.3c0.1,0,0.2,0,0.4,0c5.8-0.3,10.4-0.3,13.8-0.1c3.7,0.2,7.2,0.7,10.6,1.4c-0.3-0.7-0.4-1.3-0.3-1.9
			c0-0.7,0.3-1.4,0.7-1.9l4.9,0.6c-2,2.8-3.1,5.7-3.2,8.6c-0.1,0.9,0,2.5,0.1,4.6c0.1,2.1,0.2,3.7,0.1,4.8c-0.2,2.9-1.1,5-2.7,6.3
			C63.1,184.6,61.2,185.1,58.8,185z M58.1,181.3c1,0.1,1.8-0.5,2.4-1.8c0.6-1.2,1-2.8,1.1-4.8c0.1-2.2-0.3-4.2-1.2-6
			c-0.9-1.8-1.9-2.7-3-2.7c-0.7,0-1.4,0.7-2,2.2c-0.6,1.4-0.9,2.8-1,4.3c-0.1,2,0.2,3.9,0.9,5.8C56.1,180.3,57,181.3,58.1,181.3z"/>
		<path class="st1" d="M62.3,213.5c-2.4,0.5-5.3,0.6-8.7,0.2c-3.9-0.4-7.3-1.2-9.9-2.4c-3.7-1.7-5.8-4-6.4-7c-0.6-2.8,0.5-5.5,3-8.2
			c2.7-2.8,6.3-4.7,10.7-5.6c4.2-0.9,8.1-0.5,11.7,1.1c3.9,1.8,6.3,4.6,7.1,8.5C71.2,207.7,68.8,212.1,62.3,213.5z M56.1,210.4
			c1.8-0.4,3.1-1.5,4-3.3c0.9-1.8,1.1-3.8,0.7-6.1c-0.4-2-1.5-3.8-3.3-5.4c-1.9-1.7-3.7-2.4-5.4-2c-2.1,0.4-3.6,1.7-4.5,3.8
			c-0.8,1.8-1.1,3.7-0.7,5.5c0.5,2.3,1.7,4.2,3.7,5.8C52.5,210.2,54.3,210.7,56.1,210.4z"/>
		<path class="st1" d="M68,243.8c-1.1,0.6-2.5,1.1-4.4,1.6c-2.4,0.7-4.8,0.3-7.2-1.1c-2.4-1.4-4.5-3.8-6.3-7.2
			c-1.7-3.3-2.2-6.3-1.6-9.1c0.5-2.3,1.6-3.9,3.3-4.8c1.1-0.6,2.2-0.7,3.4-0.4c1.3,0.3,2.4,1.1,3.4,2.5c0.5,0.7,0.9,1.4,1.3,2.1
			c0.8,1.6,1.2,2.9,1.1,4.1c-0.1,1.2-0.6,2-1.5,2.4c-1.4,0.7-2.8,0.7-4.4,0c-0.7-0.3-1.7-1-3-2c-0.5-0.4-0.8-0.6-1-0.5
			c-0.6,0.3-0.4,1.4,0.6,3.3c0.8,1.5,1.7,2.6,2.8,3.4c1.3,1,2.6,1.1,3.9,0.4c0.2-0.1,0.4-0.2,0.6-0.4c3.1-2.3,4.9-3.7,5.5-4.3
			c1.1-1.3,1.2-2.7,0.4-4.2c-0.2-0.4-0.6-1.1-1.3-2c-0.6-0.9-1.1-1.6-1.3-2c-1.5-3-0.8-5.3,2.2-6.8c1-0.5,2.2-0.9,3.7-1.3
			c2.1-0.6,4-0.4,5.9,0.4c2.2,1,4.1,3,5.6,5.9c1.5,3,2.2,5.7,1.8,8c-0.3,2.1-1.3,3.5-2.9,4.4c-2.5,1.3-4.5,0.3-6.1-2.8
			c-0.8-1.5-1.1-3-1.1-4.4c0.1-1.3,0.5-2.2,1.3-2.6c1.1-0.6,2.3-0.3,3.6,0.7c0.5,0.4,0.9,0.8,1.4,1.2c0.5,0.4,0.8,0.5,1,0.4
			c0.3-0.2,0.4-0.6,0.3-1.4c-0.1-0.8-0.4-1.6-0.8-2.4c-0.5-1-1.2-1.7-1.9-2.2c-0.9-0.5-1.8-0.5-2.8-0.1c-0.5,0.2-0.9,0.6-1.4,1
			c-0.9,0.8-1.8,1.6-2.7,2.4c-1,0.9-1.5,1.7-1.7,2.5c-0.3,1.1,0,2.4,0.8,3.9c0.1,0.1,0.3,0.6,0.7,1.3s0.7,1.3,0.9,1.6
			c0.9,1.8,1.3,3.3,1.1,4.4C71.3,241.4,70.1,242.7,68,243.8z"/>
		<path class="st1" d="M89,270.9c-0.5,0.5-1.3,1-2.3,1.5c-2.8,1.4-5.6,1.7-8.5,0.9c-2.5-0.6-4.7-2-6.6-4c-2.5-2.7-3.5-5.6-3-8.7
			c0.5-2.8,2.1-5.5,5-8.2c2.3-2.1,5.1-3.9,8.4-5.4c2.3-1,4.2-1.7,5.8-2c-2.3-1.9-5.2-2.9-8.5-3c-0.2,0-0.3,0-0.1-0.2
			c1.1-1.3,3-3.5,5.6-6.4c0.1,0,0.2,0,0.3,0c5,6.6,10.5,13.2,16.6,19.7c0.1,0.1,0.1,0.3-0.2,0.4c-4.7,2.9-8.3,5.3-10.8,7.3
			c-0.4-0.6-0.9-1.5-1.5-2.6c-0.2-0.6-0.1-1,0.2-1.3c0.2-0.2,0.7-0.5,1.4-1c0.8-0.5,1.3-0.9,1.6-1.2c0.5-0.4,0.7-0.9,0.7-1.3
			c-0.1-2.4-0.5-4.1-1.1-5c-4.5,1.6-8.8,4.3-12.7,8c-2.2,2-3.7,4-4.7,5.8c-1,2-1,3.5-0.1,4.5c0.7,0.7,1.8,1.2,3.4,1.4
			c1.5,0.2,2.4,0.1,2.8-0.3c0.2-0.2,0.2-0.3,0.1-0.4c-0.9-1.4-1.3-2.8-1.3-4.3c-0.1-1.8,0.5-3.2,1.7-4.3c0.6-0.6,1.5-0.8,2.6-0.5
			c1.1,0.3,2.1,1,3.2,2.2c0.5,0.5,1,1.2,1.6,2C90.4,267.3,90.5,269.4,89,270.9z"/>
		<path class="st1" d="M117.1,289.3c-0.1,0.2-0.3,0.4-0.4,0.5c-2,2.8-4.4,4.3-6.9,4.4c-2,0.1-4.2-0.7-6.7-2.2
			c-0.4-0.2-2-1.3-4.8-3.2c-0.5-0.3-1.3-1-2.5-1.9c-1-0.8-1.8-1.4-2.3-1.7c-1.1-0.7-2.2-0.9-3.1-0.7l2.7-4.2c0.4,0,0.8,0.1,1.2,0.4
			c0.6,0.4,1.2,1,1.7,2c1.4-5.1,4.7-12,9.7-20.6c0.5-0.8,0.5-1.4,0.1-2c-0.5-0.4-1-0.9-1.5-1.6c-0.1-0.3,0.1-0.8,0.6-1.6
			c0.3-0.5,0.5-0.8,0.6-0.9c0.6,0.8,2.2,2.3,4.9,4.4c2.7,2.2,5.1,3.9,7,5c2.2,1.3,5,2.9,8.2,4.6c-1.2,0.9-2.3,1.8-3.5,3
			c-0.9,1-1.8,2-2.8,2.9c-0.1-0.1-0.5-0.2-1-0.4c-0.4-0.2-0.7-0.3-0.9-0.4c-0.2-0.1-0.2-0.2-0.2-0.4c0.9-1.6,1.3-2.9,1.4-3.7
			c0.1-1.3-1-2.6-3.3-4c-0.2-0.1-1.1-0.6-2.8-1.5c-1.5,1.2-2.8,2.9-4.2,5.2c-0.2,0.4-0.6,1-1,1.7c-0.4,0.7-0.7,1.2-0.9,1.5
			c0.7,0.4,1.4,0.7,1.9,0.9c1.3,0.6,2.1,0.8,2.2,0.6c0.2-0.2,0.5-0.5,0.6-0.8c0.3-0.5,0.4-1.1,0.4-1.6c-0.1-0.4-0.1-0.9-0.2-1.3
			c0.6,0,1.1,0,1.6,0c1.2,0.1,2,0.2,2.6,0.6c-0.1,0.6-0.4,1.3-0.9,2.1c-0.1,0.2-0.4,0.6-0.7,1.1c-0.3,0.5-0.6,0.8-0.7,1.1
			c-0.5,0.8-1.1,2.3-1.9,4.4c-0.1,0.2-0.2,0.4-0.2,0.4c0,0-0.1,0-0.2-0.1c-0.7-0.6-1.9-1.5-3.7-2.7c-0.8-0.5-1.6-1.1-2.4-1.6
			c-2.1,4-3.1,7-2.8,9.1c0.3,1.9,1.6,3.5,3.9,4.9c0.8,0.5,1.6,0.7,2.4,0.7c0.8,0,1.2-0.1,1.4-0.3c0.1-0.1,0-0.2-0.2-0.4
			c-0.2-0.1-0.4-0.2-0.7-0.3c-0.3-0.1-0.5-0.3-0.7-0.4c-1.7-1-2.4-2.6-1.9-4.6c0.1-0.3,0.2-0.6,0.4-0.9c0.5-0.9,1.4-1.4,2.7-1.6
			c1.3-0.2,2.9,0.1,4.8,0.7c0.5,0.2,1,0.4,1.4,0.6C118,285.6,118.3,287.2,117.1,289.3z"/>
		<path class="st1" d="M165.5,292.4c-0.9,4.8-3.9,9-8.9,12.6l4,1.9c0.1,0.6,0.3,1.4,0.5,2.5c-1.1-0.3-2.8-0.7-4.9-1.1
			c-2-0.4-4.2-0.8-6.5-1.2c1.1-1.3,2.5-3.6,4.1-6.8c1.8-3.5,2.9-6.2,3.2-8.2c0.3-1.5,0.1-2.4-0.6-2.5c-1.2-0.2-2.8,1-4.9,3.8
			c-1.8,2.3-3.3,5-4.6,7.8c-0.7,3.3-0.9,5.5-0.8,6.4c0.4,0.3,1,0.8,2,1.6c-0.2,0.3-0.5,0.9-0.9,1.8c-3.3-1.6-6.2-3.1-8.6-4.6
			c1.8-2.9,3.1-6.8,4-11.6c1-5.1,0.8-7.8-0.6-8.1c-0.9-0.2-2,0.7-3.3,2.5c-1.2,1.8-2.2,4.1-3.1,6.8c-0.3,1.6-0.4,4.9-0.4,9.7
			c-1.8-1.5-3.8-2.5-6-2.9c-2-0.4-3.4-0.2-4.3,0.5l0.7-4.6c0.4-0.2,0.9-0.2,1.5-0.1c0.6,0.1,1.3,0.5,2,1c-0.2-2.6-0.1-5.8,0.2-9.5
			c0.3-3.6,0.7-6.8,1.3-9.7l0.2-0.8c0.2-1.1,0-1.8-0.7-2.1c-0.7-0.2-1.3-0.4-2-0.6c-0.4-0.2-0.4-1.2,0-3c0-0.1,0.1-0.1,0.4-0.1
			c1.2,0.2,5.2,0.7,12.1,1.4c-1.7,3.4-3,7.2-3.8,11.3c-0.2,0.8-0.3,1.5-0.3,2c2.6-6,6.2-9.8,10.6-11.4c1-0.4,1.9-0.5,2.5-0.4
			c2.2,0.4,2.7,3.3,1.7,8.8c-0.4,1.9-0.9,4-1.7,6.3c0.9-1.6,2.5-3.5,4.7-5.8c2.5-2.6,4.9-3.6,7.1-3.2c1.6,0.3,2.8,1.4,3.6,3.1
			C165.8,287.9,166,290,165.5,292.4z"/>
		<path class="st1" d="M197.7,283.7c0.2,1.4,0.2,3-0.1,4.7c-0.9,5.6-3.3,8.7-7.1,9.2c-1.6,0.2-3.1,0-4.6-0.7
			c-0.8-0.4-1.9-1.1-3.1-2.1c1.3,4,3.2,8,5.7,12.1c-4.1,1.7-8.2,3.5-12.4,5.4c-0.2-0.4-0.3-0.9-0.4-1.5c-0.1-0.7-0.1-1.1,0.1-1.2
			c0.4-0.2,0.9-0.5,1.5-0.9c0.7-0.5,1-1.1,0.9-1.9c0-0.1,0-0.2-0.1-0.4c-1.5-5.6-2.5-10.1-3-13.5c-0.6-3.6-0.8-7.2-0.8-10.6
			c-0.6,0.4-1.2,0.6-1.8,0.7c-0.7,0.1-1.4,0-2-0.3l-0.5-4.9c3.2,1.4,6.2,1.8,9.1,1.4c0.9-0.1,2.4-0.5,4.4-1.1c2-0.6,3.6-0.9,4.6-1.1
			c2.8-0.4,5.1,0,6.7,1.4C196.5,279.6,197.4,281.4,197.7,283.7z M194.3,285.1c-0.1-1-0.9-1.6-2.2-2c-1.3-0.4-2.9-0.4-4.9-0.1
			c-2.2,0.3-4.1,1.1-5.6,2.4c-1.5,1.2-2.2,2.4-2.1,3.5c0.1,0.7,0.9,1.2,2.5,1.5c1.4,0.3,2.9,0.3,4.4,0.1c2-0.3,3.8-1,5.5-2.1
			C193.7,287.3,194.5,286.2,194.3,285.1z"/>
		<path class="st1" d="M224.8,274.4c1,2.2,1.7,5,2.1,8.5c0.5,3.9,0.4,7.3-0.2,10.2c-0.9,3.9-2.7,6.5-5.5,7.8
			c-2.6,1.1-5.5,0.7-8.7-1.2c-3.3-2-5.9-5.1-7.7-9.2c-1.7-3.9-2.2-7.8-1.4-11.6c0.9-4.2,3.2-7.1,6.8-8.7
			C217.3,266.9,222.1,268.4,224.8,274.4z M223.1,281.1c-0.7-1.7-2.1-2.7-4.1-3.2c-2-0.5-4-0.3-6.1,0.6c-1.9,0.8-3.4,2.3-4.6,4.4
			c-1.3,2.2-1.5,4.1-0.8,5.8c0.8,1.9,2.4,3.1,4.7,3.6c2,0.4,3.8,0.3,5.5-0.5c2.1-0.9,3.7-2.6,4.8-4.9
			C223.7,284.7,223.8,282.8,223.1,281.1z"/>
		<path class="st1" d="M261,258.3c1.1,1.3,1.9,2.9,2.3,4.9c0.6,2.8,0.1,5.4-1.6,7.6c-1.1,1.5-2.1,2.7-3.1,3.5
			c-2.8,2.5-5.4,2.7-7.7,0.8c-0.7-0.6-2-1.8-3.7-3.7c-1.3-1.3-2.3-2.1-3.2-2.5c-1.2-0.6-2.6-0.7-4.2-0.4c0.1,0.3,0.7,1,1.7,2.1
			c2.5,2.8,5.7,5.6,9.6,8.4l-5.5,4.9c-2.5,2.3-3.8,3.5-3.9,3.6c-0.1,0-0.1-0.1-0.2-0.2c-1-1.1-1.3-1.8-1.1-2.1
			c0.4-0.5,0.8-1,1.2-1.4c0.3-0.6,0.2-1.2-0.4-1.9c-3-3.8-5.3-6.8-6.7-8.9c-2.5-3.7-4.5-7.3-6.1-10.9c-0.1,0.2-0.3,0.4-0.7,0.7
			c-0.8,0.7-1.7,1-2.7,0.9l-2.3-4.1c2.6,0.1,4.8-0.2,6.8-0.9c1.6-0.6,3.3-1.7,4.9-3.1c0.7-0.6,1.8-1.7,3.3-3.2
			c1.5-1.5,2.4-2.5,2.8-2.8c1.7-1.5,3.5-2.2,5.3-1.9c1.5,0.2,2.9,1,4.1,2.5c1.9,2.1,2.5,4.7,1.8,7.5c-0.6,2.5-2.1,4.8-4.4,6.9
			c-0.8,0.7-1.6,1.3-2.6,2c2.2-1.1,3.9-1.6,5.1-1.6c1.1,0,1.9,0.4,2.6,1.3c0.3,0.3,0.7,1,1.3,1.9c0.6,0.9,1.1,1.6,1.5,2.1
			c1.1,1.2,2.1,1.3,3.3,0.3c0.9-0.8,1.7-1.9,2.3-3.5c0.6-1.5,0.8-2.4,0.5-2.8c-0.1-0.1-0.3-0.1-0.4,0c-0.1,0.1-0.4,0.5-0.9,1.3
			c-0.5,0.8-1,1.4-1.4,1.7c-1,0.9-2.1,1.1-3.1,0.5c-0.1-0.1-0.3-0.2-0.4-0.3c-0.6-0.7-0.9-1.7-0.9-3c0-1.5,0.3-3.1,1-4.7
			c0.3-0.8,0.7-1.4,1.2-1.8c0.7-0.6,1.5-0.8,2.5-0.6C259.8,257.3,260.5,257.7,261,258.3z M247.3,256c-0.7-0.8-2.1-1-4.2-0.5
			c-2.1,0.5-3.9,1.4-5.4,2.7c-1.3,1.1-2.2,2.3-2.8,3.5c-0.6,1.2-0.7,2.1-0.2,2.6c0.8,0.9,2.5,0.9,5,0c2-0.8,3.6-1.7,4.8-2.7
			c1.2-1,2-2,2.6-3C247.7,257.4,247.8,256.6,247.3,256z"/>
		<path class="st1" d="M285.9,228.8c0.5,0.7,1.2,1.7,2.2,3.1c-1,1.4-1.6,2.4-1.9,3c-1.2,2-2.2,4.4-3.1,7.1c-1.8-1.4-3.6-2.6-5.5-3.7
			c-2.1-1.2-3.8-2-5.1-2.4c-1,1.4-2.7,3.5-5,6.4c1.1,1.1,2.3,2.2,3.4,3.3c1.3,1.3,2.3,2.6,3,3.7c0.5-0.4,1.4-1.7,2.8-3.9
			c1.3,1,2.6,1.9,3.8,2.6c-2,1.5-3.9,3-5.5,4.5c-1.1,1-2.3,2.2-3.8,3.8c-0.3-0.5-0.6-1.1-1-1.8l-0.8-1.4c0.4-0.2,0.9-0.6,1.8-1
			c-1.5-2.7-4.2-5.9-8-9.6c-4-3.9-7.5-6.7-10.4-8.6c0.6-1.5,1.1-2.8,1.4-4.2c0.4-1.4,0.7-2.9,0.9-4.6c3.5,0.3,8.4,1.2,14.8,2.8
			c3.1,0.8,7.1,1.9,12.2,3.2c0.7,0.2,1.4-0.1,2.2-0.7C284.8,229.8,285.3,229.3,285.9,228.8z M264.8,230.3c-1.5-0.9-2.8-0.5-3.8,1.2
			c-0.7,1.2-0.9,2.5-0.7,4c0.2,1.5,0.9,2.6,2,3.2c1.5,0.9,2.8,0.3,4-1.7C267.9,234,267.4,231.8,264.8,230.3z"/>
		<path class="st1" d="M288.5,194.1c6.7,1.7,9.2,5.9,7.6,12.6c-0.3,1.1-0.7,2.5-1.4,4.4c-0.6,1.9-1.1,3.2-1.3,4
			c-0.6,2.3-0.5,4.1,0.2,5.4l-4.9-0.9c-0.4-0.9-0.5-1.8-0.3-2.6c0.1-0.5,0.4-1,0.9-1.5c-6.1,0.3-12.8-0.5-20.3-2.3
			c-0.9-0.2-1.6-0.1-2.1,0.4c-0.1,0.1-0.4,0.6-1.1,1.7c-0.2,0.2-0.9,0.1-2.4-0.3c-1.4-0.4-2.2-0.6-2.4-0.7c3-1.7,5-4.7,6.1-9
			c0.1-0.5,0.2-1.1,0.4-2c0.1-0.9,0.3-1.5,0.4-1.9c0.9-3.5,3-5.9,6.2-7.1c2.4-0.9,5.7-1.2,10-0.8
			C285.8,193.6,287.3,193.8,288.5,194.1z M284.2,197.2c-2.1-0.5-4-0.2-5.6,1c-1.1,0.8-2.2,2.2-3.3,4.1c-0.8,1.3-1.4,2.9-1.8,4.6
			c-0.1,0.3-0.1,0.4-0.1,0.5c1.2,0.5,2.6,1,4.1,1.4c3.2,0.8,6.1,1.2,8.7,1.1c0.8-0.7,1.5-2.1,2-4.2c0.5-2.2,0.5-4-0.1-5.5
			C287.4,198.7,286.1,197.6,284.2,197.2z"/>
		<path class="st1" d="M294.7,157.1c0.8,0.3,2,0.8,3.5,1.4c0,1.7,0,2.9,0,3.6c0.1,2.3,0.5,4.9,1.2,7.6c-2.2-0.2-4.5-0.2-6.6-0.1
			c-2.4,0.1-4.3,0.3-5.6,0.7c-0.1,1.7-0.4,4.4-0.7,8.1c1.5,0.3,3.1,0.6,4.6,1c1.8,0.4,3.3,0.9,4.6,1.5c0.2-0.6,0.3-2.2,0.3-4.8
			c1.7,0.1,3.2,0.2,4.6,0.1c-0.9,2.4-1.6,4.6-2.2,6.7c-0.4,1.4-0.8,3.1-1.1,5.3c-0.5-0.3-1.1-0.6-1.8-1l-1.5-0.8
			c0.2-0.4,0.5-1,0.9-1.8c-2.8-1.5-6.8-2.7-12-3.7c-5.5-1.1-9.9-1.6-13.4-1.6c-0.3-1.5-0.7-3-1.1-4.3c-0.4-1.3-1-2.8-1.8-4.3
			c3.1-1.7,7.7-3.6,14-5.7c3-1,7-2.3,12-3.9c0.7-0.2,1.2-0.8,1.5-1.8C294.3,158.6,294.5,157.9,294.7,157.1z M277.7,169.8
			c-1.8,0.1-2.6,1.1-2.5,3c0.1,1.4,0.6,2.7,1.6,3.7c1,1.1,2.2,1.7,3.5,1.6c1.7-0.1,2.5-1.3,2.4-3.6
			C282.5,171.3,280.8,169.7,277.7,169.8z"/>
	</g>
</g>
<g id="TEMPORADA" class="st2">
	<circle class="st3" cx="166.7" cy="177.5" r="143.1"/>
	<path id="TEMPORADA_x5F_2_x5F_" class="st4" d="M276.9,143.5c-18.5-61.6-83.5-96.6-145.1-78s-96.6,83.5-78,145.1
		s83.5,96.6,145.1,78S295.5,205.1,276.9,143.5z"/>
	<text id="TEMPORADA_1_" class="st5">	<textPath  xlink:href="#TEMPORADA_x5F_2_x5F_" startOffset="58.0893%">
<tspan  class="st1" style="font-family:'Ravie'; font-size:39.9972px;">EN TEMPORADA</tspan>	</textPath>
</text>
</g>
<g id="PRETEMPORADA" class="st2">
	<circle class="st6" cx="166.7" cy="177.5" r="143.1"/>
	<path id="PRETEMPORADA_x5F_1_x5F_" class="st4" d="M280,156.2c-11.5-63.3-72.1-105.3-135.4-93.8S39.2,134.5,50.7,197.8
		s72.1,105.3,135.4,93.8S291.5,219.5,280,156.2z"/>
	<text id="PRETEMPORADA_2_">	<textPath  xlink:href="#PRETEMPORADA_x5F_1_x5F_" startOffset="58.0893%"  class="st5">
<tspan  class="st1" style="font-family:'Ravie'; font-size:39.9808px;">PRETEMPORADA</tspan>	</textPath>
</text>
</g>
<g id="Verdura">
	<g>
		<path class="st1" d="M67.6,87.5c2.8,9,8.2,16.3,16.2,21.9c0.9,0.6,1.9,1.3,2.9,1.9c-1.1,1.5-2.8,4.5-5.1,8.9
			c-2.6,0.3-6.7-0.2-12.3-1.5c-6.4-1.5-12.3-3.6-17.6-6.2c-0.7-0.4-1.6-0.3-2.7,0.2c-0.8,0.5-1.6,0.9-2.4,1.4l-1.4-3.4
			c3.4-2.1,6.2-4,8.3-5.8c2.5-2.1,4.8-4.5,6.9-7.2c0.1-0.1,0.2-0.1,0.3,0c0.2,0.1,0.5,0.5,0.8,1.2c0.5,0.9,0.8,1.5,1,1.7
			c-0.2,0.2-0.7,0.8-1.6,1.6c-0.8,0.7-1.3,1.3-1.5,1.6c-0.3,0.4-0.3,0.6-0.2,0.7c0.5,0.4,1,0.8,1.7,1.2c3.2,2.3,6.5,4,9.9,5.2
			c3.8,1.3,7.2,1.8,10.1,1.3c0.2,0,0.4-0.1,0.5-0.3c0.1-0.2,0.1-0.3-0.1-0.4c-0.8-0.4-1.9-1.1-3.3-2.1c-7.2-5-12.1-10.8-14.8-17.4
			c-0.6,0.2-1.4,0.5-2.4,1c-0.8,0.4-1.5,0.8-2.3,1.2c-0.6-0.9-1.6-2.2-2.9-3.9c3.2-0.7,5.4-1.2,6.5-1.5c1.8-0.5,3.5-1,5.2-1.6
			C67.4,87.2,67.6,87.3,67.6,87.5z"/>
		<path class="st1" d="M110,78.9c0.2,0.3,0.3,0.4,0.4,0.6c2,3.2,2.6,6.2,1.6,8.9c-0.7,2-2.4,4-5,6c-0.4,0.3-2.2,1.5-5.3,3.5
			c-0.5,0.4-1.5,0.9-2.9,1.7c-1.2,0.7-2.1,1.2-2.7,1.7c-1.2,0.9-1.8,1.8-2,2.9l-3.2-4.5c0.2-0.4,0.4-0.8,0.9-1.1
			c0.6-0.5,1.5-0.8,2.7-0.9c-4.7-3.6-10.3-9.7-17-18.4c-0.6-0.8-1.3-1.1-2-1c-0.6,0.3-1.4,0.6-2.2,0.9c-0.3,0-0.8-0.4-1.4-1.2
			c-0.4-0.5-0.6-0.9-0.6-1c1.1-0.3,3.2-1.3,6.5-3.2c3.4-1.9,6-3.6,8-5.1c2.3-1.7,5-3.9,8.1-6.5c0.4,1.6,0.9,3.2,1.6,4.8
			c0.6,1.3,1.2,2.7,1.8,4c-0.1,0.1-0.4,0.4-0.8,0.8c-0.3,0.3-0.6,0.6-0.8,0.8c-0.2,0.1-0.3,0.1-0.5,0c-1.3-1.6-2.4-2.6-3.2-3
			c-1.3-0.6-3.1,0-5.4,1.7c-0.2,0.1-1.1,0.9-2.7,2.2c0.6,2,1.8,4.1,3.5,6.4c0.3,0.4,0.8,1,1.3,1.7c0.6,0.7,1,1.2,1.2,1.5
			c0.7-0.6,1.2-1.2,1.7-1.6c1.1-1.1,1.6-1.8,1.6-2c-0.2-0.4-0.3-0.7-0.6-1c-0.4-0.5-0.9-0.9-1.5-1.1c-0.5-0.1-1-0.2-1.4-0.4
			c0.2-0.6,0.4-1.1,0.6-1.6c0.5-1.2,1.1-2,1.6-2.4c0.5,0.3,1.1,0.9,1.7,1.7c0.2,0.3,0.5,0.6,0.8,1.2s0.6,0.9,0.8,1.1
			c0.6,0.8,1.9,2.1,3.7,3.8c0.2,0.2,0.3,0.3,0.3,0.4c0,0.1,0,0.1-0.1,0.2c-0.9,0.4-2.3,1.3-4.2,2.6c-0.9,0.6-1.8,1.2-2.7,1.8
			c3.2,3.8,5.9,6,8.2,6.6c2,0.5,4.2-0.1,6.7-2c0.8-0.6,1.3-1.3,1.7-2.2c0.3-0.8,0.4-1.3,0.2-1.5c-0.1-0.1-0.2-0.1-0.4,0
			c-0.2,0.1-0.4,0.3-0.6,0.5c-0.3,0.2-0.5,0.4-0.7,0.6c-1.8,1.3-3.6,1.4-5.5,0.1c-0.3-0.2-0.6-0.5-0.8-0.8c-0.7-0.9-0.8-2-0.5-3.4
			c0.4-1.4,1.3-3,2.7-4.6c0.4-0.5,0.8-0.8,1.2-1.1C106.5,76.5,108.3,76.8,110,78.9z"/>
		<path class="st1" d="M147.1,65.1c0.6,1.8,0.6,3.7,0.2,6c-0.6,3.1-2.2,5.5-4.9,7c-1.8,1-3.3,1.8-4.6,2.2c-3.9,1.3-6.6,0.4-8.1-2.5
			c-0.5-0.9-1.2-2.7-2.2-5.3c-0.7-1.8-1.4-3.2-2.1-3.9c-1-1.1-2.3-1.9-4.1-2.3c0,0.4,0.3,1.3,0.8,2.9c1.3,4,3.3,8.2,6.1,12.7
			l-7.7,2.6c-3.5,1.2-5.4,1.9-5.5,2c0-0.1-0.1-0.1-0.1-0.2c-0.5-1.5-0.6-2.4-0.2-2.6c0.6-0.3,1.2-0.6,1.8-1c0.6-0.5,0.7-1.2,0.4-2.1
			c-1.4-5.2-2.4-9.2-2.9-11.9c-0.9-4.8-1.4-9.3-1.4-13.7c-0.2,0.1-0.5,0.3-1,0.4c-1.2,0.4-2.2,0.3-3.1-0.3l-0.5-5.2
			c2.5,1.2,4.9,1.9,7.2,2c1.9,0.1,4-0.3,6.3-1c1-0.3,2.6-0.9,4.7-1.9c2.2-0.9,3.5-1.5,4-1.6c2.4-0.8,4.5-0.7,6.1,0.3
			c1.4,0.9,2.5,2.3,3.1,4.3c1,3,0.5,5.8-1.5,8.4c-1.7,2.3-4.2,3.9-7.5,5c-1.1,0.4-2.2,0.6-3.5,0.9c2.6-0.2,4.6,0,5.9,0.6
			c1.1,0.5,1.8,1.3,2.1,2.4c0.2,0.5,0.3,1.3,0.5,2.5s0.4,2.1,0.6,2.7c0.6,1.7,1.6,2.3,3.2,1.7c1.2-0.4,2.5-1.3,3.8-2.5
			c1.3-1.2,1.8-2.1,1.7-2.6c-0.1-0.2-0.2-0.2-0.4-0.2c-0.2,0.1-0.6,0.4-1.5,0.9c-0.8,0.6-1.6,1-2.1,1.1c-1.5,0.5-2.6,0.2-3.3-0.9
			c-0.1-0.1-0.2-0.3-0.3-0.5c-0.3-0.9-0.2-2.1,0.4-3.4c0.6-1.5,1.7-3,3.1-4.3c0.7-0.7,1.4-1.1,2-1.3c1-0.3,1.9-0.2,2.8,0.5
			C146.3,63.5,146.8,64.2,147.1,65.1z M134.2,56.9c-0.4-1.1-1.7-1.9-4-2.4c-2.3-0.4-4.5-0.3-6.6,0.4c-1.8,0.6-3.2,1.3-4.3,2.3
			c-1.1,1-1.6,1.8-1.3,2.6c0.4,1.3,2.1,2,5.1,2.1c2.4,0.1,4.4-0.2,6-0.7c1.6-0.5,2.9-1.2,3.9-1.9C134.1,58.4,134.5,57.6,134.2,56.9z
			"/>
		<path class="st1" d="M179.9,64.2c-0.1,7.6-3.9,11.4-11.5,11.3c-1.2,0-2.9-0.1-5-0.3c-2.2-0.2-3.7-0.3-4.6-0.3
			c-2.6,0-4.5,0.5-5.7,1.6l-0.3-5.5c0.9-0.7,1.7-1,2.7-1c0.6,0,1.2,0.2,1.8,0.6c-1.9-6.4-2.8-13.8-2.7-22.3c0-1.1-0.3-1.8-0.9-2.2
			c-0.1,0-0.8-0.3-2.1-0.7c-0.2-0.1-0.3-1-0.3-2.6c0-1.6,0.1-2.5,0.2-2.8c2.5,2.8,6.3,4.2,11.2,4.2c0.5,0,1.3,0,2.2-0.1
			c1-0.1,1.7-0.1,2.1-0.1c4,0,7.1,1.6,9.2,4.8c1.6,2.3,2.7,5.9,3.5,10.5C179.8,61.2,179.9,62.8,179.9,64.2z M175.5,60.4
			c0-2.4-0.8-4.3-2.5-5.7c-1.1-0.9-2.9-1.8-5.3-2.5c-1.6-0.5-3.4-0.8-5.4-0.8c-0.3,0-0.5,0-0.6,0c-0.3,1.4-0.4,3-0.4,4.8
			c0,3.6,0.3,6.8,1,9.6c1,0.7,2.6,1,5,1c2.5,0,4.4-0.5,5.9-1.5C174.8,64.1,175.5,62.5,175.5,60.4z"/>
		<path class="st1" d="M218.5,53.9c-0.2,0.7-0.5,1.4-0.8,2c-0.3-0.1-0.7-0.3-1.2-0.6c-0.5-0.3-0.8-0.4-1-0.5c-0.4-0.1-0.7,0-0.9,0.5
			c-2.3,6.5-3.5,9.9-3.6,10.1c-1.5,4.1-3.1,7.8-4.7,11.2c1-0.4,2-0.4,2.9-0.1c0.6,0.2,1.1,0.4,1.5,0.8l-1,4.1
			c-0.1,0-0.2-0.1-0.4-0.2c-0.2-0.1-0.3-0.1-0.4-0.2c-1.7-0.5-3.7-0.6-6.2-0.4c-2.3,0.2-4.3,0.7-6,1.4c-0.3,0.1-0.5,0.1-0.6,0.1
			c-0.1-0.1-0.1-0.2-0.1-0.4c2-4,3.2-6.7,3.6-8.1c-2.5,2.2-5,3.7-7.6,4.4c-2,0.5-3.8,0.6-5.4,0.1c-1.8-0.6-3-1.7-3.6-3.3
			c-0.7-1.7-0.6-3.9,0.1-6.4c1.2-4,3.5-7.6,6.8-11c2.1-2.2,4.4-4,6.9-5.5c-2.3-0.7-4.5-1.2-6.8-1.6c-0.1,0-0.2-0.1-0.1-0.2
			c1.1-1.3,1.8-2.3,2.3-3c0.1-0.1,0.2-0.1,0.3-0.1c2.7,1,5,1.8,6.8,2.4c1.7,0.5,3.7,1.1,6,1.7c-2.8,2.5-5.4,5.4-7.8,8.7
			c-2.4,3.3-4.1,6.2-4.8,8.7c-0.4,1.3-0.5,2.5-0.3,3.4c0.2,1,0.7,1.6,1.5,1.8c1.2,0.4,2.8-0.6,4.8-2.9c2.2-2.5,4.3-5.9,6.5-10.2
			c1.8-3.7,3.3-7.4,4.4-11.1c0.1-0.2,0.2-0.5,0.3-0.9c0.1-0.3,0.2-0.5,0.2-0.6c0.1-0.3,0.3-0.3,0.5-0.1
			C212.2,49.4,214.9,51.3,218.5,53.9z"/>
		<path class="st1" d="M244.3,97.2c-1.1,1.5-2.7,2.7-4.7,3.6c-2.9,1.3-5.7,1.3-8.5,0.1c-1.9-0.8-3.4-1.6-4.5-2.5
			c-3.3-2.4-4.2-5.1-2.6-8.1c0.5-0.9,1.5-2.5,3.1-4.9c1.1-1.6,1.8-3,2-4c0.4-1.4,0.2-3-0.5-4.7c-0.3,0.2-0.9,1-1.9,2.3
			c-2.5,3.4-4.7,7.5-6.8,12.3l-6.6-4.7c-3-2.2-4.6-3.3-4.8-3.3c0-0.1,0.1-0.1,0.1-0.2c0.9-1.3,1.6-1.8,2-1.7
			c0.6,0.3,1.2,0.6,1.8,0.9c0.7,0.2,1.3-0.1,2-0.9c3.4-4.2,6.1-7.3,8-9.3c3.4-3.5,6.8-6.6,10.3-9.1c-0.2-0.1-0.5-0.3-0.9-0.5
			c-1-0.7-1.5-1.6-1.6-2.7l3.9-3.4c0.5,2.8,1.3,5.1,2.6,7c1.1,1.6,2.6,3.1,4.5,4.5c0.8,0.6,2.2,1.5,4.3,2.8c2,1.2,3.2,2,3.6,2.3
			c2,1.5,3.1,3.2,3.3,5.2c0.1,1.7-0.4,3.4-1.7,5c-1.9,2.5-4.4,3.8-7.7,3.6c-2.9-0.1-5.7-1.1-8.4-3.2c-0.9-0.7-1.8-1.4-2.7-2.3
			c1.7,2.1,2.6,3.8,2.9,5.2c0.2,1.1,0,2.2-0.7,3.1c-0.3,0.4-0.9,1-1.7,1.8c-0.9,0.8-1.5,1.5-1.9,2.1c-1,1.4-0.9,2.6,0.4,3.6
			c1.1,0.8,2.5,1.3,4.3,1.6c1.7,0.3,2.8,0.3,3.1-0.2c0.1-0.1,0.1-0.3-0.1-0.4c-0.1-0.1-0.7-0.3-1.6-0.7s-1.7-0.7-2.2-1.1
			c-1.2-0.9-1.7-2-1.2-3.2c0-0.2,0.1-0.3,0.3-0.5c0.6-0.8,1.6-1.3,3-1.7c1.6-0.4,3.4-0.4,5.3,0c0.9,0.2,1.7,0.5,2.3,0.9
			c0.8,0.6,1.2,1.5,1.2,2.5C245.1,95.7,244.8,96.5,244.3,97.2z M243.5,82c0.7-1,0.6-2.5-0.4-4.6c-1-2.1-2.4-3.8-4.2-5.1
			c-1.5-1.1-2.9-1.8-4.4-2.2c-1.4-0.4-2.4-0.2-2.9,0.4c-0.8,1.1-0.4,2.9,1.2,5.3c1.3,2,2.7,3.5,4.1,4.5c1.4,1,2.6,1.7,3.8,2.1
			C242.1,82.8,243,82.7,243.5,82z"/>
		<path class="st1" d="M260,130.6c-0.9,0.2-2.3,0.4-4.1,0.8c-1-1.6-1.7-2.7-2.1-3.3c-1.5-2.1-3.3-4.3-5.6-6.4
			c2.2-1.2,4.3-2.4,6.3-3.8c2.2-1.5,3.8-2.8,4.8-4c-0.9-1.7-2.2-4.3-4-7.9c-1.6,0.6-3.2,1.2-4.9,1.8c-1.9,0.6-3.6,1.1-5.1,1.3
			c0.2,0.7,1.1,2.2,2.5,4.6c-1.6,0.9-3.1,1.7-4.4,2.6c-0.6-2.8-1.2-5.3-1.9-7.5c-0.5-1.5-1.1-3.4-2-5.6c0.6,0,1.4-0.1,2.3-0.2
			l1.8-0.1c0.1,0.5,0.1,1.2,0.2,2.2c3.4-0.3,7.9-1.4,13.3-3.5c5.7-2.2,10.2-4.3,13.4-6.4c1.2,1.3,2.3,2.4,3.5,3.4c1.2,1,2.6,2,4.2,3
			c-1.9,3.4-5.1,7.8-9.7,13.5c-2.2,2.7-5.2,6.2-8.9,10.6c-0.5,0.6-0.6,1.5-0.3,2.6C259.5,129,259.8,129.8,260,130.6z M268.4,108.8
			c1.6-1.1,1.8-2.5,0.6-4.3c-0.9-1.3-2.1-2.1-3.7-2.6c-1.6-0.5-3-0.3-4.2,0.5c-1.5,1.1-1.6,2.6-0.1,4.7
			C263.2,110.2,265.6,110.8,268.4,108.8z"/>
	</g>
</g>
<g id="Fruta" class="st2">
	<path id="SVGID_x5F_1_x5F_" class="st4" d="M271.9,220.2c-24.4,59.5-92.5,88-152,63.6s-88-92.5-63.6-152s92.5-88,152-63.6
		S296.3,160.7,271.9,220.2z"/>
	<text class="st5">	<textPath  xlink:href="#SVGID_x5F_1_x5F_" startOffset="75.651%">
<tspan  class="st1" style="font-family:'Ravie'; font-size:44px; letter-spacing:250;">FRUTA</tspan>	</textPath>
</text>
</g>
<g id="guia" class="st2">
	<rect x="0.5" y="118.6" class="st7" width="322" height="148.2"/>
</g>
<g id="Arbol">
	<g>
		<g>
			<path class="st1" d="M205,129.9c0,0.1-0.1,0.3-0.1,0.4c0.1,1.1,0.3,2.3,0.5,3.4c1.3,6.4,0.1,12.2-4.4,17c-0.9,1-1.8,2-2.8,2.9
				c-3,2.7-6.1,5.3-9,8c-5.5,5.3-10.7,10.9-15,17.3c-0.5,0.7-1.1,1.3-1.6,1.9c-0.6-5.9-0.9-11.7-1-17.5c-0.1-7,0.2-14,2.7-20.8
				c2.4-6.5,6.6-11,13.3-12.9c1.1-0.3,2.3-0.6,3.4-0.9c-10.7-0.1-16.7,6.2-20.7,15.4c-0.2-0.8-0.3-1.3-0.5-1.8
				c-1-3.9-1.8-7.8-3-11.6c-2-6.3-5.1-12-10.4-16.2c-2.8-2.2-6-3.6-9.6-4.2c5.2,2.8,9.8,6.2,12.5,11.8c2.6,5.4,3.7,11,4.1,16.9
				c-3.4-3.2-7-6.2-11.4-7.7s-8.9-1.9-13.5-0.9c1,0.3,2,0.4,3,0.5c2,0.3,4.1,0.5,6.1,1c5.9,1.4,9.5,5.9,13.3,10.2
				c2.7,3.1,4.1,6.7,4.3,10.8c0.5,12.5,0.9,24.9,1.3,37.4c0.1,2.4,0,4.7,0,7.6c-0.9-1-1.4-1.6-1.9-2.3c-1.4-1.9-2.7-3.9-4.3-5.7
				c-4.7-5.5-9.9-10.4-15.6-14.9c-7.2-5.5-9.8-12.7-7.4-21.6c0.2-0.6,0.3-1.3,0.4-1.9c0.1-0.6,0.2-1.1,0.3-1.7
				c-2.2,3.2-3.2,6.7-3.3,10.6c-0.1,3.8,1.1,7.4,2.7,11.5c-9.2-3.5-17.9-3-26.4,0.2c3.3-0.2,6.6-0.6,9.9-0.8c3.9-0.3,7.8,0,11.5,1.5
				c9,3.7,15.4,10.5,20.6,18.4c2.7,4,4.8,8.3,7.2,12.5c0.2,0.3,0.2,0.6,0.2,0.7c-4.4-0.7-8.7-1.7-13.1-2.1
				c-4.5-0.4-8.9,0.3-13.2,2.1c-4.7,1.9-9.9,4.8-11.4,6.9c1.7-0.9,3.1-1.7,4.5-2.4c6.9-3.5,13.9-5.4,21.7-3.4
				c4.5,1.2,8.5,3.2,10.8,7.4c2.6,4.8,3.9,9.9,4,15.4c0.1,6.8-1.1,13.5-3.3,19.9c-1.7,5-3.8,9.8-7.1,13.9c-1.1,1.4-2.2,2.9-3.5,4.7
				c1.2,0.1,2.1,0.4,2.9,0.3c2.1-0.2,4.2-0.6,6.3-0.7c2.6-0.2,5.2-0.3,7.7-0.2c3.2,0.2,6.3,0.7,9.5,0.9c2.2,0.1,2.4-0.4,1.7-2.5
				c-0.6-1.9-1.5-3.8-1.7-5.7c-0.6-7.9-1.1-15.8-1.3-23.7c-0.2-8.2-0.3-16.4,0-24.6c0.2-5.2,0.6-10.5,2.2-15.4
				c3.2-9.7,9.6-16.8,19.8-19.8c5.2-1.5,10.5-2.2,15.8-0.5c3.5,1.2,6.7,2.9,10.1,4.3c0.8,0.4,1.6,0.7,2.4,1.1
				c-5.2-4.7-11.3-7.5-18.2-8.8c-7-1.3-13.5,1-20.4,2.9c0.6-1.1,0.9-1.8,1.4-2.4c3.6-4.2,6.9-8.7,10.8-12.5
				c6.8-6.5,15.2-8.6,24.4-7.7c2.4,0.2,4.8,0.5,7.2,0.7c-8.5-3.5-17.2-3.3-26.2-0.9C208.1,144.8,208.2,137.4,205,129.9z
				 M103.1,145.2c1.4,5,3.4,9.2,6.1,13.2c1.9,2.9,4.3,5.2,7.6,6.4c2.8,1,5.8,1.7,8.7,2.4c2.2,0.5,4.5,0.6,7.1,0.9
				c-0.3-1-0.3-1.5-0.5-1.9c-1.8-3.8-3.5-7.8-5.6-11.5c-1.5-2.8-3.8-5.1-6.8-6.2c-3-1-6.1-1.9-9.2-2.5
				C108.1,145.5,105.7,145.4,103.1,145.2z M200.7,163c0.6,0.6,0.9,0.9,1.3,1.2c3.8,3.1,8.2,5.3,12.8,6.8c2,0.6,4.3,1.1,6.3,0.9
				c4.9-0.5,9.3-2.6,13.5-5.1c1-0.6,1.8-1.4,3.1-2.3c-3.3-2-6.2-4-9.4-5.5c-2.7-1.2-5.7-2.4-8.6-2.6
				C212.8,156.1,206.8,159.5,200.7,163z M209.8,147.8c0.2,0.2,0.3,0.3,0.4,0.3c0.3,0,0.5,0,0.8,0c4.7-0.7,9.1-2.3,13.3-4.4
				c2.3-1.2,4.6-2.5,5.9-4.9c1.3-2.5,2.7-5,3.6-7.6c1-2.9,1.5-5.9,2.3-9.1c-4.4,0.6-8.1,1.6-11.6,3.3c-2.6,1.3-5.5,2.7-7.4,4.8
				C212.7,135.1,211.1,141.4,209.8,147.8z M184.3,99.3c-4,2.4-7.4,5.2-10.4,8.4c-2,2.2-3.8,4.6-4.5,7.6c-1,4.7-0.8,9.4-0.2,14.1
				c0.1,1.3,0.5,2.5,0.8,4.3c2.5-1.9,4.7-3.4,6.7-5.1c3.7-3.2,7.4-6.4,8.5-11.4C186.6,111.2,186,105.3,184.3,99.3z M179.3,194.5
				c4.2,1.5,7.9,1.3,11.5,1.4c5.9,0.1,11.1-1.5,15.1-6c2.8-3.1,5.4-6.3,7.3-10.5c-2.1-0.3-3.9-0.6-5.8-0.8c-7.9-0.7-15.3,0-20.8,6.7
				C184.2,188.3,181.9,191.3,179.3,194.5z M114.9,185.7c2.4,3.6,5.5,6.5,8.8,9c2.1,1.5,4.5,3,6.9,3.7c4.5,1.2,9.1,0.6,13.6-0.5
				c2-0.5,3.9-1,6.4-1.7c-2.1-2.2-3.7-4-5.4-5.6c-4.9-4.7-10.1-8.7-17.6-7.9C123.3,183.2,119.1,184.1,114.9,185.7z M208.3,220.6
				c-1.6-4.4-3.6-8.3-6.1-11.9c-2.2-3.2-5-5.8-8.8-6.8c-3.7-1-7.5-1.6-11.3-2.2c-1.3-0.2-2.6,0-4.1,0c0.2,0.6,0.2,1,0.4,1.4
				c2.1,3.9,3.9,7.9,6.3,11.5c1.4,2.1,3.4,4.2,5.6,5.2c3.3,1.5,7,2.2,10.6,2.8C203.2,220.9,205.7,220.6,208.3,220.6z M146.6,207.9
				c-0.5,0-0.9-0.1-1.2-0.1c-3.8,0.7-7.6,1.3-11.3,2.3c-2.9,0.7-5.7,1.8-7.8,4c-4.5,4.7-6.7,10.5-8.5,17c2.4-0.3,4.6-0.5,6.7-0.8
				c8-1.2,14.5-4.5,18.1-12.1C144.2,214.9,145.9,211.7,146.6,207.9z M191,132.3c-2.5,2-4.7,3.6-6.7,5.5c-2.9,2.6-5.7,5.4-7.1,9.2
				c-1.9,5.3-1.3,10.8-0.5,16.2c0.2,1.2,0.6,2.4,0.9,3.9c1-0.6,1.7-1,2.3-1.5c2.8-2.5,5.7-4.9,8.3-7.6c2.1-2.2,4-4.7,4.2-7.9
				c0.2-3.8,0.1-7.7-0.1-11.5C192.2,136.7,191.6,134.8,191,132.3z M161.9,181.7c0-5.2-0.5-9.9-1.8-14.5c-1-3.6-2.7-6.6-5.7-9
				c-3.3-2.6-7-4.5-10.8-6.1c-0.8-0.3-1.6-0.5-2.5-0.8c-0.3,4.9,0.3,9.4,1.5,13.9c0.9,3.5,2.5,6.8,5.6,8.9c3.5,2.4,7.2,4.6,10.9,6.7
				C159.7,181.3,160.7,181.3,161.9,181.7z M113.3,167c-2.6-1.7-5-3.4-7.5-5c-4.5-2.9-9.3-3.3-14.3-1.4c-2.6,1-5.1,2.2-8,3.5
				c2.3,1.7,4.1,3.2,6,4.4c4.6,3,9.5,4.5,15,2.5C107.4,170,110.6,169.4,113.3,167z M225.6,202.8c-3-2.8-5.9-5.3-9.5-6.8
				c-1.9-0.8-4-1.5-6-1.5c-4.3,0.1-8.4,1.4-12.3,3.2c-0.4,0.2-0.7,0.4-1.3,0.8c1.7,1.5,3.2,2.9,4.9,4.1c4.1,2.9,8.3,5.5,13.7,4.3
				C218.7,206.1,222.3,205.1,225.6,202.8z M253.7,175.8c-1.2-0.8-2.3-1.6-3.4-2.2c-3.7-2.2-7.4-4.6-11.9-4.1
				c-3.2,0.4-6.3,1.7-9.4,2.8c-1.7,0.6-3.1,1.7-4.8,2.6C235.7,183.8,243,183.9,253.7,175.8z M101.2,200c9.9,9.3,18.4,9.7,29.1,2.6
				c-2.8-2.7-6-4.6-9.5-6.1c-1.6-0.7-3.5-1.3-5.3-1.4C110.3,195,105.8,197.4,101.2,200z M235.8,201.9c0.4-10.6-9.2-20.5-20.2-21
				c0.7,5.4,2,10.7,5.6,14.8C224.9,199.8,230.2,201.1,235.8,201.9z M254.7,146.6c-2.8-1.6-5.2-3.1-7.9-4.3c-6.7-3.2-16-1.6-21.6,3.8
				c4.6,3.5,9.4,6.7,15.3,6.7C245.8,152.7,250.3,150.1,254.7,146.6z M153.3,109.1c-0.3-2-0.5-3.9-0.8-5.7
				c-1.2-6.1-3.3-11.6-9.6-14.2c-2.6-1.1-5.2-2.1-7.9-3.2C134.1,97.9,141.9,107.7,153.3,109.1z M154.9,127.7
				c-1.7-2.8-3.1-5.4-4.7-7.9c-4.6-7.4-12.3-8.4-20.4-7.3C135,126,142.2,128.9,154.9,127.7z M210.5,133.2c0.9-1.1,1.9-2.1,2.8-3.2
				c4.1-5.2,7.2-10.8,4.7-17.7c-1-2.6-2-5.2-3-7.9c-0.3,0-0.5,0-0.8-0.1c-1.9,2.7-3.9,5.4-5.8,8.2c-4.3,6.3-1,15.5,1.8,20.6
				C210.2,133.1,210.2,133.1,210.5,133.2z M124.7,126.2c-0.7,2.2-1.3,4-1.7,5.8c-1,4.6-2,9.4,0.9,13.7c1.9,2.8,4.3,5.4,6.5,8.1
				c0.4,0.4,0.9,0.7,1.6,1.2c1.9-5.3,3.6-10.6,2.4-16C133.1,133.5,129,129.9,124.7,126.2z M117.2,174.5c-2.6,0.5-4.7,0.8-6.8,1.4
				c-4.6,1.3-9.1,2.8-11.6,7.5c-1.8,3.3-3.1,6.8-3.9,10.9c5.3-0.7,10.4-1.5,14.5-4.7C114,185.9,115.5,180.4,117.2,174.5z
				 M165.3,117.7c1.9-5.7,3.7-11.3,1.8-17.1c-1.6-4.8-5.3-8.2-9.3-11.4C152.7,100,155.7,111.6,165.3,117.7z M232.8,183.8
				c1.8,4.7,3.6,9.4,8.2,11.9c3.7,2.1,7.8,2.5,12.1,1.7C249.1,186.5,244.6,183.4,232.8,183.8z M116.4,103.9
				c8.5,8.3,15.1,8.2,23.9,2.4C134.3,99,123.3,97.9,116.4,103.9z M102.5,175.4c-10-3.9-19.2-0.8-22.8,7.6
				C89.8,187,96.8,184.7,102.5,175.4z M202.8,109.5c-10.2,1.1-17.2,8.2-17,17.1C194.5,127.7,202.7,119.6,202.8,109.5z M95.7,218.8
				c4.4,1.9,9,2.7,13.4,1.3c4.3-1.4,7.2-4.9,9.8-8.6C108,207.8,102.5,208.8,95.7,218.8z M137,135.5c4.6,10.1,10.9,13.2,21.5,10.7
				C155.6,137.4,145.2,132.2,137,135.5z"/>
			<path class="st1" d="M205,129.9c3.2,7.5,3.1,14.8-0.9,22.2c8.9-2.4,17.6-2.6,26.2,0.9c-2.4-0.2-4.8-0.5-7.2-0.7
				c-9.2-0.9-17.6,1.2-24.4,7.7c-4,3.8-7.3,8.3-10.8,12.5c-0.5,0.6-0.8,1.3-1.4,2.4c7-1.9,13.5-4.2,20.4-2.9s12.9,4.1,18.2,8.8
				c-0.8-0.4-1.6-0.8-2.4-1.1c-3.4-1.5-6.6-3.2-10.1-4.3c-5.3-1.8-10.5-1.1-15.8,0.5c-10.2,3-16.6,10.1-19.8,19.8
				c-1.6,4.8-2,10.2-2.2,15.4c-0.3,8.2-0.3,16.4,0,24.6c0.2,7.9,0.7,15.8,1.3,23.7c0.1,1.9,1,3.8,1.7,5.7c0.7,2.1,0.5,2.6-1.7,2.5
				c-3.2-0.2-6.3-0.8-9.5-0.9c-2.6-0.1-5.2,0-7.7,0.2c-2.1,0.1-4.2,0.5-6.3,0.7c-0.8,0.1-1.7-0.2-2.9-0.3c1.3-1.8,2.4-3.2,3.5-4.7
				c3.3-4.2,5.4-9,7.1-13.9c2.2-6.4,3.4-13.1,3.3-19.9c-0.1-5.4-1.3-10.6-4-15.4c-2.3-4.2-6.2-6.2-10.8-7.4
				c-7.8-2-14.8-0.1-21.7,3.4c-1.4,0.7-2.8,1.5-4.5,2.4c1.5-2,6.7-4.9,11.4-6.9c4.3-1.7,8.7-2.5,13.2-2.1c4.4,0.4,8.7,1.4,13.1,2.1
				c0-0.1-0.1-0.4-0.2-0.7c-2.4-4.2-4.5-8.5-7.2-12.5c-5.3-7.9-11.6-14.7-20.6-18.4c-3.6-1.5-7.6-1.8-11.5-1.5
				c-3.3,0.2-6.6,0.6-9.9,0.8c8.6-3.2,17.3-3.7,26.4-0.2c-1.5-4.1-2.7-7.6-2.7-11.5c0.1-3.8,1.1-7.3,3.3-10.6
				c-0.1,0.6-0.2,1.1-0.3,1.7c-0.1,0.6-0.2,1.3-0.4,1.9c-2.4,8.9,0.3,16,7.4,21.6c5.7,4.4,11,9.3,15.6,14.9c1.5,1.8,2.8,3.8,4.3,5.7
				c0.5,0.7,1.1,1.3,1.9,2.3c0-2.9,0.1-5.2,0-7.6c-0.4-12.5-0.8-24.9-1.3-37.4c-0.2-4.1-1.6-7.7-4.3-10.8
				c-3.7-4.3-7.4-8.8-13.3-10.2c-2-0.5-4-0.7-6.1-1c-1-0.1-2-0.2-3-0.5c4.6-1,9.1-0.6,13.5,0.9s8,4.4,11.4,7.7
				c-0.4-5.9-1.5-11.5-4.1-16.9c-2.7-5.6-7.2-9-12.5-11.8c3.6,0.6,6.8,2,9.6,4.2c5.3,4.2,8.4,9.9,10.4,16.2c1.2,3.8,2,7.7,3,11.6
				c0.1,0.5,0.3,1,0.5,1.8c4-9.3,10.1-15.6,20.7-15.4c-1.1,0.3-2.3,0.5-3.4,0.9c-6.7,1.9-10.9,6.4-13.3,12.9
				c-2.5,6.7-2.8,13.7-2.7,20.8c0.1,5.8,0.4,11.6,1,17.5c0.5-0.6,1.1-1.2,1.6-1.9c4.3-6.3,9.5-12,15-17.3c2.9-2.8,6-5.3,9-8
				c1-0.9,1.9-2,2.8-2.9c4.6-4.9,5.7-10.6,4.4-17c-0.2-1.1-0.3-2.2-0.5-3.4C204.9,130.2,205,130.1,205,129.9z"/>
			<path class="st1" d="M103.1,145.2c2.6,0.3,5,0.3,7.3,0.7c3.1,0.6,6.2,1.5,9.2,2.5c3.1,1.1,5.3,3.4,6.8,6.2
				c2.1,3.7,3.8,7.6,5.6,11.5c0.2,0.4,0.2,0.9,0.5,1.9c-2.6-0.3-4.8-0.4-7.1-0.9c-2.9-0.6-5.9-1.4-8.7-2.4c-3.3-1.1-5.7-3.5-7.6-6.4
				C106.6,154.4,104.6,150.2,103.1,145.2z"/>
			<path class="st1" d="M200.7,163c6.1-3.5,12.1-6.9,19.1-6.6c2.9,0.1,5.9,1.3,8.6,2.6c3.2,1.5,6.1,3.5,9.4,5.5
				c-1.2,0.9-2.1,1.8-3.1,2.3c-4.2,2.5-8.6,4.6-13.5,5.1c-2.1,0.2-4.3-0.2-6.3-0.9c-4.7-1.5-9-3.7-12.8-6.8
				C201.6,163.9,201.3,163.6,200.7,163z"/>
			<path class="st1" d="M209.8,147.8c1.3-6.3,2.9-12.7,7.3-17.7c1.9-2.1,4.8-3.5,7.4-4.8c3.5-1.7,7.2-2.8,11.6-3.3
				c-0.8,3.2-1.3,6.2-2.3,9.1c-0.9,2.6-2.2,5.1-3.6,7.6c-1.3,2.4-3.6,3.8-5.9,4.9c-4.2,2.1-8.6,3.7-13.3,4.4c-0.3,0-0.5,0-0.8,0
				C210.1,148,210,147.9,209.8,147.8z"/>
			<path class="st1" d="M184.3,99.3c1.7,6,2.3,11.9,1,17.8c-1.1,4.9-4.9,8.2-8.5,11.4c-2,1.8-4.3,3.3-6.7,5.1
				c-0.3-1.8-0.7-3-0.8-4.3c-0.6-4.7-0.8-9.4,0.2-14.1c0.7-3,2.4-5.4,4.5-7.6C176.9,104.4,180.3,101.6,184.3,99.3z"/>
			<path class="st1" d="M179.3,194.5c2.6-3.2,4.9-6.2,7.3-9.2c5.5-6.7,12.9-7.4,20.8-6.7c1.9,0.2,3.7,0.5,5.8,0.8
				c-1.9,4.1-4.5,7.3-7.3,10.5c-4.1,4.6-9.2,6.1-15.1,6C187.2,195.8,183.5,195.9,179.3,194.5z"/>
			<path class="st1" d="M114.9,185.7c4.2-1.6,8.4-2.5,12.8-3c7.5-0.8,12.7,3.2,17.6,7.9c1.7,1.7,3.3,3.5,5.4,5.6
				c-2.5,0.7-4.4,1.3-6.4,1.7c-4.5,1.1-9.1,1.6-13.6,0.5c-2.5-0.6-4.8-2.1-6.9-3.7C120.4,192.2,117.4,189.3,114.9,185.7z"/>
			<path class="st1" d="M208.3,220.6c-2.6,0-5.1,0.3-7.4-0.1c-3.6-0.6-7.3-1.3-10.6-2.8c-2.2-1-4.3-3.1-5.6-5.2
				c-2.4-3.6-4.2-7.6-6.3-11.5c-0.2-0.4-0.2-0.8-0.4-1.4c1.4,0,2.8-0.2,4.1,0c3.8,0.6,7.6,1.2,11.3,2.2c3.8,1,6.6,3.6,8.8,6.8
				C204.7,212.3,206.7,216.2,208.3,220.6z"/>
			<path class="st1" d="M146.6,207.9c-0.7,3.7-2.4,7-4,10.3c-3.6,7.7-10.2,11-18.1,12.1c-2.1,0.3-4.2,0.5-6.7,0.8
				c1.8-6.5,4-12.3,8.5-17c2.1-2.2,5-3.3,7.8-4c3.7-1,7.5-1.6,11.3-2.3C145.7,207.8,146.1,207.9,146.6,207.9z"/>
			<path class="st1" d="M191,132.3c0.5,2.5,1.2,4.4,1.3,6.3c0.2,3.8,0.3,7.7,0.1,11.5c-0.2,3.1-2.1,5.7-4.2,7.9
				c-2.6,2.7-5.5,5.1-8.3,7.6c-0.6,0.5-1.3,0.9-2.3,1.5c-0.3-1.4-0.7-2.7-0.9-3.9c-0.8-5.4-1.4-10.9,0.5-16.2
				c1.4-3.8,4.2-6.6,7.1-9.2C186.3,136,188.5,134.3,191,132.3z"/>
			<path class="st1" d="M161.9,181.7c-1.2-0.3-2.2-0.4-2.9-0.9c-3.7-2.2-7.3-4.3-10.9-6.7c-3.1-2.1-4.7-5.3-5.6-8.9
				c-1.2-4.5-1.8-9-1.5-13.9c0.9,0.3,1.7,0.5,2.5,0.8c3.9,1.6,7.5,3.5,10.8,6.1c3,2.3,4.7,5.4,5.7,9
				C161.3,171.8,161.8,176.5,161.9,181.7z"/>
			<path class="st1" d="M113.3,167c-2.7,2.4-5.9,3-8.8,4.1c-5.5,2-10.4,0.5-15-2.5c-1.9-1.2-3.7-2.7-6-4.4c3-1.3,5.5-2.5,8-3.5
				c5-1.9,9.8-1.5,14.3,1.4C108.3,163.6,110.7,165.3,113.3,167z"/>
			<path class="st1" d="M225.6,202.8c-3.3,2.3-6.9,3.3-10.5,4.1c-5.4,1.2-9.6-1.4-13.7-4.3c-1.7-1.2-3.1-2.6-4.9-4.1
				c0.6-0.4,0.9-0.7,1.3-0.8c3.9-1.8,8-3.1,12.3-3.2c2,0,4.1,0.7,6,1.5C219.7,197.5,222.6,200,225.6,202.8z"/>
			<path class="st1" d="M253.7,175.8c-10.7,8.1-18,8-29.4-0.9c1.7-0.9,3.2-2,4.8-2.6c3.1-1.1,6.2-2.4,9.4-2.8
				c4.4-0.5,8.2,1.9,11.9,4.1C251.5,174.2,252.5,175,253.7,175.8z"/>
			<path class="st1" d="M101.2,200c4.6-2.6,9.1-5,14.3-4.9c1.8,0,3.6,0.6,5.3,1.4c3.5,1.5,6.7,3.4,9.5,6.1
				C119.6,209.8,111.2,209.3,101.2,200z"/>
			<path class="st1" d="M235.8,201.9c-5.6-0.8-10.9-2.1-14.6-6.3c-3.6-4.1-4.9-9.3-5.6-14.8C226.5,181.4,236.1,191.3,235.8,201.9z"
				/>
			<path class="st1" d="M254.7,146.6c-4.4,3.5-9,6.1-14.2,6.1c-5.9,0-10.7-3.2-15.3-6.7c5.7-5.4,14.9-7,21.6-3.8
				C249.5,143.5,252,145.1,254.7,146.6z"/>
			<path class="st1" d="M153.3,109.1c-11.4-1.4-19.2-11.2-18.4-23.1c2.7,1.1,5.3,2.1,7.9,3.2c6.3,2.6,8.5,8.1,9.6,14.2
				C152.8,105.2,153,107.1,153.3,109.1z"/>
			<path class="st1" d="M154.9,127.7c-12.7,1.2-19.8-1.7-25.1-15.2c8.1-1,15.9-0.1,20.4,7.3C151.7,122.3,153.2,124.9,154.9,127.7z"
				/>
			<path class="st1" d="M210.5,133.2c-0.2-0.1-0.3-0.1-0.3-0.2c-2.8-5-6.1-14.3-1.8-20.6c1.9-2.8,3.8-5.5,5.8-8.2
				c0.3,0,0.5,0,0.8,0.1c1,2.6,2.1,5.2,3,7.9c2.5,7-0.6,12.5-4.7,17.7C212.4,131.1,211.4,132.2,210.5,133.2z"/>
			<path class="st1" d="M124.7,126.2c4.3,3.8,8.5,7.4,9.7,12.7c1.2,5.4-0.4,10.7-2.4,16c-0.7-0.5-1.2-0.8-1.6-1.2
				c-2.2-2.7-4.5-5.2-6.5-8.1c-2.9-4.3-1.9-9-0.9-13.7C123.3,130.1,124,128.4,124.7,126.2z"/>
			<path class="st1" d="M117.2,174.5c-1.7,5.9-3.2,11.4-7.8,15.1c-4.1,3.3-9.1,4.1-14.5,4.7c0.8-4.1,2.1-7.5,3.9-10.9
				c2.5-4.7,7-6.2,11.6-7.5C112.5,175.3,114.6,175,117.2,174.5z"/>
			<path class="st1" d="M165.3,117.7c-9.6-6.2-12.7-17.8-7.5-28.4c4,3.1,7.7,6.5,9.3,11.4C169.1,106.4,167.2,112.1,165.3,117.7z"/>
			<path class="st1" d="M232.8,183.8c11.8-0.4,16.3,2.7,20.3,13.6c-4.3,0.9-8.4,0.4-12.1-1.7C236.5,193.2,234.7,188.5,232.8,183.8z"
				/>
			<path class="st1" d="M116.4,103.9c6.9-6,17.8-4.9,23.9,2.4C131.6,112.1,124.9,112.2,116.4,103.9z"/>
			<path class="st1" d="M102.5,175.4c-5.7,9.3-12.7,11.6-22.8,7.6C83.3,174.6,92.5,171.5,102.5,175.4z"/>
			<path class="st1" d="M202.8,109.5c-0.1,10.1-8.2,18.2-17,17.1C185.5,117.7,192.5,110.6,202.8,109.5z"/>
			<path class="st1" d="M95.7,218.8c6.8-10,12.3-11,23.2-7.4c-2.6,3.7-5.5,7.2-9.8,8.6C104.6,221.5,100.1,220.7,95.7,218.8z"/>
			<path class="st1" d="M137,135.5c8.2-3.3,18.6,1.8,21.5,10.7C147.9,148.7,141.6,145.6,137,135.5z"/>
		</g>
		<circle class="st1" cx="91" cy="189.8" r="4.3"/>
		<circle class="st1" cx="117.2" cy="140.9" r="4.1"/>
		<circle class="st1" cx="153.4" cy="151.5" r="2"/>
		<circle class="st1" cx="122" cy="113.8" r="3.4"/>
		<circle class="st1" cx="171.7" cy="103.1" r="4"/>
		<circle class="st1" cx="200" cy="141" r="3.1"/>
		<circle class="st1" cx="152.7" cy="168.9" r="4.3"/>
		<circle class="st1" cx="177.3" cy="168.1" r="4.1"/>
		<circle class="st1" cx="179.4" cy="214.6" r="4.3"/>
	</g>
</g>
</svg>
